%TF.GenerationSoftware,KiCad,Pcbnew,8.0.8-8.0.8-0~ubuntu20.04.1*%
%TF.CreationDate,2025-02-12T12:26:51+07:00*%
%TF.ProjectId,MUX-ADG706,4d55582d-4144-4473-9730-362e6b696361,rev?*%
%TF.SameCoordinates,Original*%
%TF.FileFunction,Copper,L1,Top*%
%TF.FilePolarity,Positive*%
%FSLAX46Y46*%
G04 Gerber Fmt 4.6, Leading zero omitted, Abs format (unit mm)*
G04 Created by KiCad (PCBNEW 8.0.8-8.0.8-0~ubuntu20.04.1) date 2025-02-12 12:26:51*
%MOMM*%
%LPD*%
G01*
G04 APERTURE LIST*
G04 Aperture macros list*
%AMRoundRect*
0 Rectangle with rounded corners*
0 $1 Rounding radius*
0 $2 $3 $4 $5 $6 $7 $8 $9 X,Y pos of 4 corners*
0 Add a 4 corners polygon primitive as box body*
4,1,4,$2,$3,$4,$5,$6,$7,$8,$9,$2,$3,0*
0 Add four circle primitives for the rounded corners*
1,1,$1+$1,$2,$3*
1,1,$1+$1,$4,$5*
1,1,$1+$1,$6,$7*
1,1,$1+$1,$8,$9*
0 Add four rect primitives between the rounded corners*
20,1,$1+$1,$2,$3,$4,$5,0*
20,1,$1+$1,$4,$5,$6,$7,0*
20,1,$1+$1,$6,$7,$8,$9,0*
20,1,$1+$1,$8,$9,$2,$3,0*%
G04 Aperture macros list end*
%TA.AperFunction,SMDPad,CuDef*%
%ADD10RoundRect,0.309434X-0.510566X-0.590566X0.510566X-0.590566X0.510566X0.590566X-0.510566X0.590566X0*%
%TD*%
%TA.AperFunction,SMDPad,CuDef*%
%ADD11RoundRect,0.315385X-0.504615X-0.559615X0.504615X-0.559615X0.504615X0.559615X-0.504615X0.559615X0*%
%TD*%
%TA.AperFunction,SMDPad,CuDef*%
%ADD12RoundRect,0.102500X-0.632500X-0.102500X0.632500X-0.102500X0.632500X0.102500X-0.632500X0.102500X0*%
%TD*%
%TA.AperFunction,ComponentPad*%
%ADD13O,2.000000X2.500000*%
%TD*%
%TA.AperFunction,ComponentPad*%
%ADD14R,2.000000X2.500000*%
%TD*%
%TA.AperFunction,ViaPad*%
%ADD15C,0.600000*%
%TD*%
%TA.AperFunction,Conductor*%
%ADD16C,0.200000*%
%TD*%
%TA.AperFunction,Conductor*%
%ADD17C,0.350000*%
%TD*%
G04 APERTURE END LIST*
D10*
%TO.P,C1,1*%
%TO.N,GND*%
X100700000Y-104140000D03*
%TO.P,C1,2*%
%TO.N,VCC*%
X104140000Y-104140000D03*
%TD*%
D11*
%TO.P,R1,1*%
%TO.N,Net-(J1-Pin_3)*%
X117348000Y-104140000D03*
%TO.P,R1,2*%
%TO.N,GND*%
X120788000Y-104140000D03*
%TD*%
D12*
%TO.P,U1,1,VDD*%
%TO.N,VCC*%
X108052000Y-97020000D03*
%TO.P,U1,2*%
%TO.N,N/C*%
X108052000Y-97670000D03*
%TO.P,U1,3*%
X108052000Y-98320000D03*
%TO.P,U1,4,S16*%
%TO.N,Net-(J2-9)*%
X108052000Y-98970000D03*
%TO.P,U1,5,S15*%
%TO.N,Net-(J2-Pin_15)*%
X108052000Y-99620000D03*
%TO.P,U1,6,S14*%
%TO.N,Net-(J2-Pin_14)*%
X108052000Y-100270000D03*
%TO.P,U1,7,S13*%
%TO.N,Net-(J2-Pin_13)*%
X108052000Y-100920000D03*
%TO.P,U1,8,S12*%
%TO.N,Net-(J2-Pin_12)*%
X108052000Y-101570000D03*
%TO.P,U1,9,S11*%
%TO.N,Net-(J2-Pin_11)*%
X108052000Y-102220000D03*
%TO.P,U1,10,S10*%
%TO.N,Net-(J2-Pin_10)*%
X108052000Y-102870000D03*
%TO.P,U1,11,S9*%
%TO.N,Net-(J2-Pin_9)*%
X108052000Y-103520000D03*
%TO.P,U1,12,GND*%
%TO.N,GND*%
X108052000Y-104170000D03*
%TO.P,U1,13*%
%TO.N,N/C*%
X108052000Y-104820000D03*
%TO.P,U1,14,A3*%
%TO.N,Net-(J1-Pin_7)*%
X108052000Y-105470000D03*
%TO.P,U1,15,A2*%
%TO.N,Net-(J1-Pin_6)*%
X113792000Y-105470000D03*
%TO.P,U1,16,A1*%
%TO.N,Net-(J1-Pin_5)*%
X113792000Y-104820000D03*
%TO.P,U1,17,A0*%
%TO.N,Net-(J1-Pin_4)*%
X113792000Y-104170000D03*
%TO.P,U1,18,EN*%
%TO.N,Net-(J1-Pin_3)*%
X113792000Y-103520000D03*
%TO.P,U1,19,S1*%
%TO.N,Net-(J2-Pin_1)*%
X113792000Y-102870000D03*
%TO.P,U1,20,S2*%
%TO.N,Net-(J2-Pin_2)*%
X113792000Y-102220000D03*
%TO.P,U1,21,S3*%
%TO.N,Net-(J2-Pin_3)*%
X113792000Y-101570000D03*
%TO.P,U1,22,S4*%
%TO.N,Net-(J2-Pin_4)*%
X113792000Y-100920000D03*
%TO.P,U1,23,S5*%
%TO.N,Net-(J2-Pin_5)*%
X113792000Y-100270000D03*
%TO.P,U1,24,S6*%
%TO.N,Net-(J2-Pin_6)*%
X113792000Y-99620000D03*
%TO.P,U1,25,S7*%
%TO.N,Net-(J2-Pin_7)*%
X113792000Y-98970000D03*
%TO.P,U1,26,S8*%
%TO.N,Net-(J2-Pin_8)*%
X113792000Y-98320000D03*
%TO.P,U1,27,VSS*%
%TO.N,GND*%
X113792000Y-97670000D03*
%TO.P,U1,28,D*%
%TO.N,Net-(J1-Pin_8)*%
X113792000Y-97020000D03*
%TD*%
D13*
%TO.P,J2,1,Pin_1*%
%TO.N,Net-(J2-Pin_1)*%
X130048000Y-93472000D03*
%TO.P,J2,2,Pin_2*%
%TO.N,Net-(J2-Pin_2)*%
X127508000Y-93472000D03*
%TO.P,J2,3,Pin_3*%
%TO.N,Net-(J2-Pin_3)*%
X124968000Y-93472000D03*
%TO.P,J2,4,Pin_4*%
%TO.N,Net-(J2-Pin_4)*%
X122428000Y-93472000D03*
%TO.P,J2,5,Pin_5*%
%TO.N,Net-(J2-Pin_5)*%
X119888000Y-93472000D03*
%TO.P,J2,6,Pin_6*%
%TO.N,Net-(J2-Pin_6)*%
X117348000Y-93472000D03*
%TO.P,J2,7,Pin_7*%
%TO.N,Net-(J2-Pin_7)*%
X114808000Y-93472000D03*
%TO.P,J2,8,Pin_8*%
%TO.N,Net-(J2-Pin_8)*%
X112268000Y-93472000D03*
%TO.P,J2,9,Pin_9*%
%TO.N,Net-(J2-Pin_9)*%
X109728000Y-93472000D03*
%TO.P,J2,10,Pin_10*%
%TO.N,Net-(J2-Pin_10)*%
X107188000Y-93472000D03*
%TO.P,J2,11,Pin_11*%
%TO.N,Net-(J2-Pin_11)*%
X104648000Y-93472000D03*
%TO.P,J2,12,Pin_12*%
%TO.N,Net-(J2-Pin_12)*%
X102108000Y-93472000D03*
%TO.P,J2,13,Pin_13*%
%TO.N,Net-(J2-Pin_13)*%
X99568000Y-93472000D03*
%TO.P,J2,14,Pin_14*%
%TO.N,Net-(J2-Pin_14)*%
X97028000Y-93472000D03*
%TO.P,J2,15,Pin_15*%
%TO.N,Net-(J2-Pin_15)*%
X94488000Y-93472000D03*
%TO.P,J2,16,9*%
%TO.N,Net-(J2-9)*%
X91948000Y-93472000D03*
%TD*%
D14*
%TO.P,J1,1,Pin_1*%
%TO.N,GND*%
X102108000Y-108712000D03*
D13*
%TO.P,J1,2,Pin_2*%
%TO.N,VCC*%
X104648000Y-108712000D03*
%TO.P,J1,3,Pin_3*%
%TO.N,Net-(J1-Pin_3)*%
X107188000Y-108712000D03*
%TO.P,J1,4,Pin_4*%
%TO.N,Net-(J1-Pin_4)*%
X109728000Y-108712000D03*
%TO.P,J1,5,Pin_5*%
%TO.N,Net-(J1-Pin_5)*%
X112268000Y-108712000D03*
%TO.P,J1,6,Pin_6*%
%TO.N,Net-(J1-Pin_6)*%
X114808000Y-108712000D03*
%TO.P,J1,7,Pin_7*%
%TO.N,Net-(J1-Pin_7)*%
X117348000Y-108712000D03*
%TO.P,J1,8,Pin_8*%
%TO.N,Net-(J1-Pin_8)*%
X119888000Y-108712000D03*
%TD*%
D15*
%TO.N,GND*%
X123190000Y-104140000D03*
X109728000Y-104140000D03*
X112268000Y-98806000D03*
%TO.N,Net-(J1-Pin_7)*%
X110729236Y-105649236D03*
%TO.N,Net-(J1-Pin_3)*%
X112761126Y-103613187D03*
%TO.N,Net-(J1-Pin_8)*%
X111549265Y-104691265D03*
%TO.N,VCC*%
X105664000Y-104140000D03*
X108204000Y-96266000D03*
%TO.N,Net-(J2-Pin_13)*%
X105156000Y-100838000D03*
%TO.N,Net-(J2-Pin_15)*%
X106426000Y-99568000D03*
%TO.N,Net-(J2-Pin_14)*%
X105664000Y-100076000D03*
%TO.N,Net-(J2-9)*%
X106680000Y-98806000D03*
%TD*%
D16*
%TO.N,GND*%
X120788000Y-104140000D02*
X123190000Y-104140000D01*
X113792000Y-97670000D02*
X113057001Y-97670000D01*
X113057001Y-97670000D02*
X112268000Y-98459001D01*
X108052000Y-104170000D02*
X109698000Y-104170000D01*
X112268000Y-98459001D02*
X112268000Y-98806000D01*
X109698000Y-104170000D02*
X109728000Y-104140000D01*
%TO.N,Net-(J1-Pin_7)*%
X108052000Y-105470000D02*
X110550000Y-105470000D01*
X110550000Y-105470000D02*
X110729236Y-105649236D01*
%TO.N,Net-(J1-Pin_5)*%
X112268000Y-105609001D02*
X113057001Y-104820000D01*
X112268000Y-108712000D02*
X112268000Y-105609001D01*
X113057001Y-104820000D02*
X113792000Y-104820000D01*
%TO.N,Net-(J1-Pin_3)*%
X116728000Y-103520000D02*
X117348000Y-104140000D01*
X112761126Y-103613187D02*
X113698813Y-103613187D01*
X113698813Y-103613187D02*
X113792000Y-103520000D01*
X113792000Y-103520000D02*
X116728000Y-103520000D01*
%TO.N,Net-(J1-Pin_4)*%
X109728000Y-107499001D02*
X109728000Y-108712000D01*
X113057001Y-104170000D02*
X109728000Y-107499001D01*
X113792000Y-104170000D02*
X113057001Y-104170000D01*
%TO.N,Net-(J1-Pin_8)*%
X111506000Y-104648000D02*
X111549265Y-104691265D01*
X111506000Y-98552000D02*
X111506000Y-104648000D01*
X113057001Y-97020000D02*
X112287001Y-97790000D01*
X113792000Y-97020000D02*
X113057001Y-97020000D01*
X112268000Y-97790000D02*
X111506000Y-98552000D01*
X112287001Y-97790000D02*
X112268000Y-97790000D01*
D17*
%TO.N,VCC*%
X104902000Y-108712000D02*
X104902000Y-109093000D01*
D16*
X108052000Y-96418000D02*
X108204000Y-96266000D01*
X104648000Y-105918000D02*
X104648000Y-108712000D01*
X104140000Y-105410000D02*
X104648000Y-105918000D01*
X104140000Y-104140000D02*
X104140000Y-105410000D01*
X104140000Y-104140000D02*
X105664000Y-104140000D01*
X108052000Y-97020000D02*
X108052000Y-96418000D01*
%TO.N,Net-(J1-Pin_6)*%
X114808000Y-106486000D02*
X114808000Y-108712000D01*
X113792000Y-105470000D02*
X114808000Y-106486000D01*
%TO.N,Net-(J2-Pin_8)*%
X114046000Y-96266000D02*
X112268000Y-94488000D01*
X114808000Y-96266000D02*
X114046000Y-96266000D01*
X115062000Y-98044000D02*
X115062000Y-96520000D01*
X114786000Y-98320000D02*
X115062000Y-98044000D01*
X112268000Y-94488000D02*
X112268000Y-93472000D01*
X113792000Y-98320000D02*
X114786000Y-98320000D01*
X115062000Y-96520000D02*
X114808000Y-96266000D01*
%TO.N,Net-(J2-Pin_6)*%
X113792000Y-99620000D02*
X115264000Y-99620000D01*
X117348000Y-97536000D02*
X117348000Y-93472000D01*
X115264000Y-99620000D02*
X117348000Y-97536000D01*
%TO.N,Net-(J2-Pin_4)*%
X115996000Y-100920000D02*
X122428000Y-94488000D01*
X122428000Y-94488000D02*
X122428000Y-93472000D01*
X113792000Y-100920000D02*
X115996000Y-100920000D01*
%TO.N,Net-(J2-Pin_13)*%
X105238000Y-100920000D02*
X105156000Y-100838000D01*
X108052000Y-100920000D02*
X105238000Y-100920000D01*
%TO.N,Net-(J2-Pin_12)*%
X104618000Y-101570000D02*
X102108000Y-99060000D01*
X108052000Y-101570000D02*
X104618000Y-101570000D01*
X102108000Y-99060000D02*
X102108000Y-93472000D01*
%TO.N,Net-(J2-Pin_3)*%
X116870000Y-101570000D02*
X124968000Y-93472000D01*
X113792000Y-101570000D02*
X116870000Y-101570000D01*
%TO.N,Net-(J2-Pin_11)*%
X108052000Y-102220000D02*
X108786999Y-102220000D01*
X108544529Y-95758000D02*
X108436529Y-95650000D01*
X108786999Y-102220000D02*
X109474000Y-101532999D01*
X108052000Y-102210000D02*
X107950000Y-102108000D01*
X108712000Y-95758000D02*
X108544529Y-95758000D01*
X108436529Y-95650000D02*
X106826000Y-95650000D01*
X108052000Y-102220000D02*
X108052000Y-102210000D01*
X106826000Y-95650000D02*
X104648000Y-93472000D01*
X109474000Y-96520000D02*
X108712000Y-95758000D01*
X109474000Y-101532999D02*
X109474000Y-96520000D01*
%TO.N,Net-(J2-Pin_10)*%
X108709060Y-102870000D02*
X110490000Y-101089060D01*
X108458000Y-95250000D02*
X107188000Y-93980000D01*
X110490000Y-96774000D02*
X108966000Y-95250000D01*
X108966000Y-95250000D02*
X108458000Y-95250000D01*
X110490000Y-101089060D02*
X110490000Y-96774000D01*
X107188000Y-93980000D02*
X107188000Y-93472000D01*
X108052000Y-102870000D02*
X108709060Y-102870000D01*
%TO.N,Net-(J2-Pin_5)*%
X115630000Y-100270000D02*
X119888000Y-96012000D01*
X119888000Y-96012000D02*
X119888000Y-93472000D01*
X113792000Y-100270000D02*
X115630000Y-100270000D01*
%TO.N,Net-(J2-Pin_7)*%
X115824000Y-96012000D02*
X114808000Y-94996000D01*
X114808000Y-94996000D02*
X114808000Y-93472000D01*
X113792000Y-98970000D02*
X114898000Y-98970000D01*
X115824000Y-98044000D02*
X115824000Y-96012000D01*
X114898000Y-98970000D02*
X115824000Y-98044000D01*
%TO.N,Net-(J2-Pin_15)*%
X108052000Y-99620000D02*
X106478000Y-99620000D01*
X106478000Y-99620000D02*
X106426000Y-99568000D01*
%TO.N,Net-(J2-Pin_2)*%
X118760000Y-102220000D02*
X127508000Y-93472000D01*
X113792000Y-102220000D02*
X118760000Y-102220000D01*
%TO.N,Net-(J2-Pin_14)*%
X105858000Y-100270000D02*
X105664000Y-100076000D01*
X108052000Y-100270000D02*
X105858000Y-100270000D01*
%TO.N,Net-(J2-Pin_1)*%
X113792000Y-102870000D02*
X120650000Y-102870000D01*
X120650000Y-102870000D02*
X130048000Y-93472000D01*
%TO.N,Net-(J2-Pin_9)*%
X110998000Y-101346000D02*
X110998000Y-96520000D01*
X110998000Y-96520000D02*
X109728000Y-95250000D01*
X109728000Y-95250000D02*
X109728000Y-93472000D01*
X108824000Y-103520000D02*
X110998000Y-101346000D01*
X108052000Y-103520000D02*
X108824000Y-103520000D01*
%TO.N,Net-(J2-9)*%
X108052000Y-98970000D02*
X106844000Y-98970000D01*
X106844000Y-98970000D02*
X106680000Y-98806000D01*
%TD*%
%TA.AperFunction,Conductor*%
%TO.N,GND*%
G36*
X100924420Y-94648833D02*
G01*
X100938315Y-94664870D01*
X100963483Y-94699510D01*
X101130490Y-94866517D01*
X101240756Y-94946630D01*
X101321568Y-95005344D01*
X101369828Y-95029933D01*
X101439794Y-95065582D01*
X101490590Y-95113556D01*
X101507500Y-95176067D01*
X101507500Y-98973330D01*
X101507499Y-98973348D01*
X101507499Y-99139054D01*
X101507498Y-99139054D01*
X101507499Y-99139057D01*
X101548114Y-99290632D01*
X101548424Y-99291787D01*
X101557935Y-99308260D01*
X101557936Y-99308262D01*
X101627477Y-99428712D01*
X101627481Y-99428717D01*
X101746349Y-99547585D01*
X101746355Y-99547590D01*
X104133139Y-101934374D01*
X104133149Y-101934385D01*
X104137479Y-101938715D01*
X104137480Y-101938716D01*
X104249284Y-102050520D01*
X104273147Y-102064297D01*
X104296847Y-102077980D01*
X104296846Y-102077980D01*
X104296849Y-102077981D01*
X104386209Y-102129574D01*
X104386210Y-102129575D01*
X104386212Y-102129575D01*
X104386215Y-102129577D01*
X104538943Y-102170501D01*
X104538946Y-102170501D01*
X104704653Y-102170501D01*
X104704669Y-102170500D01*
X106692501Y-102170500D01*
X106759540Y-102190185D01*
X106805295Y-102242989D01*
X106816501Y-102294500D01*
X106816501Y-102362022D01*
X106832019Y-102479907D01*
X106832022Y-102479918D01*
X106839325Y-102497550D01*
X106846792Y-102567020D01*
X106839325Y-102592450D01*
X106832022Y-102610081D01*
X106832020Y-102610086D01*
X106816500Y-102727978D01*
X106816500Y-103012022D01*
X106832019Y-103129907D01*
X106832022Y-103129918D01*
X106839325Y-103147550D01*
X106846792Y-103217020D01*
X106839325Y-103242450D01*
X106832022Y-103260081D01*
X106832020Y-103260086D01*
X106816500Y-103377978D01*
X106816500Y-103662022D01*
X106832019Y-103779907D01*
X106832022Y-103779918D01*
X106839595Y-103798202D01*
X106847062Y-103867672D01*
X106839596Y-103893099D01*
X106832509Y-103910210D01*
X106832508Y-103910211D01*
X106825295Y-103965000D01*
X106861095Y-103965000D01*
X106928134Y-103984685D01*
X106959470Y-104013513D01*
X106989432Y-104052560D01*
X106989434Y-104052561D01*
X106989436Y-104052564D01*
X107014273Y-104071622D01*
X107014277Y-104071625D01*
X107055479Y-104128054D01*
X107059633Y-104197800D01*
X107025420Y-104258720D01*
X107014277Y-104268375D01*
X106989432Y-104287439D01*
X106959470Y-104326487D01*
X106903042Y-104367689D01*
X106861095Y-104375000D01*
X106825295Y-104375000D01*
X106832507Y-104429781D01*
X106839596Y-104446895D01*
X106847063Y-104516365D01*
X106839597Y-104541795D01*
X106832020Y-104560087D01*
X106816500Y-104677978D01*
X106816500Y-104962022D01*
X106832019Y-105079907D01*
X106832022Y-105079918D01*
X106839325Y-105097550D01*
X106846792Y-105167020D01*
X106839325Y-105192450D01*
X106832022Y-105210081D01*
X106832020Y-105210086D01*
X106816500Y-105327978D01*
X106816500Y-105612022D01*
X106832019Y-105729907D01*
X106832021Y-105729915D01*
X106892779Y-105876599D01*
X106892780Y-105876601D01*
X106892781Y-105876602D01*
X106989436Y-106002564D01*
X107115398Y-106099219D01*
X107262085Y-106159979D01*
X107379979Y-106175500D01*
X108724020Y-106175499D01*
X108724022Y-106175499D01*
X108841907Y-106159980D01*
X108841906Y-106159980D01*
X108841915Y-106159979D01*
X108988602Y-106099219D01*
X108992633Y-106096125D01*
X109057801Y-106070930D01*
X109068121Y-106070500D01*
X109979993Y-106070500D01*
X110047032Y-106090185D01*
X110084986Y-106128527D01*
X110095756Y-106145667D01*
X110114757Y-106212904D01*
X110094390Y-106279739D01*
X110078444Y-106299321D01*
X109401661Y-106976103D01*
X109352299Y-107006353D01*
X109152003Y-107071433D01*
X108941566Y-107178657D01*
X108834532Y-107256423D01*
X108750490Y-107317483D01*
X108750488Y-107317485D01*
X108750487Y-107317485D01*
X108583484Y-107484488D01*
X108558318Y-107519127D01*
X108502987Y-107561792D01*
X108433374Y-107567771D01*
X108371579Y-107535165D01*
X108357682Y-107519127D01*
X108332517Y-107484490D01*
X108165510Y-107317483D01*
X107974433Y-107178657D01*
X107974429Y-107178655D01*
X107763996Y-107071433D01*
X107539368Y-106998446D01*
X107306097Y-106961500D01*
X107306092Y-106961500D01*
X107069908Y-106961500D01*
X107069903Y-106961500D01*
X106836631Y-106998446D01*
X106612003Y-107071433D01*
X106401566Y-107178657D01*
X106294532Y-107256423D01*
X106210490Y-107317483D01*
X106210488Y-107317485D01*
X106210487Y-107317485D01*
X106043484Y-107484488D01*
X106018318Y-107519127D01*
X105962987Y-107561792D01*
X105893374Y-107567771D01*
X105831579Y-107535165D01*
X105817682Y-107519127D01*
X105792517Y-107484490D01*
X105625510Y-107317483D01*
X105500150Y-107226403D01*
X105434431Y-107178655D01*
X105316204Y-107118415D01*
X105265409Y-107070441D01*
X105248500Y-107007931D01*
X105248500Y-105838941D01*
X105245699Y-105828489D01*
X105245698Y-105828487D01*
X105232362Y-105778716D01*
X105218851Y-105728293D01*
X105207577Y-105686216D01*
X105207576Y-105686215D01*
X105207576Y-105686213D01*
X105128522Y-105549286D01*
X105127295Y-105547687D01*
X105126679Y-105546093D01*
X105124457Y-105542245D01*
X105125057Y-105541898D01*
X105102100Y-105482518D01*
X105116138Y-105414073D01*
X105154137Y-105373196D01*
X105153301Y-105372148D01*
X105158741Y-105367808D01*
X105158747Y-105367805D01*
X105287805Y-105238747D01*
X105384909Y-105084207D01*
X105409507Y-105013908D01*
X105450228Y-104957133D01*
X105515181Y-104931385D01*
X105540432Y-104931643D01*
X105663996Y-104945565D01*
X105664000Y-104945565D01*
X105664004Y-104945565D01*
X105843249Y-104925369D01*
X105843252Y-104925368D01*
X105843255Y-104925368D01*
X106013522Y-104865789D01*
X106166262Y-104769816D01*
X106293816Y-104642262D01*
X106389789Y-104489522D01*
X106449368Y-104319255D01*
X106458135Y-104241450D01*
X106469565Y-104140000D01*
X106469565Y-104139996D01*
X106449369Y-103960750D01*
X106449368Y-103960745D01*
X106416800Y-103867672D01*
X106389789Y-103790478D01*
X106293816Y-103637738D01*
X106166262Y-103510184D01*
X106103107Y-103470501D01*
X106013523Y-103414211D01*
X105843254Y-103354631D01*
X105843249Y-103354630D01*
X105664004Y-103334435D01*
X105663995Y-103334435D01*
X105540431Y-103348356D01*
X105471610Y-103336301D01*
X105420231Y-103288951D01*
X105409507Y-103266090D01*
X105384909Y-103195793D01*
X105339798Y-103124000D01*
X105287805Y-103041253D01*
X105158747Y-102912195D01*
X105004207Y-102815091D01*
X104831933Y-102754809D01*
X104831928Y-102754808D01*
X104696058Y-102739500D01*
X104696052Y-102739500D01*
X103583948Y-102739500D01*
X103583941Y-102739500D01*
X103448071Y-102754808D01*
X103448066Y-102754809D01*
X103275792Y-102815091D01*
X103121252Y-102912195D01*
X102992193Y-103041254D01*
X102976662Y-103065973D01*
X102924327Y-103112263D01*
X102871669Y-103124000D01*
X101967740Y-103124000D01*
X101900701Y-103104315D01*
X101862746Y-103065971D01*
X101847413Y-103041569D01*
X101847411Y-103041566D01*
X101718433Y-102912588D01*
X101563990Y-102815544D01*
X101391821Y-102755300D01*
X101391817Y-102755299D01*
X101256028Y-102740000D01*
X100950000Y-102740000D01*
X100950000Y-105540000D01*
X101256028Y-105540000D01*
X101256028Y-105539999D01*
X101391817Y-105524700D01*
X101391821Y-105524699D01*
X101563990Y-105464455D01*
X101718433Y-105367411D01*
X101847411Y-105238433D01*
X101847413Y-105238430D01*
X101862746Y-105214029D01*
X101915080Y-105167737D01*
X101967740Y-105156000D01*
X102871669Y-105156000D01*
X102938708Y-105175685D01*
X102976662Y-105214027D01*
X102992193Y-105238745D01*
X102992195Y-105238747D01*
X103121253Y-105367805D01*
X103275793Y-105464909D01*
X103448066Y-105525190D01*
X103468317Y-105527471D01*
X103532731Y-105554537D01*
X103572287Y-105612131D01*
X103574209Y-105618597D01*
X103580421Y-105641781D01*
X103584726Y-105649237D01*
X103584726Y-105649238D01*
X103659477Y-105778712D01*
X103659481Y-105778717D01*
X103778349Y-105897585D01*
X103778355Y-105897590D01*
X104011181Y-106130416D01*
X104044666Y-106191739D01*
X104047500Y-106218097D01*
X104047500Y-107007931D01*
X104027815Y-107074970D01*
X103979796Y-107118415D01*
X103861568Y-107178655D01*
X103737422Y-107268854D01*
X103671615Y-107292334D01*
X103603561Y-107276509D01*
X103555942Y-107227510D01*
X103555604Y-107227696D01*
X103554938Y-107226478D01*
X103554866Y-107226403D01*
X103554719Y-107226076D01*
X103551350Y-107219906D01*
X103465190Y-107104812D01*
X103465187Y-107104809D01*
X103350093Y-107018649D01*
X103350086Y-107018645D01*
X103215379Y-106968403D01*
X103215372Y-106968401D01*
X103155844Y-106962000D01*
X102358000Y-106962000D01*
X102358000Y-108278988D01*
X102300993Y-108246075D01*
X102173826Y-108212000D01*
X102042174Y-108212000D01*
X101915007Y-108246075D01*
X101858000Y-108278988D01*
X101858000Y-106962000D01*
X101060155Y-106962000D01*
X101000627Y-106968401D01*
X101000620Y-106968403D01*
X100865913Y-107018645D01*
X100865906Y-107018649D01*
X100750812Y-107104809D01*
X100750809Y-107104812D01*
X100664649Y-107219906D01*
X100664645Y-107219913D01*
X100614403Y-107354620D01*
X100614401Y-107354627D01*
X100608000Y-107414155D01*
X100608000Y-108462000D01*
X101674988Y-108462000D01*
X101642075Y-108519007D01*
X101608000Y-108646174D01*
X101608000Y-108777826D01*
X101642075Y-108904993D01*
X101674988Y-108962000D01*
X100608000Y-108962000D01*
X100608000Y-109865500D01*
X100588315Y-109932539D01*
X100535511Y-109978294D01*
X100484000Y-109989500D01*
X90794500Y-109989500D01*
X90727461Y-109969815D01*
X90681706Y-109917011D01*
X90670500Y-109865500D01*
X90670500Y-104776028D01*
X99380000Y-104776028D01*
X99395299Y-104911817D01*
X99395300Y-104911821D01*
X99455544Y-105083990D01*
X99552588Y-105238433D01*
X99681566Y-105367411D01*
X99836009Y-105464455D01*
X100008178Y-105524699D01*
X100008182Y-105524700D01*
X100143971Y-105539999D01*
X100143972Y-105540000D01*
X100450000Y-105540000D01*
X100450000Y-104390000D01*
X99380000Y-104390000D01*
X99380000Y-104776028D01*
X90670500Y-104776028D01*
X90670500Y-103503971D01*
X99380000Y-103503971D01*
X99380000Y-103890000D01*
X100450000Y-103890000D01*
X100450000Y-102740000D01*
X100143972Y-102740000D01*
X100008182Y-102755299D01*
X100008178Y-102755300D01*
X99836009Y-102815544D01*
X99681566Y-102912588D01*
X99552588Y-103041566D01*
X99455544Y-103196009D01*
X99395300Y-103368178D01*
X99395299Y-103368182D01*
X99380000Y-103503971D01*
X90670500Y-103503971D01*
X90670500Y-94865889D01*
X90690185Y-94798850D01*
X90742989Y-94753095D01*
X90812147Y-94743151D01*
X90875703Y-94772176D01*
X90882181Y-94778208D01*
X90970490Y-94866517D01*
X91161567Y-95005343D01*
X91183115Y-95016322D01*
X91372003Y-95112566D01*
X91372005Y-95112566D01*
X91372008Y-95112568D01*
X91492412Y-95151689D01*
X91596631Y-95185553D01*
X91829903Y-95222500D01*
X91829908Y-95222500D01*
X92066097Y-95222500D01*
X92299368Y-95185553D01*
X92328563Y-95176067D01*
X92523992Y-95112568D01*
X92734433Y-95005343D01*
X92925510Y-94866517D01*
X93092517Y-94699510D01*
X93117682Y-94664872D01*
X93173011Y-94622207D01*
X93242625Y-94616228D01*
X93304420Y-94648833D01*
X93318315Y-94664870D01*
X93343483Y-94699510D01*
X93510490Y-94866517D01*
X93701567Y-95005343D01*
X93723115Y-95016322D01*
X93912003Y-95112566D01*
X93912005Y-95112566D01*
X93912008Y-95112568D01*
X94032412Y-95151689D01*
X94136631Y-95185553D01*
X94369903Y-95222500D01*
X94369908Y-95222500D01*
X94606097Y-95222500D01*
X94839368Y-95185553D01*
X94868563Y-95176067D01*
X95063992Y-95112568D01*
X95274433Y-95005343D01*
X95465510Y-94866517D01*
X95632517Y-94699510D01*
X95657682Y-94664872D01*
X95713011Y-94622207D01*
X95782625Y-94616228D01*
X95844420Y-94648833D01*
X95858315Y-94664870D01*
X95883483Y-94699510D01*
X96050490Y-94866517D01*
X96241567Y-95005343D01*
X96263115Y-95016322D01*
X96452003Y-95112566D01*
X96452005Y-95112566D01*
X96452008Y-95112568D01*
X96572412Y-95151689D01*
X96676631Y-95185553D01*
X96909903Y-95222500D01*
X96909908Y-95222500D01*
X97146097Y-95222500D01*
X97379368Y-95185553D01*
X97408563Y-95176067D01*
X97603992Y-95112568D01*
X97814433Y-95005343D01*
X98005510Y-94866517D01*
X98172517Y-94699510D01*
X98197682Y-94664872D01*
X98253011Y-94622207D01*
X98322625Y-94616228D01*
X98384420Y-94648833D01*
X98398315Y-94664870D01*
X98423483Y-94699510D01*
X98590490Y-94866517D01*
X98781567Y-95005343D01*
X98803115Y-95016322D01*
X98992003Y-95112566D01*
X98992005Y-95112566D01*
X98992008Y-95112568D01*
X99112412Y-95151689D01*
X99216631Y-95185553D01*
X99449903Y-95222500D01*
X99449908Y-95222500D01*
X99686097Y-95222500D01*
X99919368Y-95185553D01*
X99948563Y-95176067D01*
X100143992Y-95112568D01*
X100354433Y-95005343D01*
X100545510Y-94866517D01*
X100712517Y-94699510D01*
X100737682Y-94664872D01*
X100793011Y-94622207D01*
X100862625Y-94616228D01*
X100924420Y-94648833D01*
G37*
%TD.AperFunction*%
%TA.AperFunction,Conductor*%
G36*
X131244834Y-94749707D02*
G01*
X131300767Y-94791579D01*
X131325184Y-94857043D01*
X131325500Y-94865889D01*
X131325500Y-109865500D01*
X131305815Y-109932539D01*
X131253011Y-109978294D01*
X131201500Y-109989500D01*
X121239561Y-109989500D01*
X121172522Y-109969815D01*
X121126767Y-109917011D01*
X121116823Y-109847853D01*
X121139242Y-109792615D01*
X121171343Y-109748433D01*
X121278568Y-109537992D01*
X121351553Y-109313368D01*
X121383431Y-109112099D01*
X121388500Y-109080097D01*
X121388500Y-108343902D01*
X121351553Y-108110631D01*
X121278566Y-107886003D01*
X121171342Y-107675566D01*
X121157999Y-107657201D01*
X121032517Y-107484490D01*
X120865510Y-107317483D01*
X120674433Y-107178657D01*
X120674429Y-107178655D01*
X120463996Y-107071433D01*
X120239368Y-106998446D01*
X120006097Y-106961500D01*
X120006092Y-106961500D01*
X119769908Y-106961500D01*
X119769903Y-106961500D01*
X119536631Y-106998446D01*
X119312003Y-107071433D01*
X119101566Y-107178657D01*
X118994532Y-107256423D01*
X118910490Y-107317483D01*
X118910488Y-107317485D01*
X118910487Y-107317485D01*
X118743484Y-107484488D01*
X118718318Y-107519127D01*
X118662987Y-107561792D01*
X118593374Y-107567771D01*
X118531579Y-107535165D01*
X118517682Y-107519127D01*
X118492517Y-107484490D01*
X118325510Y-107317483D01*
X118134433Y-107178657D01*
X118134429Y-107178655D01*
X117923996Y-107071433D01*
X117699368Y-106998446D01*
X117466097Y-106961500D01*
X117466092Y-106961500D01*
X117229908Y-106961500D01*
X117229903Y-106961500D01*
X116996631Y-106998446D01*
X116772003Y-107071433D01*
X116561566Y-107178657D01*
X116454532Y-107256423D01*
X116370490Y-107317483D01*
X116370488Y-107317485D01*
X116370487Y-107317485D01*
X116203484Y-107484488D01*
X116178318Y-107519127D01*
X116122987Y-107561792D01*
X116053374Y-107567771D01*
X115991579Y-107535165D01*
X115977682Y-107519127D01*
X115952517Y-107484490D01*
X115785510Y-107317483D01*
X115660150Y-107226403D01*
X115594431Y-107178655D01*
X115476204Y-107118415D01*
X115425409Y-107070441D01*
X115408500Y-107007931D01*
X115408500Y-106575059D01*
X115408501Y-106575046D01*
X115408501Y-106406945D01*
X115408501Y-106406943D01*
X115367577Y-106254215D01*
X115329647Y-106188519D01*
X115288520Y-106117284D01*
X115176716Y-106005480D01*
X115172385Y-106001149D01*
X115172374Y-106001139D01*
X115038104Y-105866869D01*
X115004619Y-105805546D01*
X115009603Y-105735854D01*
X115011208Y-105731774D01*
X115011979Y-105729915D01*
X115027500Y-105612021D01*
X115027499Y-105327980D01*
X115011979Y-105210085D01*
X115004675Y-105192454D01*
X114997206Y-105122986D01*
X115004676Y-105097545D01*
X115011979Y-105079915D01*
X115027500Y-104962021D01*
X115027499Y-104677980D01*
X115011979Y-104560085D01*
X115004675Y-104542454D01*
X114997206Y-104472986D01*
X115004676Y-104447545D01*
X115004947Y-104446890D01*
X115011979Y-104429915D01*
X115027500Y-104312021D01*
X115027500Y-104244500D01*
X115047185Y-104177461D01*
X115099989Y-104131706D01*
X115151500Y-104120500D01*
X115903500Y-104120500D01*
X115970539Y-104140185D01*
X116016294Y-104192989D01*
X116027500Y-104244500D01*
X116027500Y-104745440D01*
X116027501Y-104745446D01*
X116042920Y-104882311D01*
X116103645Y-105055853D01*
X116178941Y-105175685D01*
X116201464Y-105211530D01*
X116331470Y-105341536D01*
X116487146Y-105439354D01*
X116659279Y-105499586D01*
X116660685Y-105500078D01*
X116660690Y-105500079D01*
X116729123Y-105507789D01*
X116797561Y-105515500D01*
X117898438Y-105515499D01*
X117898440Y-105515499D01*
X117898444Y-105515498D01*
X117919290Y-105513149D01*
X118035311Y-105500079D01*
X118035313Y-105500078D01*
X118035315Y-105500078D01*
X118208854Y-105439354D01*
X118364530Y-105341536D01*
X118494536Y-105211530D01*
X118494539Y-105211524D01*
X118498879Y-105206084D01*
X118500492Y-105207371D01*
X118545298Y-105167738D01*
X118597960Y-105156000D01*
X119538631Y-105156000D01*
X119605670Y-105175685D01*
X119636355Y-105206687D01*
X119637511Y-105205766D01*
X119641856Y-105211214D01*
X119771784Y-105341142D01*
X119927362Y-105438899D01*
X120100797Y-105499586D01*
X120100801Y-105499587D01*
X120237593Y-105514999D01*
X120237594Y-105515000D01*
X120538000Y-105515000D01*
X121038000Y-105515000D01*
X121338406Y-105515000D01*
X121338406Y-105514999D01*
X121475198Y-105499587D01*
X121475202Y-105499586D01*
X121648637Y-105438899D01*
X121804215Y-105341142D01*
X121934142Y-105211215D01*
X122031899Y-105055637D01*
X122092586Y-104882202D01*
X122092587Y-104882198D01*
X122107999Y-104745406D01*
X122108000Y-104745406D01*
X122108000Y-104390000D01*
X121038000Y-104390000D01*
X121038000Y-105515000D01*
X120538000Y-105515000D01*
X120538000Y-104264000D01*
X120557685Y-104196961D01*
X120610489Y-104151206D01*
X120662000Y-104140000D01*
X120788000Y-104140000D01*
X120788000Y-104014000D01*
X120807685Y-103946961D01*
X120860489Y-103901206D01*
X120912000Y-103890000D01*
X122108000Y-103890000D01*
X122108000Y-103534594D01*
X122107999Y-103534593D01*
X122092587Y-103397801D01*
X122092586Y-103397797D01*
X122031899Y-103224362D01*
X121934142Y-103068784D01*
X121804214Y-102938856D01*
X121804209Y-102938852D01*
X121706290Y-102877325D01*
X121659999Y-102824991D01*
X121649351Y-102755937D01*
X121677726Y-102692089D01*
X121684557Y-102684676D01*
X129265650Y-95103583D01*
X129326971Y-95070100D01*
X129396663Y-95075084D01*
X129409617Y-95080777D01*
X129472008Y-95112568D01*
X129652393Y-95171179D01*
X129696631Y-95185553D01*
X129929903Y-95222500D01*
X129929908Y-95222500D01*
X130166097Y-95222500D01*
X130399368Y-95185553D01*
X130428563Y-95176067D01*
X130623992Y-95112568D01*
X130834433Y-95005343D01*
X131025510Y-94866517D01*
X131113819Y-94778208D01*
X131175142Y-94744723D01*
X131244834Y-94749707D01*
G37*
%TD.AperFunction*%
%TA.AperFunction,Conductor*%
G36*
X110824834Y-102470914D02*
G01*
X110880767Y-102512786D01*
X110905184Y-102578250D01*
X110905500Y-102587096D01*
X110905500Y-104175478D01*
X110886494Y-104241450D01*
X110823474Y-104341746D01*
X110763898Y-104512002D01*
X110763895Y-104512015D01*
X110743700Y-104691261D01*
X110746592Y-104716932D01*
X110734536Y-104785754D01*
X110687186Y-104837133D01*
X110637254Y-104854034D01*
X110549984Y-104863866D01*
X110543199Y-104865416D01*
X110542961Y-104864377D01*
X110512821Y-104869499D01*
X110463347Y-104869499D01*
X110463331Y-104869500D01*
X109411499Y-104869500D01*
X109344460Y-104849815D01*
X109298705Y-104797011D01*
X109287499Y-104745500D01*
X109287499Y-104677977D01*
X109271980Y-104560092D01*
X109271979Y-104560087D01*
X109271979Y-104560085D01*
X109264404Y-104541799D01*
X109256935Y-104472331D01*
X109264405Y-104446890D01*
X109271492Y-104429781D01*
X109278705Y-104375000D01*
X109242905Y-104375000D01*
X109175866Y-104355315D01*
X109144530Y-104326487D01*
X109114565Y-104287437D01*
X109114564Y-104287436D01*
X109089722Y-104268373D01*
X109048520Y-104211945D01*
X109044367Y-104142199D01*
X109078580Y-104081279D01*
X109089706Y-104071637D01*
X109114564Y-104052564D01*
X109114570Y-104052555D01*
X109119397Y-104047730D01*
X109145221Y-104028099D01*
X109145153Y-104027980D01*
X109192716Y-104000520D01*
X109192720Y-104000515D01*
X109199161Y-103995574D01*
X109200128Y-103996835D01*
X109253240Y-103967834D01*
X109278612Y-103965106D01*
X109284311Y-103958607D01*
X109291580Y-103911993D01*
X109316070Y-103877163D01*
X110693820Y-102499413D01*
X110755142Y-102465930D01*
X110824834Y-102470914D01*
G37*
%TD.AperFunction*%
%TA.AperFunction,Conductor*%
G36*
X112500139Y-98509608D02*
G01*
X112556073Y-98551479D01*
X112571367Y-98578337D01*
X112579324Y-98597547D01*
X112586793Y-98667017D01*
X112579325Y-98692450D01*
X112572022Y-98710081D01*
X112572020Y-98710086D01*
X112556500Y-98827978D01*
X112556500Y-99112022D01*
X112572019Y-99229907D01*
X112572022Y-99229918D01*
X112579325Y-99247550D01*
X112586792Y-99317020D01*
X112579325Y-99342450D01*
X112572022Y-99360081D01*
X112572020Y-99360086D01*
X112556500Y-99477978D01*
X112556500Y-99762022D01*
X112572019Y-99879907D01*
X112572022Y-99879918D01*
X112579325Y-99897550D01*
X112586792Y-99967020D01*
X112579325Y-99992450D01*
X112572022Y-100010081D01*
X112572020Y-100010086D01*
X112556500Y-100127978D01*
X112556500Y-100412022D01*
X112572019Y-100529907D01*
X112572022Y-100529918D01*
X112579325Y-100547550D01*
X112586792Y-100617020D01*
X112579325Y-100642450D01*
X112572022Y-100660081D01*
X112572020Y-100660086D01*
X112556500Y-100777978D01*
X112556500Y-101062022D01*
X112572019Y-101179907D01*
X112572022Y-101179918D01*
X112579325Y-101197550D01*
X112586792Y-101267020D01*
X112579325Y-101292450D01*
X112572022Y-101310081D01*
X112572020Y-101310086D01*
X112556500Y-101427978D01*
X112556500Y-101712022D01*
X112572019Y-101829907D01*
X112572022Y-101829918D01*
X112579325Y-101847550D01*
X112586792Y-101917020D01*
X112579325Y-101942450D01*
X112572022Y-101960081D01*
X112572020Y-101960086D01*
X112556500Y-102077978D01*
X112556500Y-102362022D01*
X112572019Y-102479907D01*
X112572022Y-102479918D01*
X112579325Y-102497550D01*
X112586792Y-102567020D01*
X112579325Y-102592450D01*
X112572022Y-102610081D01*
X112572021Y-102610085D01*
X112556500Y-102727971D01*
X112556500Y-102748714D01*
X112536815Y-102815753D01*
X112484011Y-102861508D01*
X112473455Y-102865755D01*
X112411605Y-102887397D01*
X112411601Y-102887399D01*
X112296472Y-102959740D01*
X112229235Y-102978740D01*
X112162400Y-102958372D01*
X112117186Y-102905104D01*
X112106500Y-102854746D01*
X112106500Y-98852097D01*
X112126185Y-98785058D01*
X112142819Y-98764416D01*
X112240218Y-98667017D01*
X112369127Y-98538107D01*
X112430448Y-98504624D01*
X112500139Y-98509608D01*
G37*
%TD.AperFunction*%
%TD*%
M02*
