M48
; DRILL file {KiCad 8.0.8-8.0.8-0~ubuntu20.04.1} date 2025-02-12T12:26:54+0700
; FORMAT={-:-/ absolute / inch / decimal}
; #@! TF.CreationDate,2025-02-12T12:26:54+07:00
; #@! TF.GenerationSoftware,Kicad,Pcbnew,8.0.8-8.0.8-0~ubuntu20.04.1
; #@! TF.FileFunction,Plated,1,2,PTH
FMAT,2
INCH
; #@! TA.AperFunction,Plated,PTH,ViaDrill
T1C0.0118
; #@! TA.AperFunction,Plated,PTH,ComponentDrill
T2C0.0394
%
G90
G05
T1
X4.14Y-3.97
X4.16Y-3.94
X4.16Y-4.1
X4.19Y-3.92
X4.2Y-3.89
X4.26Y-3.79
X4.32Y-4.1
X4.3594Y-4.1594
X4.3917Y-4.1217
X4.42Y-3.89
X4.4394Y-4.0793
X4.85Y-4.1
T2
X3.62Y-3.68
X3.72Y-3.68
X3.82Y-3.68
X3.92Y-3.68
X4.02Y-3.68
X4.02Y-4.28
X4.12Y-3.68
X4.12Y-4.28
X4.22Y-3.68
X4.22Y-4.28
X4.32Y-3.68
X4.32Y-4.28
X4.42Y-3.68
X4.42Y-4.28
X4.52Y-3.68
X4.52Y-4.28
X4.62Y-3.68
X4.62Y-4.28
X4.72Y-3.68
X4.72Y-4.28
X4.82Y-3.68
X4.92Y-3.68
X5.02Y-3.68
X5.12Y-3.68
M30
