<?xml version="1.0" encoding="UTF-8" standalone="no"?>
<!-- Created with Inkscape (http://www.inkscape.org/) -->

<svg
   width="42.0mm"
   height="19.0mm"
   viewBox="0 0 42.0 19.0"
   version="1.1"
   id="svg1668"
   sodipodi:docname="silkscreen.svg"
   inkscape:version="1.1 (c4e8f9e, 2021-05-24)"
   xmlns:inkscape="http://www.inkscape.org/namespaces/inkscape"
   xmlns:sodipodi="http://sodipodi.sourceforge.net/DTD/sodipodi-0.dtd"
   xmlns="http://www.w3.org/2000/svg"
   xmlns:svg="http://www.w3.org/2000/svg">
  <sodipodi:namedview
     id="namedview1670"
     pagecolor="#ffffff"
     bordercolor="#666666"
     borderopacity="1.0"
     inkscape:pageshadow="2"
     inkscape:pageopacity="0.0"
     inkscape:pagecheckerboard="0"
     inkscape:document-units="mm"
     showgrid="false"
     inkscape:zoom="4.2532751"
     inkscape:cx="61.717147"
     inkscape:cy="61.482034"
     inkscape:window-width="1864"
     inkscape:window-height="1016"
     inkscape:window-x="56"
     inkscape:window-y="27"
     inkscape:window-maximized="1"
     inkscape:current-layer="layer1"
     borderlayer="true">
    <inkscape:grid
       spacingx="2.54"
       spacingy="2.54"
       empspacing="1"
       type="xygrid"
       units="mm"
       id="grid1733" />
  </sodipodi:namedview>
  <defs
     id="defs1665" />
  <g
     inkscape:label="[fixed] BG"
     inkscape:groupmode="layer"
     sodipodi:insensitive="true"
     id="g1739">
    <rect
       x="0"
       y="0"
       width="42.0"
       height="19.0"
       style="fill:#FFFFFF;fill-opacity:1;stroke:none"
       id="rect1737" />
  </g>
  <g
     inkscape:groupmode="layer"
     id="layer1"
     inkscape:label="stuffs"
     style="opacity:0.22160385">
    <g
       id="g3504"
       transform="translate(10.531102,-7.5669431)">
      <g
         style="fill:#000000;fill-opacity:1;stroke:#000000;stroke-linecap:round;stroke-linejoin:round;stroke-opacity:1"
         id="g6"
         transform="translate(-28.139102,-6.3010569)" />
      <g
         style="fill:none;stroke:#f2eda1;stroke-width:0.15;stroke-linecap:round;stroke-linejoin:round;stroke-opacity:1"
         id="g126"
         transform="translate(-28.139102,-6.3010569)">
        <text
           x="30.030001"
           y="25.066"
           textLength="2.2024"
           font-size="1.3333px"
           lengthAdjust="spacingAndGlyphs"
           text-anchor="middle"
           opacity="0"
           stroke-opacity="0"
           id="text8">C1</text>
        <g
           class="stroked-text"
           id="g52">
          <desc
             id="desc10">C1</desc>
          <path
             d="m 29.8633,24.9256 -0.0476,0.0476"
             id="path12" />
          <path
             d="m 29.8157,24.9732 -0.1428,0.0476"
             id="path14" />
          <path
             d="M 29.6729,25.0208 H 29.5776"
             id="path16" />
          <path
             d="M 29.5776,25.0208 29.4348,24.9732"
             id="path18" />
          <path
             d="M 29.4348,24.9732 29.3395,24.878"
             id="path20" />
          <path
             d="M 29.3395,24.878 29.2919,24.7827"
             id="path22" />
          <path
             d="M 29.2919,24.7827 29.2443,24.5922"
             id="path24" />
          <path
             d="M 29.2443,24.5922 V 24.4494"
             id="path26" />
          <path
             d="m 29.2443,24.4494 0.0476,-0.1905"
             id="path28" />
          <path
             d="m 29.2919,24.2589 0.0476,-0.0952"
             id="path30" />
          <path
             d="m 29.3395,24.1637 0.0953,-0.0953"
             id="path32" />
          <path
             d="m 29.4348,24.0684 0.1428,-0.0476"
             id="path34" />
          <path
             d="m 29.5776,24.0208 h 0.0953"
             id="path36" />
          <path
             d="m 29.6729,24.0208 0.1428,0.0476"
             id="path38" />
          <path
             d="m 29.8157,24.0684 0.0476,0.0477"
             id="path40" />
          <path
             d="M 30.8157,25.0208 H 30.2443"
             id="path42" />
          <path
             d="m 30.53,25.0208 v -1"
             id="path44" />
          <path
             d="m 30.53,24.0208 -0.0952,0.1429"
             id="path46" />
          <path
             d="m 30.4348,24.1637 -0.0953,0.0952"
             id="path48" />
          <path
             d="m 30.3395,24.2589 -0.0952,0.0476"
             id="path50" />
        </g>
        <text
           x="46.678001"
           y="25.096001"
           textLength="2.2024"
           font-size="1.3333px"
           lengthAdjust="spacingAndGlyphs"
           text-anchor="middle"
           opacity="0"
           stroke-opacity="0"
           id="text54">R1</text>
        <g
           class="stroked-text"
           id="g90">
          <desc
             id="desc56">R1</desc>
          <path
             d="M 46.5113,25.0508 46.178,24.5746"
             id="path58" />
          <path
             d="m 45.9399,25.0508 v -1"
             id="path60" />
          <path
             d="m 45.9399,24.0508 h 0.381"
             id="path62" />
          <path
             d="m 46.3209,24.0508 0.0952,0.0476"
             id="path64" />
          <path
             d="m 46.4161,24.0984 0.0476,0.0477"
             id="path66" />
          <path
             d="m 46.4637,24.1461 0.0476,0.0952"
             id="path68" />
          <path
             d="m 46.5113,24.2413 v 0.1429"
             id="path70" />
          <path
             d="m 46.5113,24.3842 -0.0476,0.0952"
             id="path72" />
          <path
             d="M 46.4637,24.4794 46.4161,24.527"
             id="path74" />
          <path
             d="m 46.4161,24.527 -0.0952,0.0476"
             id="path76" />
          <path
             d="m 46.3209,24.5746 h -0.381"
             id="path78" />
          <path
             d="M 47.4637,25.0508 H 46.8923"
             id="path80" />
          <path
             d="m 47.178,25.0508 v -1"
             id="path82" />
          <path
             d="m 47.178,24.0508 -0.0952,0.1429"
             id="path84" />
          <path
             d="m 47.0828,24.1937 -0.0953,0.0952"
             id="path86" />
          <path
             d="m 46.9875,24.2889 -0.0952,0.0476"
             id="path88" />
        </g>
        <text
           x="38.707298"
           y="18.1257"
           textLength="2.2534001"
           font-size="1.3359px"
           lengthAdjust="spacingAndGlyphs"
           text-anchor="middle"
           opacity="0"
           stroke-opacity="0"
           id="text92">U1</text>
        <g
           class="stroked-text"
           id="g124">
          <desc
             id="desc94">U1</desc>
          <path
             d="m 37.944,17.0786 v 0.811"
             id="path96" />
          <path
             d="m 37.944,17.8896 0.0477,0.0954"
             id="path98" />
          <path
             d="m 37.9917,17.985 0.0477,0.0478"
             id="path100" />
          <path
             d="m 38.0394,18.0328 0.0954,0.0477"
             id="path102" />
          <path
             d="m 38.1348,18.0805 h 0.1908"
             id="path104" />
          <path
             d="m 38.3256,18.0805 0.0955,-0.0477"
             id="path106" />
          <path
             d="M 38.4211,18.0328 38.4688,17.985"
             id="path108" />
          <path
             d="m 38.4688,17.985 0.0477,-0.0954"
             id="path110" />
          <path
             d="m 38.5165,17.8896 v -0.811"
             id="path112" />
          <path
             d="M 39.5184,18.0805 H 38.9459"
             id="path114" />
          <path
             d="M 39.2321,18.0805 V 17.0786"
             id="path116" />
          <path
             d="m 39.2321,17.0786 -0.0954,0.1431"
             id="path118" />
          <path
             d="m 39.1367,17.2217 -0.0954,0.0954"
             id="path120" />
          <path
             d="m 39.0413,17.3171 -0.0954,0.0477"
             id="path122" />
        </g>
      </g>
      <g
         style="fill:none;stroke:#f2eda1;stroke-width:0.12;stroke-linecap:round;stroke-linejoin:round;stroke-opacity:1"
         id="g136"
         transform="translate(-28.139102,-6.3010569)">
        <path
           d="m 29.3187,25.506 h 1.4226"
           id="path128" />
        <path
           d="m 29.3187,27.326 h 1.4226"
           id="path130" />
        <path
           d="m 45.9509,27.326 h 1.4542"
           id="path132" />
        <path
           d="m 45.9509,25.506 h 1.4542"
           id="path134" />
      </g>
      <g
         style="fill:none;stroke:#f2eda1;stroke-width:0.127;stroke-linecap:round;stroke-linejoin:round;stroke-opacity:1"
         id="g150"
         transform="translate(-28.139102,-6.3010569)">
        <path
           d="m 36.332,18.671 h 4.4"
           id="path138" />
        <path
           d="m 36.332,18.771 v -0.1"
           id="path140" />
        <path
           d="m 36.332,28.271 v 0.1"
           id="path142" />
        <path
           d="m 36.332,28.371 h 4.4"
           id="path144" />
        <path
           d="m 40.732,18.671 v 0.1"
           id="path146" />
        <path
           d="m 40.732,28.371 v -0.1"
           id="path148" />
      </g>
      <g
         style="fill:none;stroke:#f2eda1;stroke-width:0.2;stroke-linecap:round;stroke-linejoin:round;stroke-opacity:1"
         id="g154"
         transform="translate(-28.139102,-6.3010569)">
        <circle
           cx="34.931999"
           cy="18.671"
           r="0.1"
           id="circle152" />
      </g>
      <g
         style="fill:none;stroke:#f2eda1;stroke-width:0.127;stroke-linecap:round;stroke-linejoin:round;stroke-opacity:1"
         id="g158"
         transform="translate(-28.139102,-6.3010569)">
        <circle
           cx="37.032001"
           cy="19.371"
           r="0.33539999"
           id="circle156" />
      </g>
      <g
         style="fill:#f2eda1;fill-opacity:1;stroke:none"
         id="g162"
         transform="translate(-28.139102,-6.3010569)">
        <circle
           cx="57.658001"
           cy="15.748"
           r="0.5"
           id="circle160" />
      </g>
      <g
         style="fill:#f2eda1;fill-opacity:1;stroke:none"
         id="g166"
         transform="translate(-28.139102,-6.3010569)">
        <circle
           cx="55.118"
           cy="15.748"
           r="0.5"
           id="circle164" />
      </g>
      <g
         style="fill:#f2eda1;fill-opacity:1;stroke:none"
         id="g170"
         transform="translate(-28.139102,-6.3010569)">
        <circle
           cx="52.577999"
           cy="15.748"
           r="0.5"
           id="circle168" />
      </g>
      <g
         style="fill:#f2eda1;fill-opacity:1;stroke:none"
         id="g174"
         transform="translate(-28.139102,-6.3010569)">
        <circle
           cx="50.037998"
           cy="15.748"
           r="0.5"
           id="circle172" />
      </g>
      <g
         style="fill:#f2eda1;fill-opacity:1;stroke:none"
         id="g178"
         transform="translate(-28.139102,-6.3010569)">
        <circle
           cx="47.498001"
           cy="15.748"
           r="0.5"
           id="circle176" />
      </g>
      <g
         style="fill:#f2eda1;fill-opacity:1;stroke:none"
         id="g182"
         transform="translate(-28.139102,-6.3010569)">
        <circle
           cx="44.958"
           cy="15.748"
           r="0.5"
           id="circle180" />
      </g>
      <g
         style="fill:#f2eda1;fill-opacity:1;stroke:none"
         id="g186"
         transform="translate(-28.139102,-6.3010569)">
        <circle
           cx="42.417999"
           cy="15.748"
           r="0.5"
           id="circle184" />
      </g>
      <g
         style="fill:#f2eda1;fill-opacity:1;stroke:none"
         id="g190"
         transform="translate(-28.139102,-6.3010569)">
        <circle
           cx="39.877998"
           cy="15.748"
           r="0.5"
           id="circle188" />
      </g>
      <g
         style="fill:#f2eda1;fill-opacity:1;stroke:none"
         id="g194"
         transform="translate(-28.139102,-6.3010569)">
        <circle
           cx="37.338001"
           cy="15.748"
           r="0.5"
           id="circle192" />
      </g>
      <g
         style="fill:#f2eda1;fill-opacity:1;stroke:none"
         id="g198"
         transform="translate(-28.139102,-6.3010569)">
        <circle
           cx="34.798"
           cy="15.748"
           r="0.5"
           id="circle196" />
      </g>
      <g
         style="fill:#f2eda1;fill-opacity:1;stroke:none"
         id="g202"
         transform="translate(-28.139102,-6.3010569)">
        <circle
           cx="32.257999"
           cy="15.748"
           r="0.5"
           id="circle200" />
      </g>
      <g
         style="fill:#f2eda1;fill-opacity:1;stroke:none"
         id="g206"
         transform="translate(-28.139102,-6.3010569)">
        <circle
           cx="29.718"
           cy="15.748"
           r="0.5"
           id="circle204" />
      </g>
      <g
         style="fill:#f2eda1;fill-opacity:1;stroke:none"
         id="g210"
         transform="translate(-28.139102,-6.3010569)">
        <circle
           cx="27.177999"
           cy="15.748"
           r="0.5"
           id="circle208" />
      </g>
      <g
         style="fill:#f2eda1;fill-opacity:1;stroke:none"
         id="g214"
         transform="translate(-28.139102,-6.3010569)">
        <circle
           cx="24.638"
           cy="15.748"
           r="0.5"
           id="circle212" />
      </g>
      <g
         style="fill:#f2eda1;fill-opacity:1;stroke:none"
         id="g218"
         transform="translate(-28.139102,-6.3010569)">
        <circle
           cx="22.098"
           cy="15.748"
           r="0.5"
           id="circle216" />
      </g>
      <g
         style="fill:#f2eda1;fill-opacity:1;stroke:none"
         id="g222"
         transform="translate(-28.139102,-6.3010569)">
        <circle
           cx="19.558001"
           cy="15.748"
           r="0.5"
           id="circle220" />
      </g>
      <g
         style="fill:#f2eda1;fill-opacity:1;stroke:none"
         id="g226"
         transform="translate(-28.139102,-6.3010569)">
        <circle
           cx="29.718"
           cy="30.988001"
           r="0.5"
           id="circle224" />
      </g>
      <g
         style="fill:#f2eda1;fill-opacity:1;stroke:none"
         id="g230"
         transform="translate(-28.139102,-6.3010569)">
        <circle
           cx="32.257999"
           cy="30.988001"
           r="0.5"
           id="circle228" />
      </g>
      <g
         style="fill:#f2eda1;fill-opacity:1;stroke:none"
         id="g234"
         transform="translate(-28.139102,-6.3010569)">
        <circle
           cx="34.798"
           cy="30.988001"
           r="0.5"
           id="circle232" />
      </g>
      <g
         style="fill:#f2eda1;fill-opacity:1;stroke:none"
         id="g238"
         transform="translate(-28.139102,-6.3010569)">
        <circle
           cx="37.338001"
           cy="30.988001"
           r="0.5"
           id="circle236" />
      </g>
      <g
         style="fill:#f2eda1;fill-opacity:1;stroke:none"
         id="g242"
         transform="translate(-28.139102,-6.3010569)">
        <circle
           cx="39.877998"
           cy="30.988001"
           r="0.5"
           id="circle240" />
      </g>
      <g
         style="fill:#f2eda1;fill-opacity:1;stroke:none"
         id="g246"
         transform="translate(-28.139102,-6.3010569)">
        <circle
           cx="42.417999"
           cy="30.988001"
           r="0.5"
           id="circle244" />
      </g>
      <g
         style="fill:#f2eda1;fill-opacity:1;stroke:none"
         id="g250"
         transform="translate(-28.139102,-6.3010569)">
        <circle
           cx="44.958"
           cy="30.988001"
           r="0.5"
           id="circle248" />
      </g>
      <g
         style="fill:#f2eda1;fill-opacity:1;stroke:none"
         id="g256"
         transform="translate(-28.139102,-6.3010569)">
        <circle
           cx="47.498001"
           cy="30.988001"
           r="0.5"
           id="circle252" />
        <path
           style="fill:none;stroke:#d0d2cd;stroke-width:0.05;stroke-linecap:round;stroke-linejoin:round;stroke-opacity:1"
           d="M 17.78,13.97 H 59.436 V 32.766 H 17.78 Z"
           id="path254" />
      </g>
      <g
         style="fill:#d0d2cd;fill-opacity:1;stroke:none"
         id="g260"
         transform="translate(-28.139102,-6.3010569)">
        <circle
           cx="57.658001"
           cy="15.748"
           r="0.5"
           id="circle258" />
      </g>
      <g
         style="fill:#d0d2cd;fill-opacity:1;stroke:none"
         id="g264"
         transform="translate(-28.139102,-6.3010569)">
        <circle
           cx="55.118"
           cy="15.748"
           r="0.5"
           id="circle262" />
      </g>
      <g
         style="fill:#d0d2cd;fill-opacity:1;stroke:none"
         id="g268"
         transform="translate(-28.139102,-6.3010569)">
        <circle
           cx="52.577999"
           cy="15.748"
           r="0.5"
           id="circle266" />
      </g>
      <g
         style="fill:#d0d2cd;fill-opacity:1;stroke:none"
         id="g272"
         transform="translate(-28.139102,-6.3010569)">
        <circle
           cx="50.037998"
           cy="15.748"
           r="0.5"
           id="circle270" />
      </g>
      <g
         style="fill:#d0d2cd;fill-opacity:1;stroke:none"
         id="g276"
         transform="translate(-28.139102,-6.3010569)">
        <circle
           cx="47.498001"
           cy="15.748"
           r="0.5"
           id="circle274" />
      </g>
      <g
         style="fill:#d0d2cd;fill-opacity:1;stroke:none"
         id="g280"
         transform="translate(-28.139102,-6.3010569)">
        <circle
           cx="44.958"
           cy="15.748"
           r="0.5"
           id="circle278" />
      </g>
      <g
         style="fill:#d0d2cd;fill-opacity:1;stroke:none"
         id="g284"
         transform="translate(-28.139102,-6.3010569)">
        <circle
           cx="42.417999"
           cy="15.748"
           r="0.5"
           id="circle282" />
      </g>
      <g
         style="fill:#d0d2cd;fill-opacity:1;stroke:none"
         id="g288"
         transform="translate(-28.139102,-6.3010569)">
        <circle
           cx="39.877998"
           cy="15.748"
           r="0.5"
           id="circle286" />
      </g>
      <g
         style="fill:#d0d2cd;fill-opacity:1;stroke:none"
         id="g292"
         transform="translate(-28.139102,-6.3010569)">
        <circle
           cx="37.338001"
           cy="15.748"
           r="0.5"
           id="circle290" />
      </g>
      <g
         style="fill:#d0d2cd;fill-opacity:1;stroke:none"
         id="g296"
         transform="translate(-28.139102,-6.3010569)">
        <circle
           cx="34.798"
           cy="15.748"
           r="0.5"
           id="circle294" />
      </g>
      <g
         style="fill:#d0d2cd;fill-opacity:1;stroke:none"
         id="g300"
         transform="translate(-28.139102,-6.3010569)">
        <circle
           cx="32.257999"
           cy="15.748"
           r="0.5"
           id="circle298" />
      </g>
      <g
         style="fill:#d0d2cd;fill-opacity:1;stroke:none"
         id="g304"
         transform="translate(-28.139102,-6.3010569)">
        <circle
           cx="29.718"
           cy="15.748"
           r="0.5"
           id="circle302" />
      </g>
      <g
         style="fill:#d0d2cd;fill-opacity:1;stroke:none"
         id="g308"
         transform="translate(-28.139102,-6.3010569)">
        <circle
           cx="27.177999"
           cy="15.748"
           r="0.5"
           id="circle306" />
      </g>
      <g
         style="fill:#d0d2cd;fill-opacity:1;stroke:none"
         id="g312"
         transform="translate(-28.139102,-6.3010569)">
        <circle
           cx="24.638"
           cy="15.748"
           r="0.5"
           id="circle310" />
      </g>
      <g
         style="fill:#d0d2cd;fill-opacity:1;stroke:none"
         id="g316"
         transform="translate(-28.139102,-6.3010569)">
        <circle
           cx="22.098"
           cy="15.748"
           r="0.5"
           id="circle314" />
      </g>
      <g
         style="fill:#d0d2cd;fill-opacity:1;stroke:none"
         id="g320"
         transform="translate(-28.139102,-6.3010569)">
        <circle
           cx="19.558001"
           cy="15.748"
           r="0.5"
           id="circle318" />
      </g>
      <g
         style="fill:#d0d2cd;fill-opacity:1;stroke:none"
         id="g324"
         transform="translate(-28.139102,-6.3010569)">
        <circle
           cx="29.718"
           cy="30.988001"
           r="0.5"
           id="circle322" />
      </g>
      <g
         style="fill:#d0d2cd;fill-opacity:1;stroke:none"
         id="g328"
         transform="translate(-28.139102,-6.3010569)">
        <circle
           cx="32.257999"
           cy="30.988001"
           r="0.5"
           id="circle326" />
      </g>
      <g
         style="fill:#d0d2cd;fill-opacity:1;stroke:none"
         id="g332"
         transform="translate(-28.139102,-6.3010569)">
        <circle
           cx="34.798"
           cy="30.988001"
           r="0.5"
           id="circle330" />
      </g>
      <g
         style="fill:#d0d2cd;fill-opacity:1;stroke:none"
         id="g336"
         transform="translate(-28.139102,-6.3010569)">
        <circle
           cx="37.338001"
           cy="30.988001"
           r="0.5"
           id="circle334" />
      </g>
      <g
         style="fill:#d0d2cd;fill-opacity:1;stroke:none"
         id="g340"
         transform="translate(-28.139102,-6.3010569)">
        <circle
           cx="39.877998"
           cy="30.988001"
           r="0.5"
           id="circle338" />
      </g>
      <g
         style="fill:#d0d2cd;fill-opacity:1;stroke:none"
         id="g344"
         transform="translate(-28.139102,-6.3010569)">
        <circle
           cx="42.417999"
           cy="30.988001"
           r="0.5"
           id="circle342" />
      </g>
      <g
         style="fill:#d0d2cd;fill-opacity:1;stroke:none"
         id="g348"
         transform="translate(-28.139102,-6.3010569)">
        <circle
           cx="44.958"
           cy="30.988001"
           r="0.5"
           id="circle346" />
      </g>
      <g
         style="fill:#d0d2cd;fill-opacity:1;stroke:none"
         id="g352"
         transform="translate(-28.139102,-6.3010569)">
        <circle
           cx="47.498001"
           cy="30.988001"
           r="0.5"
           id="circle350" />
      </g>
      <g
         style="fill:none;stroke:#c83434;stroke-width:2;stroke-linecap:round;stroke-linejoin:round;stroke-opacity:1"
         id="g452"
         transform="translate(-28.139102,-6.3010569)">
        <path
           d="m 57.658,15.998 v -0.5"
           id="path354" />
        <path
           d="m 55.118,15.998 v -0.5"
           id="path356" />
        <path
           d="m 52.578,15.998 v -0.5"
           id="path358" />
        <path
           d="m 50.038,15.998 v -0.5"
           id="path360" />
        <path
           d="m 47.498,15.998 v -0.5"
           id="path362" />
        <path
           d="m 44.958,15.998 v -0.5"
           id="path364" />
        <path
           d="m 42.418,15.998 v -0.5"
           id="path366" />
        <path
           d="m 39.878,15.998 v -0.5"
           id="path368" />
        <path
           d="m 37.338,15.998 v -0.5"
           id="path370" />
        <path
           d="m 34.798,15.998 v -0.5"
           id="path372" />
        <path
           d="m 32.258,15.998 v -0.5"
           id="path374" />
        <path
           d="m 29.718,15.998 v -0.5"
           id="path376" />
        <path
           d="m 27.178,15.998 v -0.5"
           id="path378" />
        <path
           d="m 24.638,15.998 v -0.5"
           id="path380" />
        <path
           d="m 22.098,15.998 v -0.5"
           id="path382" />
        <path
           d="m 19.558,15.998 v -0.5"
           id="path384" />
        <path
           style="fill:#c83434;fill-opacity:1;fill-rule:evenodd;stroke:none"
           d="m 27.49,25.8254 0.0082,-0.0708 0.046,-0.104 0.0804,-0.0804 0.104,-0.046 0.0708,-0.0082 h 1.0212 l 0.0708,0.0082 0.104,0.046 0.0804,0.0804 0.046,0.104 0.0082,0.0708 v 1.1812 l -0.0082,0.0708 -0.046,0.104 -0.0804,0.0804 -0.104,0.046 -0.0708,0.0082 h -1.0212 l -0.0708,-0.0082 -0.104,-0.046 -0.0804,-0.0804 -0.046,-0.104 -0.0082,-0.0708 z"
           id="path386" />
        <path
           style="fill:#c83434;fill-opacity:1;fill-rule:evenodd;stroke:none"
           d="m 30.93,25.8254 0.0082,-0.0708 0.046,-0.104 0.0804,-0.0804 0.104,-0.046 0.0708,-0.0082 h 1.0212 l 0.0708,0.0082 0.104,0.046 0.0804,0.0804 0.046,0.104 0.0082,0.0708 v 1.1812 l -0.0082,0.0708 -0.046,0.104 -0.0804,0.0804 -0.104,0.046 -0.0708,0.0082 h -1.0212 l -0.0708,-0.0082 -0.104,-0.046 -0.0804,-0.0804 -0.046,-0.104 -0.0082,-0.0708 z"
           id="path388" />
        <path
           style="fill:#c83434;fill-opacity:1;fill-rule:evenodd;stroke:none"
           d="m 44.138,25.8564 0.0084,-0.0722 0.0468,-0.1061 0.0819,-0.0819 0.1061,-0.0468 0.0722,-0.0084 h 1.0092 l 0.0722,0.0084 0.1061,0.0468 0.0819,0.0819 0.0468,0.1061 0.0084,0.0722 v 1.1192 l -0.0084,0.0722 -0.0468,0.1061 -0.0819,0.0819 -0.1061,0.0468 -0.0722,0.0084 H 44.4534 L 44.3812,27.2826 44.2751,27.2358 44.1932,27.1539 44.1464,27.0478 44.138,26.9756 Z"
           id="path390" />
        <path
           style="fill:#c83434;fill-opacity:1;fill-rule:evenodd;stroke:none"
           d="m 47.578,25.8564 0.0084,-0.0722 0.0468,-0.1061 0.0819,-0.0819 0.1061,-0.0468 0.0722,-0.0084 h 1.0092 l 0.0722,0.0084 0.1061,0.0468 0.0819,0.0819 0.0468,0.1061 0.0084,0.0722 v 1.1192 l -0.0084,0.0722 -0.0468,0.1061 -0.0819,0.0819 -0.1061,0.0468 -0.0722,0.0084 H 47.8934 L 47.8212,27.2826 47.7151,27.2358 47.6332,27.1539 47.5864,27.0478 47.578,26.9756 Z"
           id="path392" />
        <path
           style="fill:#c83434;fill-opacity:1;fill-rule:evenodd;stroke:none"
           d="m 34.927,19.1935 0.0078,-0.0392 0.0222,-0.0333 0.0333,-0.0222 0.0392,-0.0078 h 1.265 l 0.0392,0.0078 0.0333,0.0222 0.0222,0.0333 0.0078,0.0392 v 0.205 l -0.0078,0.0392 -0.0222,0.0333 -0.0333,0.0222 -0.0392,0.0078 h -1.265 L 34.9903,19.4932 34.957,19.471 34.9348,19.4377 34.927,19.3985 Z"
           id="path394" />
        <path
           style="fill:#c83434;fill-opacity:1;fill-rule:evenodd;stroke:none"
           d="m 34.927,19.8435 0.0078,-0.0392 0.0222,-0.0333 0.0333,-0.0222 0.0392,-0.0078 h 1.265 l 0.0392,0.0078 0.0333,0.0222 0.0222,0.0333 0.0078,0.0392 v 0.205 l -0.0078,0.0392 -0.0222,0.0333 -0.0333,0.0222 -0.0392,0.0078 h -1.265 L 34.9903,20.1432 34.957,20.121 34.9348,20.0877 34.927,20.0485 Z"
           id="path396" />
        <path
           style="fill:#c83434;fill-opacity:1;fill-rule:evenodd;stroke:none"
           d="m 34.927,20.4935 0.0078,-0.0392 0.0222,-0.0333 0.0333,-0.0222 0.0392,-0.0078 h 1.265 l 0.0392,0.0078 0.0333,0.0222 0.0222,0.0333 0.0078,0.0392 v 0.205 l -0.0078,0.0392 -0.0222,0.0333 -0.0333,0.0222 -0.0392,0.0078 h -1.265 L 34.9903,20.7932 34.957,20.771 34.9348,20.7377 34.927,20.6985 Z"
           id="path398" />
        <path
           style="fill:#c83434;fill-opacity:1;fill-rule:evenodd;stroke:none"
           d="m 34.927,21.1435 0.0078,-0.0392 0.0222,-0.0333 0.0333,-0.0222 0.0392,-0.0078 h 1.265 l 0.0392,0.0078 0.0333,0.0222 0.0222,0.0333 0.0078,0.0392 v 0.205 l -0.0078,0.0392 -0.0222,0.0333 -0.0333,0.0222 -0.0392,0.0078 h -1.265 L 34.9903,21.4432 34.957,21.421 34.9348,21.3877 34.927,21.3485 Z"
           id="path400" />
        <path
           style="fill:#c83434;fill-opacity:1;fill-rule:evenodd;stroke:none"
           d="m 34.927,21.7935 0.0078,-0.0392 0.0222,-0.0333 0.0333,-0.0222 0.0392,-0.0078 h 1.265 l 0.0392,0.0078 0.0333,0.0222 0.0222,0.0333 0.0078,0.0392 v 0.205 l -0.0078,0.0392 -0.0222,0.0333 -0.0333,0.0222 -0.0392,0.0078 h -1.265 L 34.9903,22.0932 34.957,22.071 34.9348,22.0377 34.927,21.9985 Z"
           id="path402" />
        <path
           style="fill:#c83434;fill-opacity:1;fill-rule:evenodd;stroke:none"
           d="m 34.927,22.4435 0.0078,-0.0392 0.0222,-0.0333 0.0333,-0.0222 0.0392,-0.0078 h 1.265 l 0.0392,0.0078 0.0333,0.0222 0.0222,0.0333 0.0078,0.0392 v 0.205 l -0.0078,0.0392 -0.0222,0.0333 -0.0333,0.0222 -0.0392,0.0078 h -1.265 L 34.9903,22.7432 34.957,22.721 34.9348,22.6877 34.927,22.6485 Z"
           id="path404" />
        <path
           style="fill:#c83434;fill-opacity:1;fill-rule:evenodd;stroke:none"
           d="m 34.927,23.0935 0.0078,-0.0392 0.0222,-0.0333 0.0333,-0.0222 0.0392,-0.0078 h 1.265 l 0.0392,0.0078 0.0333,0.0222 0.0222,0.0333 0.0078,0.0392 v 0.205 l -0.0078,0.0392 -0.0222,0.0333 -0.0333,0.0222 -0.0392,0.0078 h -1.265 L 34.9903,23.3932 34.957,23.371 34.9348,23.3377 34.927,23.2985 Z"
           id="path406" />
        <path
           style="fill:#c83434;fill-opacity:1;fill-rule:evenodd;stroke:none"
           d="m 34.927,23.7435 0.0078,-0.0392 0.0222,-0.0333 0.0333,-0.0222 0.0392,-0.0078 h 1.265 l 0.0392,0.0078 0.0333,0.0222 0.0222,0.0333 0.0078,0.0392 v 0.205 l -0.0078,0.0392 -0.0222,0.0333 -0.0333,0.0222 -0.0392,0.0078 h -1.265 L 34.9903,24.0432 34.957,24.021 34.9348,23.9877 34.927,23.9485 Z"
           id="path408" />
        <path
           style="fill:#c83434;fill-opacity:1;fill-rule:evenodd;stroke:none"
           d="m 34.927,24.3935 0.0078,-0.0392 0.0222,-0.0333 0.0333,-0.0222 0.0392,-0.0078 h 1.265 l 0.0392,0.0078 0.0333,0.0222 0.0222,0.0333 0.0078,0.0392 v 0.205 l -0.0078,0.0392 -0.0222,0.0333 -0.0333,0.0222 -0.0392,0.0078 h -1.265 L 34.9903,24.6932 34.957,24.671 34.9348,24.6377 34.927,24.5985 Z"
           id="path410" />
        <path
           style="fill:#c83434;fill-opacity:1;fill-rule:evenodd;stroke:none"
           d="m 34.927,25.0435 0.0078,-0.0392 0.0222,-0.0333 0.0333,-0.0222 0.0392,-0.0078 h 1.265 l 0.0392,0.0078 0.0333,0.0222 0.0222,0.0333 0.0078,0.0392 v 0.205 l -0.0078,0.0392 -0.0222,0.0333 -0.0333,0.0222 -0.0392,0.0078 h -1.265 L 34.9903,25.3432 34.957,25.321 34.9348,25.2877 34.927,25.2485 Z"
           id="path412" />
        <path
           style="fill:#c83434;fill-opacity:1;fill-rule:evenodd;stroke:none"
           d="m 34.927,25.6935 0.0078,-0.0392 0.0222,-0.0333 0.0333,-0.0222 0.0392,-0.0078 h 1.265 l 0.0392,0.0078 0.0333,0.0222 0.0222,0.0333 0.0078,0.0392 v 0.205 l -0.0078,0.0392 -0.0222,0.0333 -0.0333,0.0222 -0.0392,0.0078 h -1.265 L 34.9903,25.9932 34.957,25.971 34.9348,25.9377 34.927,25.8985 Z"
           id="path414" />
        <path
           style="fill:#c83434;fill-opacity:1;fill-rule:evenodd;stroke:none"
           d="m 34.927,26.3435 0.0078,-0.0392 0.0222,-0.0333 0.0333,-0.0222 0.0392,-0.0078 h 1.265 l 0.0392,0.0078 0.0333,0.0222 0.0222,0.0333 0.0078,0.0392 v 0.205 l -0.0078,0.0392 -0.0222,0.0333 -0.0333,0.0222 -0.0392,0.0078 h -1.265 L 34.9903,26.6432 34.957,26.621 34.9348,26.5877 34.927,26.5485 Z"
           id="path416" />
        <path
           style="fill:#c83434;fill-opacity:1;fill-rule:evenodd;stroke:none"
           d="m 34.927,26.9935 0.0078,-0.0392 0.0222,-0.0333 0.0333,-0.0222 0.0392,-0.0078 h 1.265 l 0.0392,0.0078 0.0333,0.0222 0.0222,0.0333 0.0078,0.0392 v 0.205 l -0.0078,0.0392 -0.0222,0.0333 -0.0333,0.0222 -0.0392,0.0078 h -1.265 L 34.9903,27.2932 34.957,27.271 34.9348,27.2377 34.927,27.1985 Z"
           id="path418" />
        <path
           style="fill:#c83434;fill-opacity:1;fill-rule:evenodd;stroke:none"
           d="m 34.927,27.6435 0.0078,-0.0392 0.0222,-0.0333 0.0333,-0.0222 0.0392,-0.0078 h 1.265 l 0.0392,0.0078 0.0333,0.0222 0.0222,0.0333 0.0078,0.0392 v 0.205 l -0.0078,0.0392 -0.0222,0.0333 -0.0333,0.0222 -0.0392,0.0078 h -1.265 L 34.9903,27.9432 34.957,27.921 34.9348,27.8877 34.927,27.8485 Z"
           id="path420" />
        <path
           style="fill:#c83434;fill-opacity:1;fill-rule:evenodd;stroke:none"
           d="m 40.667,27.6435 0.0078,-0.0392 0.0222,-0.0333 0.0333,-0.0222 0.0392,-0.0078 h 1.265 l 0.0392,0.0078 0.0333,0.0222 0.0222,0.0333 0.0078,0.0392 v 0.205 l -0.0078,0.0392 -0.0222,0.0333 -0.0333,0.0222 -0.0392,0.0078 h -1.265 L 40.7303,27.9432 40.697,27.921 40.6748,27.8877 40.667,27.8485 Z"
           id="path422" />
        <path
           style="fill:#c83434;fill-opacity:1;fill-rule:evenodd;stroke:none"
           d="m 40.667,26.9935 0.0078,-0.0392 0.0222,-0.0333 0.0333,-0.0222 0.0392,-0.0078 h 1.265 l 0.0392,0.0078 0.0333,0.0222 0.0222,0.0333 0.0078,0.0392 v 0.205 l -0.0078,0.0392 -0.0222,0.0333 -0.0333,0.0222 -0.0392,0.0078 h -1.265 L 40.7303,27.2932 40.697,27.271 40.6748,27.2377 40.667,27.1985 Z"
           id="path424" />
        <path
           style="fill:#c83434;fill-opacity:1;fill-rule:evenodd;stroke:none"
           d="m 40.667,26.3435 0.0078,-0.0392 0.0222,-0.0333 0.0333,-0.0222 0.0392,-0.0078 h 1.265 l 0.0392,0.0078 0.0333,0.0222 0.0222,0.0333 0.0078,0.0392 v 0.205 l -0.0078,0.0392 -0.0222,0.0333 -0.0333,0.0222 -0.0392,0.0078 h -1.265 L 40.7303,26.6432 40.697,26.621 40.6748,26.5877 40.667,26.5485 Z"
           id="path426" />
        <path
           style="fill:#c83434;fill-opacity:1;fill-rule:evenodd;stroke:none"
           d="m 40.667,25.6935 0.0078,-0.0392 0.0222,-0.0333 0.0333,-0.0222 0.0392,-0.0078 h 1.265 l 0.0392,0.0078 0.0333,0.0222 0.0222,0.0333 0.0078,0.0392 v 0.205 l -0.0078,0.0392 -0.0222,0.0333 -0.0333,0.0222 -0.0392,0.0078 h -1.265 L 40.7303,25.9932 40.697,25.971 40.6748,25.9377 40.667,25.8985 Z"
           id="path428" />
        <path
           style="fill:#c83434;fill-opacity:1;fill-rule:evenodd;stroke:none"
           d="m 40.667,25.0435 0.0078,-0.0392 0.0222,-0.0333 0.0333,-0.0222 0.0392,-0.0078 h 1.265 l 0.0392,0.0078 0.0333,0.0222 0.0222,0.0333 0.0078,0.0392 v 0.205 l -0.0078,0.0392 -0.0222,0.0333 -0.0333,0.0222 -0.0392,0.0078 h -1.265 L 40.7303,25.3432 40.697,25.321 40.6748,25.2877 40.667,25.2485 Z"
           id="path430" />
        <path
           style="fill:#c83434;fill-opacity:1;fill-rule:evenodd;stroke:none"
           d="m 40.667,24.3935 0.0078,-0.0392 0.0222,-0.0333 0.0333,-0.0222 0.0392,-0.0078 h 1.265 l 0.0392,0.0078 0.0333,0.0222 0.0222,0.0333 0.0078,0.0392 v 0.205 l -0.0078,0.0392 -0.0222,0.0333 -0.0333,0.0222 -0.0392,0.0078 h -1.265 L 40.7303,24.6932 40.697,24.671 40.6748,24.6377 40.667,24.5985 Z"
           id="path432" />
        <path
           style="fill:#c83434;fill-opacity:1;fill-rule:evenodd;stroke:none"
           d="m 40.667,23.7435 0.0078,-0.0392 0.0222,-0.0333 0.0333,-0.0222 0.0392,-0.0078 h 1.265 l 0.0392,0.0078 0.0333,0.0222 0.0222,0.0333 0.0078,0.0392 v 0.205 l -0.0078,0.0392 -0.0222,0.0333 -0.0333,0.0222 -0.0392,0.0078 h -1.265 L 40.7303,24.0432 40.697,24.021 40.6748,23.9877 40.667,23.9485 Z"
           id="path434" />
        <path
           style="fill:#c83434;fill-opacity:1;fill-rule:evenodd;stroke:none"
           d="m 40.667,23.0935 0.0078,-0.0392 0.0222,-0.0333 0.0333,-0.0222 0.0392,-0.0078 h 1.265 l 0.0392,0.0078 0.0333,0.0222 0.0222,0.0333 0.0078,0.0392 v 0.205 l -0.0078,0.0392 -0.0222,0.0333 -0.0333,0.0222 -0.0392,0.0078 h -1.265 L 40.7303,23.3932 40.697,23.371 40.6748,23.3377 40.667,23.2985 Z"
           id="path436" />
        <path
           style="fill:#c83434;fill-opacity:1;fill-rule:evenodd;stroke:none"
           d="m 40.667,22.4435 0.0078,-0.0392 0.0222,-0.0333 0.0333,-0.0222 0.0392,-0.0078 h 1.265 l 0.0392,0.0078 0.0333,0.0222 0.0222,0.0333 0.0078,0.0392 v 0.205 l -0.0078,0.0392 -0.0222,0.0333 -0.0333,0.0222 -0.0392,0.0078 h -1.265 L 40.7303,22.7432 40.697,22.721 40.6748,22.6877 40.667,22.6485 Z"
           id="path438" />
        <path
           style="fill:#c83434;fill-opacity:1;fill-rule:evenodd;stroke:none"
           d="m 40.667,21.7935 0.0078,-0.0392 0.0222,-0.0333 0.0333,-0.0222 0.0392,-0.0078 h 1.265 l 0.0392,0.0078 0.0333,0.0222 0.0222,0.0333 0.0078,0.0392 v 0.205 l -0.0078,0.0392 -0.0222,0.0333 -0.0333,0.0222 -0.0392,0.0078 h -1.265 L 40.7303,22.0932 40.697,22.071 40.6748,22.0377 40.667,21.9985 Z"
           id="path440" />
        <path
           style="fill:#c83434;fill-opacity:1;fill-rule:evenodd;stroke:none"
           d="m 40.667,21.1435 0.0078,-0.0392 0.0222,-0.0333 0.0333,-0.0222 0.0392,-0.0078 h 1.265 l 0.0392,0.0078 0.0333,0.0222 0.0222,0.0333 0.0078,0.0392 v 0.205 l -0.0078,0.0392 -0.0222,0.0333 -0.0333,0.0222 -0.0392,0.0078 h -1.265 L 40.7303,21.4432 40.697,21.421 40.6748,21.3877 40.667,21.3485 Z"
           id="path442" />
        <path
           style="fill:#c83434;fill-opacity:1;fill-rule:evenodd;stroke:none"
           d="m 40.667,20.4935 0.0078,-0.0392 0.0222,-0.0333 0.0333,-0.0222 0.0392,-0.0078 h 1.265 l 0.0392,0.0078 0.0333,0.0222 0.0222,0.0333 0.0078,0.0392 v 0.205 l -0.0078,0.0392 -0.0222,0.0333 -0.0333,0.0222 -0.0392,0.0078 h -1.265 L 40.7303,20.7932 40.697,20.771 40.6748,20.7377 40.667,20.6985 Z"
           id="path444" />
        <path
           style="fill:#c83434;fill-opacity:1;fill-rule:evenodd;stroke:none"
           d="m 40.667,19.8435 0.0078,-0.0392 0.0222,-0.0333 0.0333,-0.0222 0.0392,-0.0078 h 1.265 l 0.0392,0.0078 0.0333,0.0222 0.0222,0.0333 0.0078,0.0392 v 0.205 l -0.0078,0.0392 -0.0222,0.0333 -0.0333,0.0222 -0.0392,0.0078 h -1.265 L 40.7303,20.1432 40.697,20.121 40.6748,20.0877 40.667,20.0485 Z"
           id="path446" />
        <path
           style="fill:#c83434;fill-opacity:1;fill-rule:evenodd;stroke:none"
           d="m 40.667,19.1935 0.0078,-0.0392 0.0222,-0.0333 0.0333,-0.0222 0.0392,-0.0078 h 1.265 l 0.0392,0.0078 0.0333,0.0222 0.0222,0.0333 0.0078,0.0392 v 0.205 l -0.0078,0.0392 -0.0222,0.0333 -0.0333,0.0222 -0.0392,0.0078 h -1.265 L 40.7303,19.4932 40.697,19.471 40.6748,19.4377 40.667,19.3985 Z"
           id="path448" />
        <path
           style="fill:#c83434;fill-opacity:1;fill-rule:evenodd;stroke:none"
           d="m 28.718,29.738 h 2 v 2.5 h -2 z"
           id="path450" />
      </g>
      <g
         style="fill:none;stroke:#c83434;stroke-width:2;stroke-linecap:round;stroke-linejoin:round;stroke-opacity:1"
         id="g468"
         transform="translate(-28.139102,-6.3010569)">
        <path
           d="m 32.258,30.738 v 0.5"
           id="path454" />
        <path
           d="m 34.798,30.738 v 0.5"
           id="path456" />
        <path
           d="m 37.338,30.738 v 0.5"
           id="path458" />
        <path
           d="m 39.878,30.738 v 0.5"
           id="path460" />
        <path
           d="m 42.418,30.738 v 0.5"
           id="path462" />
        <path
           d="m 44.958,30.738 v 0.5"
           id="path464" />
        <path
           d="m 47.498,30.738 v 0.5"
           id="path466" />
      </g>
      <g
         style="fill:#ececec;fill-opacity:1;stroke:none"
         id="g472"
         transform="translate(-28.139102,-6.3010569)">
        <circle
           cx="34.290001"
           cy="21.082001"
           r="0.30000001"
           id="circle470" />
      </g>
      <g
         style="fill:#ececec;fill-opacity:1;stroke:none"
         id="g476"
         transform="translate(-28.139102,-6.3010569)">
        <circle
           cx="34.035999"
           cy="21.844"
           r="0.30000001"
           id="circle474" />
      </g>
      <g
         style="fill:#ececec;fill-opacity:1;stroke:none"
         id="g480"
         transform="translate(-28.139102,-6.3010569)">
        <circle
           cx="33.273998"
           cy="22.351999"
           r="0.30000001"
           id="circle478" />
      </g>
      <g
         style="fill:#ececec;fill-opacity:1;stroke:none"
         id="g484"
         transform="translate(-28.139102,-6.3010569)">
        <circle
           cx="32.765999"
           cy="23.114"
           r="0.30000001"
           id="circle482" />
      </g>
      <g
         style="fill:#ececec;fill-opacity:1;stroke:none"
         id="g488"
         transform="translate(-28.139102,-6.3010569)">
        <circle
           cx="35.813999"
           cy="18.542"
           r="0.30000001"
           id="circle486" />
      </g>
      <g
         style="fill:#ececec;fill-opacity:1;stroke:none"
         id="g492"
         transform="translate(-28.139102,-6.3010569)">
        <circle
           cx="50.799999"
           cy="26.416"
           r="0.30000001"
           id="circle490" />
      </g>
      <g
         style="fill:#ececec;fill-opacity:1;stroke:none"
         id="g496"
         transform="translate(-28.139102,-6.3010569)">
        <circle
           cx="37.338001"
           cy="26.416"
           r="0.30000001"
           id="circle494" />
      </g>
      <g
         style="fill:#ececec;fill-opacity:1;stroke:none"
         id="g500"
         transform="translate(-28.139102,-6.3010569)">
        <circle
           cx="39.877998"
           cy="21.082001"
           r="0.30000001"
           id="circle498" />
      </g>
      <g
         style="fill:#ececec;fill-opacity:1;stroke:none"
         id="g504"
         transform="translate(-28.139102,-6.3010569)">
        <circle
           cx="33.273998"
           cy="26.416"
           r="0.30000001"
           id="circle502" />
      </g>
      <g
         style="fill:#ececec;fill-opacity:1;stroke:none"
         id="g508"
         transform="translate(-28.139102,-6.3010569)">
        <circle
           cx="39.159302"
           cy="26.9673"
           r="0.30000001"
           id="circle506" />
      </g>
      <g
         style="fill:#ececec;fill-opacity:1;stroke:none"
         id="g512"
         transform="translate(-28.139102,-6.3010569)">
        <circle
           cx="38.339199"
           cy="27.9252"
           r="0.30000001"
           id="circle510" />
      </g>
      <g
         style="fill:#ececec;fill-opacity:1;stroke:none"
         id="g516"
         transform="translate(-28.139102,-6.3010569)">
        <circle
           cx="40.371101"
           cy="25.8892"
           r="0.30000001"
           id="circle514" />
      </g>
      <g
         style="fill:none;stroke:#c83434;stroke-width:0.2;stroke-linecap:round;stroke-linejoin:round;stroke-opacity:1"
         id="g702"
         transform="translate(-28.139102,-6.3010569)">
        <path
           d="M 35.662,21.246 H 34.454"
           id="path518" />
        <path
           d="M 34.454,21.246 34.29,21.082"
           id="path520" />
        <path
           d="M 34.088,21.896 34.036,21.844"
           id="path522" />
        <path
           d="M 35.662,21.896 H 34.088"
           id="path524" />
        <path
           d="M 33.468,22.546 33.274,22.352"
           id="path526" />
        <path
           d="M 35.662,22.546 H 33.468"
           id="path528" />
        <path
           d="M 32.848,23.196 32.766,23.114"
           id="path530" />
        <path
           d="M 35.662,23.196 H 32.848"
           id="path532" />
        <path
           d="M 35.662,23.846 H 32.228"
           id="path534" />
        <path
           d="m 32.228,23.846 -2.51,-2.51"
           id="path536" />
        <path
           d="M 29.718,21.336 V 15.748"
           id="path538" />
        <path
           d="M 37.084,18.796 36.322,18.034"
           id="path540" />
        <path
           d="M 36.0465,17.926 H 34.436"
           id="path542" />
        <path
           d="M 37.084,23.809 V 18.796"
           id="path544" />
        <path
           d="m 36.397,24.496 0.687,-0.687"
           id="path546" />
        <path
           d="m 35.662,24.496 h 0.735"
           id="path548" />
        <path
           d="M 36.322,18.034 H 36.1545"
           id="path550" />
        <path
           d="m 36.1545,18.034 -0.108,-0.108"
           id="path552" />
        <path
           d="M 34.436,17.926 32.258,15.748"
           id="path554" />
        <path
           d="m 35.662,18.694 0.152,-0.152"
           id="path556" />
        <path
           d="M 35.662,19.296 V 18.694"
           id="path558" />
        <path
           d="m 35.662,25.146 h 0.6571"
           id="path560" />
        <path
           d="M 38.1,19.05 36.576,17.526"
           id="path562" />
        <path
           d="M 36.3191,25.146 38.1,23.3651"
           id="path564" />
        <path
           d="M 38.1,23.3651 V 19.05"
           id="path566" />
        <path
           d="M 36.576,17.526 H 36.068"
           id="path568" />
        <path
           d="m 36.068,17.526 -1.27,-1.27"
           id="path570" />
        <path
           d="M 34.798,16.256 V 15.748"
           id="path572" />
        <path
           d="m 35.662,25.796 h 0.772"
           id="path574" />
        <path
           d="m 36.434,25.796 2.174,-2.174"
           id="path576" />
        <path
           d="M 38.608,23.622 V 18.796"
           id="path578" />
        <path
           d="m 38.608,18.796 -1.27,-1.27"
           id="path580" />
        <path
           d="M 37.338,17.526 V 15.748"
           id="path582" />
        <path
           d="m 35.662,24.496 v -0.01"
           id="path584" />
        <path
           d="M 35.662,24.486 35.56,24.384"
           id="path586" />
        <path
           d="M 48.398,26.416 H 50.8"
           id="path588" />
        <path
           d="m 37.308,26.446 0.03,-0.03"
           id="path590" />
        <path
           d="m 35.662,26.446 h 1.646"
           id="path592" />
        <path
           d="m 39.878,20.735 v 0.347"
           id="path594" />
        <path
           d="m 40.667,19.946 -0.789,0.789"
           id="path596" />
        <path
           d="M 41.402,19.946 H 40.667"
           id="path598" />
        <path
           d="m 31.75,26.416 h 1.524"
           id="path600" />
        <path
           d="m 31.75,27.686 0.508,0.508"
           id="path602" />
        <path
           d="m 31.75,26.416 v 1.27"
           id="path604" />
        <path
           d="m 32.258,28.194 v 2.794"
           id="path606" />
        <path
           d="m 41.402,21.246 h 1.106"
           id="path608" />
        <path
           d="M 42.508,21.246 43.434,20.32"
           id="path610" />
        <path
           d="M 43.434,18.288 42.418,17.272"
           id="path612" />
        <path
           d="M 43.434,20.32 V 18.288"
           id="path614" />
        <path
           d="M 42.418,17.272 V 15.748"
           id="path616" />
        <path
           d="M 41.402,22.546 H 43.24"
           id="path618" />
        <path
           d="m 43.24,22.546 4.258,-4.258"
           id="path620" />
        <path
           d="m 47.498,18.288 v -2.54"
           id="path622" />
        <path
           d="m 41.402,21.896 h 1.472"
           id="path624" />
        <path
           d="m 42.874,21.896 2.084,-2.084"
           id="path626" />
        <path
           d="M 44.958,19.812 V 15.748"
           id="path628" />
        <path
           d="m 41.402,23.196 h 2.204"
           id="path630" />
        <path
           d="m 43.606,23.196 6.432,-6.432"
           id="path632" />
        <path
           d="M 50.038,16.764 V 15.748"
           id="path634" />
        <path
           d="M 41.402,25.146 H 48.26"
           id="path636" />
        <path
           d="m 48.26,25.146 9.398,-9.398"
           id="path638" />
        <path
           d="M 41.402,24.496 H 46.37"
           id="path640" />
        <path
           d="m 46.37,24.496 8.748,-8.748"
           id="path642" />
        <path
           d="M 41.402,23.846 H 44.48"
           id="path644" />
        <path
           d="m 44.48,23.846 8.098,-8.098"
           id="path646" />
        <path
           d="M 42.418,18.542 H 41.656"
           id="path648" />
        <path
           d="M 42.672,18.796 42.418,18.542"
           id="path650" />
        <path
           d="M 41.656,18.542 39.878,16.764"
           id="path652" />
        <path
           d="M 42.396,20.596 42.672,20.32"
           id="path654" />
        <path
           d="m 41.402,20.596 h 0.994"
           id="path656" />
        <path
           d="M 42.672,20.32 V 18.796"
           id="path658" />
        <path
           d="M 39.878,16.764 V 15.748"
           id="path660" />
        <path
           d="m 41.402,25.796 h 2.936"
           id="path662" />
        <path
           d="m 44.338,25.796 0.62,0.62"
           id="path664" />
        <path
           d="m 39.116,20.828 v 6.096"
           id="path666" />
        <path
           d="m 39.878,20.066 -0.762,0.762"
           id="path668" />
        <path
           d="m 39.116,26.924 0.0433,0.0433"
           id="path670" />
        <path
           d="M 39.897,20.066 H 39.878"
           id="path672" />
        <path
           d="m 40.667,19.296 -0.77,0.77"
           id="path674" />
        <path
           d="M 41.402,19.296 H 40.667"
           id="path676" />
        <path
           d="M 35.662,27.746 H 38.16"
           id="path678" />
        <path
           d="m 38.16,27.746 0.1792,0.1792"
           id="path680" />
        <path
           d="m 41.402,27.746 1.016,1.016"
           id="path682" />
        <path
           d="m 42.418,28.762 v 2.226"
           id="path684" />
        <path
           d="M 39.878,30.988 V 27.885"
           id="path686" />
        <path
           d="m 39.878,27.885 0.789,-0.789"
           id="path688" />
        <path
           d="m 40.667,27.096 h 0.735"
           id="path690" />
        <path
           d="M 41.402,26.446 H 40.667"
           id="path692" />
        <path
           d="m 40.667,26.446 -3.329,3.329"
           id="path694" />
        <path
           d="m 37.338,29.775 v 1.213"
           id="path696" />
        <path
           d="m 40.3711,25.8892 h 0.9377"
           id="path698" />
        <path
           d="M 41.3088,25.8892 41.402,25.796"
           id="path700" />
      </g>
      <g
         style="fill:none;stroke:#c83434;stroke-width:0.35;stroke-linecap:round;stroke-linejoin:round;stroke-opacity:1"
         id="g714"
         transform="translate(-28.139102,-6.3010569)">
        <path
           d="m 32.512,30.988 v 0.381"
           id="path704" />
        <path
           style="fill:#c83434;fill-opacity:1;fill-rule:evenodd;stroke:none"
           d="m 28.5344,16.9248 0.0139,0.0161 0.0252,0.0346 0.167,0.167 0.1103,0.0801 0.0808,0.0587 0.0482,0.0246 0.07,0.0357 0.0508,0.048 0.0169,0.0625 v 3.7972 0 0.1658 0 0 l 0.0406,0.1515 3e-4,0.0012 0.0095,0.0165 v 0 l 0.0696,0.1204 v 0 l 0.1188,0.1189 h 10e-5 l 2.3867,2.3868 v 0 l 0.0044,0.0043 v 0 l 0.1118,0.1118 0.0238,0.0138 0.0237,0.0137 v 0 0 l 0.0894,0.0516 v 0 0 0 l 0.1527,0.0409 v 0 h 0.1658 v 0 h 1.9878 l 0.067,0.0197 0.0458,0.0528 0.0112,0.0515 v 0.0675 l 0.0155,0.1179 v 0 l 0.0073,0.0177 0.0075,0.0694 -0.0075,0.0254 -0.0073,0.0177 v 0 l -0.0155,0.1179 v 0.284 l 0.0155,0.1179 v 0 l 0.0073,0.0176 0.0075,0.0695 -0.0075,0.0254 -0.0073,0.0177 v 0 l -0.0155,0.1179 v 0.284 l 0.0155,0.1179 v 0 l 0.0076,0.0183 0.0075,0.0695 -0.0075,0.0254 -0.0071,0.0171 v 0 l -0.0072,0.0548 h 0.0358 l 0.067,0.0197 0.0314,0.0288 0.0299,0.0391 v 0 0 l 0.0249,0.019 v 0 l 0.0412,0.0565 0.0041,0.0697 -0.0342,0.0609 -0.0111,0.0097 -0.0249,0.019 -0.0299,0.0391 -0.0565,0.0412 -0.0419,0.0073 h -0.0358 l 0.0072,0.0548 0.0071,0.0171 0.0075,0.0695 -0.0075,0.0254 -0.0076,0.0183 -0.0155,0.1179 v 0.284 l 0.0155,0.1179 v 0 l 0.0073,0.0176 0.0075,0.0695 -0.0075,0.0254 -0.0073,0.0177 v 0 l -0.0155,0.1179 v 0.284 l 0.0155,0.1179 v 0 l 0.0608,0.1467 v 0 0 l 0.0966,0.126 0.126,0.0966 0.1467,0.0608 0.1179,0.0155 h 1.344 v 0 l 0.1179,-0.0155 v 0 0 l 0.1467,-0.0608 0.004,-0.0031 0.0652,-0.0252 0.0103,-4e-4 H 37.59 l 0.067,0.0197 0.038,0.0383 0.0108,0.0172 0.019,0.0672 -0.0204,0.0668 -0.016,0.0196 -0.6767,0.6768 -0.0494,0.0303 -0.2003,0.065 -0.2104,0.1073 -0.1071,0.0777 -0.084,0.0611 v 0 0 l -0.167,0.167 -0.0252,0.0346 -0.0553,0.0427 -0.0696,0.006 -0.0618,-0.0326 -0.0139,-0.0161 -0.0252,-0.0346 -0.167,-0.167 -0.1911,-0.1388 v 0 l -0.2104,-0.1073 -0.2246,-0.073 -0.2333,-0.0369 v 0 h -0.2362 v 0 l -0.2333,0.0369 -0.2246,0.073 -0.2104,0.1073 -0.1071,0.0777 -0.084,0.0611 v 0 0 l -0.167,0.167 -0.0252,0.0346 -0.0553,0.0427 -0.0696,0.006 -0.0618,-0.0326 -0.0139,-0.0161 -0.0252,-0.0346 -0.167,-0.167 -0.1254,-0.0911 -0.0657,-0.0477 -0.1182,-0.0603 -0.0508,-0.048 -0.0169,-0.0625 v -1.169 l -0.0028,-0.0104 v 0 l -0.0133,-0.0498 -0.0135,-0.0504 -0.0113,-0.0421 v 0 0 l -0.0791,-0.1369 -0.0012,-0.0016 -6e-4,-0.0016 -0.0022,-0.0039 6e-4,-3e-4 -0.023,-0.0594 0.014,-0.0684 0.038,-0.0409 -8e-4,-0.0011 0.0054,-0.0043 v 0 l 0.1291,-0.1291 0.0971,-0.1545 0.0246,-0.0703 0.0407,-0.0568 0.065,-0.0257 0.0252,2e-4 0.1236,0.014 v 0 0 l 0.1792,-0.0202 h 10e-5 v 0 l 0.1702,-0.0596 0.1528,-0.096 0.1275,-0.1275 0.096,-0.1528 0.0596,-0.1702 0.0087,-0.0778 0.0115,-0.1015 v 0 l -0.0202,-0.1793 v 0 l -0.0326,-0.093 -0.027,-0.0772 -0.096,-0.1528 -0.1275,-0.1275 -0.0632,-0.0397 -0.0896,-0.0563 -0.1702,-0.0596 h -10e-5 L 33.274,25.6104 v 0 L 33.1504,25.6244 33.0816,25.6123 33.0302,25.565 33.0195,25.5421 32.9949,25.4718 32.9498,25.4 32.8978,25.3173 32.7687,25.1882 32.6142,25.0911 32.4419,25.0308 v 0 l -0.1358,-0.0153 v 0 h -1.1122 v 0 l -0.1358,0.0153 v 0 l -0.1723,0.0603 -0.1545,0.0971 -0.1291,0.1291 -0.0155,0.0247 -0.0524,0.0463 -0.0526,0.0117 h -0.904 l -0.067,-0.0197 -0.038,-0.0383 -0.0153,-0.0244 v 0 l -0.129,-0.129 -0.1544,-0.0971 -0.1722,-0.0602 v 0 L 28.866,25.016 H 28.56 v 2.8 h 0.306 v 0 l 0.1358,-0.0153 v 0 l 0.1722,-0.0602 0.1544,-0.0971 0.129,-0.129 v 0 l 0.0153,-0.0244 0.0524,-0.0463 0.0526,-0.0117 h 0.904 l 0.067,0.0197 0.038,0.0383 0.0155,0.0247 v 0 l 0.1291,0.1291 0.1545,0.0971 0.1723,0.0603 0.0202,0.0023 0.0644,0.027 0.0396,0.0576 0.0019,0.0065 0.0062,0.0232 0.0043,0.0074 v 0 l 0.0748,0.1295 v 0 l 0.1188,0.1189 h 10e-5 l 0.2328,0.2328 0.0335,0.0613 0.0028,0.0264 v 0.7898 l -0.0197,0.0671 -0.048,0.0434 -0.1182,0.0603 -0.1242,0.0902 -0.0658,0.0234 -0.068,-0.0158 -0.0477,-0.049 -3e-4,2e-4 -7e-4,-0.0012 v -10e-5 l -2e-4,-3e-4 -0.0034,-0.0062 -0.0861,-0.1151 v 0 l -0.1151,-0.0862 v 0 l -0.1347,-0.0502 v 0 L 30.7658,29.238 H 29.968 v 1.317 L 29.911,30.5221 29.7838,30.488 h -0.1316 l -0.1272,0.0341 -0.057,0.0329 v -1.317 h -0.7978 l -0.0596,0.0064 v 0 l -0.1347,0.0502 v 0 l -0.1151,0.0862 v 0 l -0.0862,0.1151 v 0 l -0.0502,0.1347 v 0 l -0.0064,0.0596 v 1.0478 h 1.067 l -0.0329,0.057 -0.0341,0.1272 v 0.1316 l 0.0341,0.1272 0.0329,0.057 h -1.067 v 0.9035 l -0.0197,0.067 -0.0528,0.0458 -0.0515,0.0112 H 18.4045 L 18.3375,32.2458 18.2917,32.193 18.2805,32.1415 V 27.052 H 26.99 l 0.0153,0.1358 v 0 l 0.0602,0.1722 0.0971,0.1544 0.129,0.129 0.1544,0.0971 0.1722,0.0602 v 0 l 0.1358,0.0153 v 0 h 0.306 v -1.15 h -1.07 v 0.386 H 18.2805 V 25.78 H 26.99 v 0.386 h 1.07 v -1.15 h -0.306 l -0.1358,0.0153 v 0 l -0.1722,0.0602 -0.1544,0.0971 -0.129,0.129 -0.0971,0.1544 -0.0602,0.1722 v 0 L 26.99,25.78 h -8.7095 v -8.6381 l 0.0197,-0.0671 0.0528,-0.0457 0.0691,-0.0099 0.0636,0.029 0.0065,0.006 0.0883,0.0883 0.1911,0.1388 0.0215,0.011 0.1889,0.0963 v 0 0 l 0.1204,0.0391 0.1042,0.0339 0.2333,0.0369 v 0 h 0.2362 l 0.2333,-0.0369 0.0292,-0.0095 0.1954,-0.0635 0.2104,-0.1073 0.1911,-0.1388 0.167,-0.167 0.0252,-0.0346 0.0553,-0.0427 0.0696,-0.006 0.0618,0.0326 0.0139,0.0161 0.0252,0.0346 0.167,0.167 0.1911,0.1388 0.0215,0.011 0.1889,0.0963 v 0 0 l 0.1204,0.0391 0.1042,0.0339 0.2333,0.0369 v 0 h 0.2362 l 0.2333,-0.0369 0.0292,-0.0095 0.1954,-0.0635 0.2104,-0.1073 0.1911,-0.1388 0.167,-0.167 0.0252,-0.0346 0.0553,-0.0427 0.0696,-0.006 0.0618,0.0326 0.0139,0.0161 0.0252,0.0346 0.167,0.167 0.1911,0.1388 0.0215,0.011 0.1889,0.0963 v 0 0 l 0.1204,0.0391 0.1042,0.0339 0.2333,0.0369 v 0 h 0.2362 l 0.2333,-0.0369 0.0292,-0.0095 0.1954,-0.0635 0.2104,-0.1073 0.1911,-0.1388 0.167,-0.167 0.0252,-0.0346 0.0553,-0.0427 0.0696,-0.006 0.0618,0.0326 0.0139,0.0161 0.0252,0.0346 0.167,0.167 0.1911,0.1388 0.0215,0.011 0.1889,0.0963 v 0 0 l 0.1204,0.0391 0.1042,0.0339 0.2333,0.0369 v 0 h 0.2362 l 0.2333,-0.0369 0.0292,-0.0095 0.1954,-0.0635 0.2104,-0.1073 0.1911,-0.1388 0.167,-0.167 0.0252,-0.0346 0.0553,-0.0427 0.0696,-0.006 z"
           id="path706" />
        <path
           style="fill:#c83434;fill-opacity:1;fill-rule:evenodd;stroke:none"
           d="m 58.8992,17.5196 0.0335,0.0613 0.0028,0.0264 v 14.5342 l -0.0197,0.067 -0.0528,0.0458 -0.0515,0.0112 h -9.9619 l -0.0671,-0.0197 -0.0457,-0.0528 -0.01,-0.0691 0.0224,-0.0553 0.0321,-0.0442 0.1073,-0.2104 0.073,-0.2246 0.0318,-0.2013 0.0051,-0.032 v -0.7362 l -0.0369,-0.2333 -0.073,-0.2246 -0.1073,-0.2104 -0.0133,-0.0184 -0.1255,-0.1727 -0.167,-0.167 -0.1911,-0.1388 v 0 l -0.2104,-0.1073 -0.2246,-0.073 -0.2333,-0.0369 v 0 h -0.2362 v 0 l -0.2333,0.0369 -0.2246,0.073 -0.2104,0.1073 -0.1071,0.0777 -0.084,0.0611 v 0 0 l -0.167,0.167 -0.0252,0.0346 -0.0553,0.0427 -0.0696,0.006 -0.0618,-0.0326 -0.0139,-0.0161 -0.0252,-0.0346 -0.167,-0.167 -0.1911,-0.1388 v 0 l -0.2104,-0.1073 -0.2246,-0.073 -0.2333,-0.0369 v 0 h -0.2362 v 0 l -0.2333,0.0369 -0.2246,0.073 -0.2104,0.1073 -0.1071,0.0777 -0.084,0.0611 v 0 0 l -0.167,0.167 -0.0252,0.0346 -0.0553,0.0427 -0.0696,0.006 -0.0618,-0.0326 -0.0139,-0.0161 -0.0252,-0.0346 -0.167,-0.167 -0.1253,-0.0911 -0.0658,-0.0477 -0.1182,-0.0603 -0.0508,-0.048 -0.0169,-0.0625 v -0.4328 -10e-5 -0.1681 0 l -0.0409,-0.1527 -0.038,-0.0657 -0.0411,-0.0712 -0.1118,-0.1118 -0.0043,-0.0044 v 0 l -0.1343,-0.1342 -0.0335,-0.0614 0.005,-0.0696 0.0016,-0.0041 8e-4,-0.0019 0.0155,-0.1179 V 27.604 L 42.622,27.4861 42.6147,27.4685 42.6072,27.399 42.6147,27.3735 42.622,27.3559 42.6375,27.238 v -0.284 l -0.0155,-0.1179 -0.0073,-0.0176 -0.0075,-0.0695 0.0075,-0.0255 2e-4,-6e-4 0.0071,-0.017 0.0155,-0.1179 v -0.0675 l 0.0197,-0.067 0.0528,-0.0458 0.0515,-0.0112 h 0.752 l 0.067,0.0197 0.0458,0.0528 0.0112,0.0515 v 0.5009 0 l 0.0154,0.1369 0.0607,0.1736 0.0753,0.1198 0.0226,0.0358 0.13,0.13 0.1556,0.0979 0.1722,0.0602 0.0014,5e-4 v 0 l 0.0684,0.0077 0.0685,0.0077 h 1.1008 v 0 0 l 0.0209,-0.0024 0.116,-0.013 v 0 0 l 0.1736,-0.0607 0.1556,-0.0979 0.13,-0.13 v 0 l 0.0044,-0.0054 0.0016,0.0013 0.0448,-0.0397 0.0527,-0.0117 h 0.9406 l 0.0671,0.0197 0.0307,0.031 0.0011,-9e-4 0.0044,0.0054 0.1299,0.1299 0.1556,0.0978 0.1734,0.0607 v 0 l 0.1368,0.0154 v 0 h 0.3004 0.5 0.3004 v 0 l 0.1368,-0.0154 v 0 l 0.1734,-0.0607 0.1556,-0.0978 0.1299,-0.1299 0.0978,-0.1556 0.0607,-0.1734 v 0 l 0.0154,-0.1368 v 0 -0.3554 h -1.07 v 1.125 h -0.5 V 26.54 l 0.0197,-0.067 0.0528,-0.0458 0.0515,-0.0112 h 0.126 V 26.29 l 0.0197,-0.067 0.0528,-0.0458 0.0515,-0.0112 h 1.196 v -0.3554 0 l -0.0154,-0.1368 v 0 l -0.0607,-0.1734 -0.0978,-0.1556 -0.1299,-0.1299 v 0 L 49.3163,25.1533 49.27,25.101 l -0.0106,-0.0691 0.0283,-0.0638 0.0069,-0.0074 7.4258,-7.4259 0.0613,-0.0335 0.0264,-0.0028 h 1.8978 v 0 l 0.0596,-0.0064 0.0027,-0.001 0.0022,-2e-4 0.0026,-6e-4 10e-5,4e-4 0.0648,-0.0046 z"
           id="path708" />
        <path
           style="fill:#c83434;fill-opacity:1;fill-rule:evenodd;stroke:none"
           d="m 38.4348,24.7469 0.056,0.0419 0.0244,0.0655 3e-4,0.0088 v 1.5884 l -0.019,0.066 -0.063,0.1002 -0.0596,0.1703 v 0 l -0.0202,0.1793 0.0029,0.0256 -0.0121,0.0689 -0.0473,0.0513 -0.0499,0.0169 -0.0873,0.0099 -0.0068,0.0015 -2e-4,-0.001 -0.0302,0.0051 h -0.0495 v 0 H 37.0215 L 36.9545,27.1258 36.9087,27.073 36.8975,27.0215 V 26.954 L 36.882,26.8361 v 0 0 l -0.0076,-0.0183 -0.0075,-0.0695 0.0075,-0.0254 0.0071,-0.0171 0.0072,-0.0548 h -0.0358 l -0.067,-0.0197 -0.0314,-0.0288 -0.0299,-0.0391 v 0 l -0.0249,-0.019 -0.0412,-0.0565 -0.0041,-0.0697 0.0342,-0.0609 0.0111,-0.0097 0.0249,-0.019 v 0 l 0.0048,-0.0049 0.0258,-0.0196 v -10e-5 l 0.0475,-0.0275 v 0 l 0.0065,-0.0049 9e-4,0.0012 0.0531,-0.029 0.0254,-0.0027 0.0057,-0.0065 0.0073,-0.0466 0.0245,-0.0348 1.3777,-1.3778 0.0613,-0.0335 z"
           id="path710" />
        <path
           style="fill:#c83434;fill-opacity:1;fill-rule:evenodd;stroke:none"
           d="m 40.1101,20.7856 0.056,0.0419 0.0153,0.0268 0.0079,0.0192 0.0075,0.0695 -0.0075,0.0255 -0.0073,0.0176 v 0 l -0.0155,0.1179 v 0.284 l 0.0155,0.1179 v 0 l 0.0073,0.0177 0.0075,0.0694 -0.0075,0.0254 -0.0073,0.0177 v 0 l -0.0155,0.1179 v 0.284 l 0.0155,0.1179 v 0 l 0.0073,0.0176 0.0075,0.0695 -0.0075,0.0254 -0.0073,0.0177 v 0 l -0.0155,0.1179 v 0.284 l 0.0155,0.1179 v 0 l 0.0073,0.0176 0.0075,0.0695 -0.0075,0.0254 -0.0073,0.0177 v 0 l -0.0155,0.1179 v 0.284 l 0.0155,0.1179 v 0 l 0.0073,0.0176 0.0075,0.0695 -0.0075,0.0254 -0.0073,0.0177 v 0 l -0.0155,0.1179 v 0.284 l 0.0155,0.1179 v 0 l 0.0073,0.0176 0.0075,0.0695 -0.0075,0.0254 -0.0073,0.0177 v 0 l -0.0155,0.1179 v 0.284 l 0.0155,0.1179 v 0 l 0.0073,0.0177 0.0075,0.0694 -0.0075,0.0254 -0.0073,0.0177 v 0 l -0.0155,0.1179 v 0.0207 l -0.0197,0.0671 -0.0528,0.0457 -0.0105,0.0043 -0.0619,0.0216 v 0 l -0.1151,0.0723 -0.0673,0.019 -0.0668,-0.0203 -0.0452,-0.0533 -0.0107,-0.0504 v -4.0026 l 0.0197,-0.067 0.0166,-0.0207 0.0974,-0.0974 0.1289,-0.1289 0.0613,-0.0335 z"
           id="path712" />
      </g>
      <g
         style="fill:#ffffff;fill-opacity:1;stroke:none"
         id="g718"
         transform="translate(-28.139102,-6.3010569)">
        <circle
           cx="34.290001"
           cy="21.082001"
           r="0.15000001"
           id="circle716" />
      </g>
      <g
         style="fill:#ffffff;fill-opacity:1;stroke:none"
         id="g722"
         transform="translate(-28.139102,-6.3010569)">
        <circle
           cx="34.035999"
           cy="21.844"
           r="0.15000001"
           id="circle720" />
      </g>
      <g
         style="fill:#ffffff;fill-opacity:1;stroke:none"
         id="g726"
         transform="translate(-28.139102,-6.3010569)">
        <circle
           cx="33.273998"
           cy="22.351999"
           r="0.15000001"
           id="circle724" />
      </g>
      <g
         style="fill:#ffffff;fill-opacity:1;stroke:none"
         id="g730"
         transform="translate(-28.139102,-6.3010569)">
        <circle
           cx="32.765999"
           cy="23.114"
           r="0.15000001"
           id="circle728" />
      </g>
      <g
         style="fill:#ffffff;fill-opacity:1;stroke:none"
         id="g734"
         transform="translate(-28.139102,-6.3010569)">
        <circle
           cx="35.813999"
           cy="18.542"
           r="0.15000001"
           id="circle732" />
      </g>
      <g
         style="fill:#ffffff;fill-opacity:1;stroke:none"
         id="g738"
         transform="translate(-28.139102,-6.3010569)">
        <circle
           cx="50.799999"
           cy="26.416"
           r="0.15000001"
           id="circle736" />
      </g>
      <g
         style="fill:#ffffff;fill-opacity:1;stroke:none"
         id="g742"
         transform="translate(-28.139102,-6.3010569)">
        <circle
           cx="37.338001"
           cy="26.416"
           r="0.15000001"
           id="circle740" />
      </g>
      <g
         style="fill:#ffffff;fill-opacity:1;stroke:none"
         id="g746"
         transform="translate(-28.139102,-6.3010569)">
        <circle
           cx="39.877998"
           cy="21.082001"
           r="0.15000001"
           id="circle744" />
      </g>
      <g
         style="fill:#ffffff;fill-opacity:1;stroke:none"
         id="g750"
         transform="translate(-28.139102,-6.3010569)">
        <circle
           cx="33.273998"
           cy="26.416"
           r="0.15000001"
           id="circle748" />
      </g>
      <g
         style="fill:#ffffff;fill-opacity:1;stroke:none"
         id="g754"
         transform="translate(-28.139102,-6.3010569)">
        <circle
           cx="39.159302"
           cy="26.9673"
           r="0.15000001"
           id="circle752" />
      </g>
      <g
         style="fill:#ffffff;fill-opacity:1;stroke:none"
         id="g758"
         transform="translate(-28.139102,-6.3010569)">
        <circle
           cx="38.339199"
           cy="27.9252"
           r="0.15000001"
           id="circle756" />
      </g>
      <g
         style="fill:#ffffff;fill-opacity:1;stroke:none"
         id="g762"
         transform="translate(-28.139102,-6.3010569)">
        <circle
           cx="40.371101"
           cy="25.8892"
           r="0.15000001"
           id="circle760" />
      </g>
      <g
         style="fill:#ffffff;fill-opacity:1;stroke:none"
         id="g766"
         transform="translate(-28.139102,-6.3010569)">
        <circle
           cx="57.658001"
           cy="15.748"
           r="0.5"
           id="circle764" />
      </g>
      <g
         style="fill:#ffffff;fill-opacity:1;stroke:none"
         id="g770"
         transform="translate(-28.139102,-6.3010569)">
        <circle
           cx="55.118"
           cy="15.748"
           r="0.5"
           id="circle768" />
      </g>
      <g
         style="fill:#ffffff;fill-opacity:1;stroke:none"
         id="g774"
         transform="translate(-28.139102,-6.3010569)">
        <circle
           cx="52.577999"
           cy="15.748"
           r="0.5"
           id="circle772" />
      </g>
      <g
         style="fill:#ffffff;fill-opacity:1;stroke:none"
         id="g778"
         transform="translate(-28.139102,-6.3010569)">
        <circle
           cx="50.037998"
           cy="15.748"
           r="0.5"
           id="circle776" />
      </g>
      <g
         style="fill:#ffffff;fill-opacity:1;stroke:none"
         id="g782"
         transform="translate(-28.139102,-6.3010569)">
        <circle
           cx="47.498001"
           cy="15.748"
           r="0.5"
           id="circle780" />
      </g>
      <g
         style="fill:#ffffff;fill-opacity:1;stroke:none"
         id="g786"
         transform="translate(-28.139102,-6.3010569)">
        <circle
           cx="44.958"
           cy="15.748"
           r="0.5"
           id="circle784" />
      </g>
      <g
         style="fill:#ffffff;fill-opacity:1;stroke:none"
         id="g790"
         transform="translate(-28.139102,-6.3010569)">
        <circle
           cx="42.417999"
           cy="15.748"
           r="0.5"
           id="circle788" />
      </g>
      <g
         style="fill:#ffffff;fill-opacity:1;stroke:none"
         id="g794"
         transform="translate(-28.139102,-6.3010569)">
        <circle
           cx="39.877998"
           cy="15.748"
           r="0.5"
           id="circle792" />
      </g>
      <g
         style="fill:#ffffff;fill-opacity:1;stroke:none"
         id="g798"
         transform="translate(-28.139102,-6.3010569)">
        <circle
           cx="37.338001"
           cy="15.748"
           r="0.5"
           id="circle796" />
      </g>
      <g
         style="fill:#ffffff;fill-opacity:1;stroke:none"
         id="g802"
         transform="translate(-28.139102,-6.3010569)">
        <circle
           cx="34.798"
           cy="15.748"
           r="0.5"
           id="circle800" />
      </g>
      <g
         style="fill:#ffffff;fill-opacity:1;stroke:none"
         id="g806"
         transform="translate(-28.139102,-6.3010569)">
        <circle
           cx="32.257999"
           cy="15.748"
           r="0.5"
           id="circle804" />
      </g>
      <g
         style="fill:#ffffff;fill-opacity:1;stroke:none"
         id="g810"
         transform="translate(-28.139102,-6.3010569)">
        <circle
           cx="29.718"
           cy="15.748"
           r="0.5"
           id="circle808" />
      </g>
      <g
         style="fill:#ffffff;fill-opacity:1;stroke:none"
         id="g814"
         transform="translate(-28.139102,-6.3010569)">
        <circle
           cx="27.177999"
           cy="15.748"
           r="0.5"
           id="circle812" />
      </g>
      <g
         style="fill:#ffffff;fill-opacity:1;stroke:none"
         id="g818"
         transform="translate(-28.139102,-6.3010569)">
        <circle
           cx="24.638"
           cy="15.748"
           r="0.5"
           id="circle816" />
      </g>
      <g
         style="fill:#ffffff;fill-opacity:1;stroke:none"
         id="g822"
         transform="translate(-28.139102,-6.3010569)">
        <circle
           cx="22.098"
           cy="15.748"
           r="0.5"
           id="circle820" />
      </g>
      <g
         style="fill:#ffffff;fill-opacity:1;stroke:none"
         id="g826"
         transform="translate(-28.139102,-6.3010569)">
        <circle
           cx="19.558001"
           cy="15.748"
           r="0.5"
           id="circle824" />
      </g>
      <g
         style="fill:#ffffff;fill-opacity:1;stroke:none"
         id="g830"
         transform="translate(-28.139102,-6.3010569)">
        <circle
           cx="29.718"
           cy="30.988001"
           r="0.5"
           id="circle828" />
      </g>
      <g
         style="fill:#ffffff;fill-opacity:1;stroke:none"
         id="g834"
         transform="translate(-28.139102,-6.3010569)">
        <circle
           cx="32.257999"
           cy="30.988001"
           r="0.5"
           id="circle832" />
      </g>
      <g
         style="fill:#ffffff;fill-opacity:1;stroke:none"
         id="g838"
         transform="translate(-28.139102,-6.3010569)">
        <circle
           cx="34.798"
           cy="30.988001"
           r="0.5"
           id="circle836" />
      </g>
      <g
         style="fill:#ffffff;fill-opacity:1;stroke:none"
         id="g842"
         transform="translate(-28.139102,-6.3010569)">
        <circle
           cx="37.338001"
           cy="30.988001"
           r="0.5"
           id="circle840" />
      </g>
      <g
         style="fill:#ffffff;fill-opacity:1;stroke:none"
         id="g846"
         transform="translate(-28.139102,-6.3010569)">
        <circle
           cx="39.877998"
           cy="30.988001"
           r="0.5"
           id="circle844" />
      </g>
      <g
         style="fill:#ffffff;fill-opacity:1;stroke:none"
         id="g850"
         transform="translate(-28.139102,-6.3010569)">
        <circle
           cx="42.417999"
           cy="30.988001"
           r="0.5"
           id="circle848" />
      </g>
      <g
         style="fill:#ffffff;fill-opacity:1;stroke:none"
         id="g854"
         transform="translate(-28.139102,-6.3010569)">
        <circle
           cx="44.958"
           cy="30.988001"
           r="0.5"
           id="circle852" />
      </g>
      <g
         style="fill:#ffffff;fill-opacity:1;stroke:none"
         id="g858"
         transform="translate(-28.139102,-6.3010569)">
        <circle
           cx="47.498001"
           cy="30.988001"
           r="0.5"
           id="circle856" />
      </g>
    </g>
    <path
       style="fill:none;fill-opacity:1;stroke:#ff0000;stroke-width:0.05;stroke-linecap:round;stroke-linejoin:round;stroke-opacity:1"
       d="M 0.172,0.102 H 41.828 V 18.898 H 0.172 V 0.102"
       id="path254-3" />
  </g>
  <g
     inkscape:label="B.Cu"
     inkscape:groupmode="layer"
     id="g1743" />
  <g
     inkscape:label="B.Mask"
     inkscape:groupmode="layer"
     id="g1745" />
  <g
     inkscape:label="B.SilkS"
     inkscape:groupmode="layer"
     id="g1747" />
  <g
     inkscape:label="F.Cu"
     inkscape:groupmode="layer"
     id="g1749"
     style="display:inline">
    <rect
       style="opacity:1;fill:#000000;stroke:#000000;stroke-width:0.2;stroke-linecap:round;stroke-linejoin:round;stop-color:#000000"
       id="rect29205"
       width="6.5591846"
       height="3.4341111"
       x="3.1244154"
       y="7.8864884" />
  </g>
  <g
     inkscape:label="F.Mask"
     inkscape:groupmode="layer"
     id="g1751" />
  <g
     inkscape:label="F.SilkS"
     inkscape:groupmode="layer"
     id="g1753"
     style="display:inline">
    <text
       xml:space="preserve"
       style="font-size:1.33659px;line-height:1.25;font-family:Dyuthi;-inkscape-font-specification:Dyuthi;letter-spacing:0px;word-spacing:0px;stroke-width:0.100243"
       x="18.417995"
       y="-18.920336"
       id="text12884"
       transform="matrix(0,0.77656899,-1.2877156,0,0,0)"><tspan
         sodipodi:role="line"
         id="tspan12882"
         style="font-style:normal;font-variant:normal;font-weight:normal;font-stretch:normal;font-family:'Eras Bold ITC';-inkscape-font-specification:'Eras Bold ITC';stroke-width:0.100243"
         x="18.417995"
         y="-18.920336">A2</tspan></text>
    <text
       xml:space="preserve"
       style="font-size:1.33659px;line-height:1.25;font-family:Dyuthi;-inkscape-font-specification:Dyuthi;letter-spacing:0px;word-spacing:0px;stroke-width:0.100243"
       x="18.422564"
       y="-20.801949"
       id="text13468"
       transform="matrix(0,0.77656899,-1.2877156,0,0,0)"><tspan
         sodipodi:role="line"
         id="tspan13466"
         style="font-style:normal;font-variant:normal;font-weight:normal;font-stretch:normal;font-family:'Eras Bold ITC';-inkscape-font-specification:'Eras Bold ITC';stroke-width:0.100243"
         x="18.422564"
         y="-20.801949">A3</tspan></text>
    <text
       xml:space="preserve"
       style="font-size:1.33659px;line-height:1.25;font-family:Dyuthi;-inkscape-font-specification:Dyuthi;letter-spacing:0px;word-spacing:0px;stroke-width:0.100243"
       x="18.5557"
       y="-16.841837"
       id="text13472"
       transform="matrix(0,0.77656899,-1.2877156,0,0,0)"><tspan
         sodipodi:role="line"
         id="tspan13470"
         style="font-style:normal;font-variant:normal;font-weight:normal;font-stretch:normal;font-family:'Eras Bold ITC';-inkscape-font-specification:'Eras Bold ITC';stroke-width:0.100243"
         x="18.5557"
         y="-16.841837">A1</tspan></text>
    <text
       xml:space="preserve"
       style="font-size:1.33659px;line-height:1.25;font-family:Dyuthi;-inkscape-font-specification:Dyuthi;letter-spacing:0px;word-spacing:0px;stroke-width:0.100243"
       x="18.391237"
       y="-14.951459"
       id="text13476"
       transform="matrix(0,0.77656899,-1.2877156,0,0,0)"><tspan
         sodipodi:role="line"
         id="tspan13474"
         style="font-style:normal;font-variant:normal;font-weight:normal;font-stretch:normal;font-family:'Eras Bold ITC';-inkscape-font-specification:'Eras Bold ITC';stroke-width:0.100243"
         x="18.391237"
         y="-14.951459">A0</tspan></text>
    <text
       xml:space="preserve"
       style="font-size:1.33659px;line-height:1.25;font-family:Dyuthi;-inkscape-font-specification:Dyuthi;letter-spacing:0px;word-spacing:0px;stroke-width:0.100243"
       x="18.581806"
       y="-12.973435"
       id="text13480"
       transform="matrix(0,0.77656899,-1.2877156,0,0,0)"><tspan
         sodipodi:role="line"
         id="tspan13478"
         style="font-style:normal;font-variant:normal;font-weight:normal;font-stretch:normal;font-family:'Eras Bold ITC';-inkscape-font-specification:'Eras Bold ITC';stroke-width:0.100243"
         x="18.581806"
         y="-12.973435">En</tspan></text>
    <text
       xml:space="preserve"
       style="font-size:1.33659px;line-height:1.25;font-family:Dyuthi;-inkscape-font-specification:Dyuthi;letter-spacing:0px;word-spacing:0px;stroke-width:0.100243"
       x="17.991827"
       y="-10.973004"
       id="text13484"
       transform="matrix(0,0.77656899,-1.2877156,0,0,0)"><tspan
         sodipodi:role="line"
         id="tspan13482"
         style="font-style:normal;font-variant:normal;font-weight:normal;font-stretch:normal;font-family:'Eras Bold ITC';-inkscape-font-specification:'Eras Bold ITC';stroke-width:0.100243"
         x="17.991827"
         y="-10.973004">Vcc</tspan></text>
    <text
       xml:space="preserve"
       style="font-size:1.21912px;line-height:1.25;font-family:Dyuthi;-inkscape-font-specification:Dyuthi;letter-spacing:0px;word-spacing:0px;stroke-width:0.0914327"
       x="19.405653"
       y="-8.1450186"
       id="text13488"
       transform="matrix(0,0.70831672,-1.4117978,0,0,0)"><tspan
         sodipodi:role="line"
         id="tspan13486"
         style="font-style:normal;font-variant:normal;font-weight:normal;font-stretch:normal;font-family:'Eras Bold ITC';-inkscape-font-specification:'Eras Bold ITC';stroke-width:0.0914327"
         x="19.405653"
         y="-8.1450186">GND</tspan></text>
    <text
       xml:space="preserve"
       style="font-size:1.33659px;line-height:1.25;font-family:Dyuthi;-inkscape-font-specification:Dyuthi;letter-spacing:0px;word-spacing:0px;stroke-width:0.100243"
       x="18.327932"
       y="-22.829212"
       id="text25372"
       transform="matrix(0,0.77656899,-1.2877156,0,0,0)"><tspan
         sodipodi:role="line"
         id="tspan25370"
         style="font-style:normal;font-variant:normal;font-weight:normal;font-stretch:normal;font-family:'Eras Bold ITC';-inkscape-font-specification:'Eras Bold ITC';stroke-width:0.100243"
         x="18.327932"
         y="-22.829212">Sig</tspan></text>
  </g>
  <g
     inkscape:label="Dwgs.User"
     inkscape:groupmode="layer"
     id="g1755" />
  <g
     inkscape:label="Drill"
     inkscape:groupmode="layer"
     id="g1757"
     style="display:inline" />
  <g
     inkscape:label="Edge.Cuts"
     inkscape:groupmode="layer"
     id="g1741"
     style="display:inline" />
</svg>
