<?xml version="1.0" standalone="no"?>
 <!DOCTYPE svg PUBLIC "-//W3C//DTD SVG 1.1//EN" 
 "http://www.w3.org/Graphics/SVG/1.1/DTD/svg11.dtd"> 
<svg
  xmlns:svg="http://www.w3.org/2000/svg"
  xmlns="http://www.w3.org/2000/svg"
  xmlns:xlink="http://www.w3.org/1999/xlink"
  version="1.1"
  width="62.9920mm" height="41.9100mm" viewBox="0.0000 0.0000 62.9920 41.9100">
<title>SVG Image created as I-V-CurvePCB-brd.svg date 2025/01/24 19:03:55 </title>
  <desc>Image generated by PCBNEW </desc>
<g style="fill:#000000; fill-opacity:1.0000;stroke:#000000; stroke-opacity:1.0000;
stroke-linecap:round; stroke-linejoin:round;"
 transform="translate(0 0) scale(1 1)">
</g>
<g style="fill:none; 
stroke:#000000; stroke-width:0.3000; stroke-opacity:1; 
stroke-linecap:round; stroke-linejoin:round;">
<text x="11.6840" y="21.3360"
textLength="6.7429" font-size="2.0000" lengthAdjust="spacingAndGlyphs"
text-anchor="start" opacity="0" stroke-opacity="0">9-16</text>
<g class="stroked-text"><desc>9-16</desc>
<path d="M12.3099 21.1368
L12.5957 21.1368
" />
<path d="M12.5957 21.1368
L12.7385 21.0654
" />
<path d="M12.7385 21.0654
L12.8099 20.9940
" />
<path d="M12.8099 20.9940
L12.9528 20.7797
" />
<path d="M12.9528 20.7797
L13.0242 20.4940
" />
<path d="M13.0242 20.4940
L13.0242 19.9225
" />
<path d="M13.0242 19.9225
L12.9528 19.7797
" />
<path d="M12.9528 19.7797
L12.8814 19.7083
" />
<path d="M12.8814 19.7083
L12.7385 19.6368
" />
<path d="M12.7385 19.6368
L12.4528 19.6368
" />
<path d="M12.4528 19.6368
L12.3099 19.7083
" />
<path d="M12.3099 19.7083
L12.2385 19.7797
" />
<path d="M12.2385 19.7797
L12.1671 19.9225
" />
<path d="M12.1671 19.9225
L12.1671 20.2797
" />
<path d="M12.1671 20.2797
L12.2385 20.4225
" />
<path d="M12.2385 20.4225
L12.3099 20.4940
" />
<path d="M12.3099 20.4940
L12.4528 20.5654
" />
<path d="M12.4528 20.5654
L12.7385 20.5654
" />
<path d="M12.7385 20.5654
L12.8814 20.4940
" />
<path d="M12.8814 20.4940
L12.9528 20.4225
" />
<path d="M12.9528 20.4225
L13.0242 20.2797
" />
<path d="M13.6671 20.5654
L14.8099 20.5654
" />
<path d="M16.3099 21.1368
L15.4528 21.1368
" />
<path d="M15.8814 21.1368
L15.8814 19.6368
" />
<path d="M15.8814 19.6368
L15.7385 19.8511
" />
<path d="M15.7385 19.8511
L15.5957 19.9940
" />
<path d="M15.5957 19.9940
L15.4528 20.0654
" />
<path d="M17.5957 19.6368
L17.3099 19.6368
" />
<path d="M17.3099 19.6368
L17.1671 19.7083
" />
<path d="M17.1671 19.7083
L17.0957 19.7797
" />
<path d="M17.0957 19.7797
L16.9528 19.9940
" />
<path d="M16.9528 19.9940
L16.8814 20.2797
" />
<path d="M16.8814 20.2797
L16.8814 20.8511
" />
<path d="M16.8814 20.8511
L16.9528 20.9940
" />
<path d="M16.9528 20.9940
L17.0242 21.0654
" />
<path d="M17.0242 21.0654
L17.1671 21.1368
" />
<path d="M17.1671 21.1368
L17.4528 21.1368
" />
<path d="M17.4528 21.1368
L17.5957 21.0654
" />
<path d="M17.5957 21.0654
L17.6671 20.9940
" />
<path d="M17.6671 20.9940
L17.7385 20.8511
" />
<path d="M17.7385 20.8511
L17.7385 20.4940
" />
<path d="M17.7385 20.4940
L17.6671 20.3511
" />
<path d="M17.6671 20.3511
L17.5957 20.2797
" />
<path d="M17.5957 20.2797
L17.4528 20.2083
" />
<path d="M17.4528 20.2083
L17.1671 20.2083
" />
<path d="M17.1671 20.2083
L17.0242 20.2797
" />
<path d="M17.0242 20.2797
L16.9528 20.3511
" />
<path d="M16.9528 20.3511
L16.8814 20.4940
" />
</g><text x="14.4780" y="25.4000"
textLength="1.8857" font-size="2.0000" lengthAdjust="spacingAndGlyphs"
text-anchor="start" opacity="0" stroke-opacity="0">V</text>
<g class="stroked-text"><desc>V</desc>
<path d="M14.8182 23.7008
L15.3182 25.2008
" />
<path d="M15.3182 25.2008
L15.8182 23.7008
" />
</g><text x="52.8320" y="25.6540"
textLength="3.3143" font-size="2.0000" lengthAdjust="spacingAndGlyphs"
text-anchor="start" opacity="0" stroke-opacity="0">A0</text>
<g class="stroked-text"><desc>A0</desc>
<path d="M53.3151 25.0263
L54.0294 25.0263
" />
<path d="M53.1722 25.4548
L53.6722 23.9548
" />
<path d="M53.6722 23.9548
L54.1722 25.4548
" />
<path d="M54.9579 23.9548
L55.1008 23.9548
" />
<path d="M55.1008 23.9548
L55.2437 24.0263
" />
<path d="M55.2437 24.0263
L55.3151 24.0977
" />
<path d="M55.3151 24.0977
L55.3865 24.2405
" />
<path d="M55.3865 24.2405
L55.4579 24.5263
" />
<path d="M55.4579 24.5263
L55.4579 24.8834
" />
<path d="M55.4579 24.8834
L55.3865 25.1691
" />
<path d="M55.3865 25.1691
L55.3151 25.3120
" />
<path d="M55.3151 25.3120
L55.2437 25.3834
" />
<path d="M55.2437 25.3834
L55.1008 25.4548
" />
<path d="M55.1008 25.4548
L54.9579 25.4548
" />
<path d="M54.9579 25.4548
L54.8151 25.3834
" />
<path d="M54.8151 25.3834
L54.7437 25.3120
" />
<path d="M54.7437 25.3120
L54.6722 25.1691
" />
<path d="M54.6722 25.1691
L54.6008 24.8834
" />
<path d="M54.6008 24.8834
L54.6008 24.5263
" />
<path d="M54.6008 24.5263
L54.6722 24.2405
" />
<path d="M54.6722 24.2405
L54.7437 24.0977
" />
<path d="M54.7437 24.0977
L54.8151 24.0263
" />
<path d="M54.8151 24.0263
L54.9579 23.9548
" />
</g><text x="16.7640" y="25.4000"
textLength="3.3143" font-size="2.0000" lengthAdjust="spacingAndGlyphs"
text-anchor="start" opacity="0" stroke-opacity="0">A3</text>
<g class="stroked-text"><desc>A3</desc>
<path d="M17.2471 24.7723
L17.9614 24.7723
" />
<path d="M17.1042 25.2008
L17.6042 23.7008
" />
<path d="M17.6042 23.7008
L18.1042 25.2008
" />
<path d="M18.4614 23.7008
L19.3899 23.7008
" />
<path d="M19.3899 23.7008
L18.8899 24.2723
" />
<path d="M18.8899 24.2723
L19.1042 24.2723
" />
<path d="M19.1042 24.2723
L19.2471 24.3437
" />
<path d="M19.2471 24.3437
L19.3185 24.4151
" />
<path d="M19.3185 24.4151
L19.3899 24.5580
" />
<path d="M19.3899 24.5580
L19.3899 24.9151
" />
<path d="M19.3899 24.9151
L19.3185 25.0580
" />
<path d="M19.3185 25.0580
L19.2471 25.1294
" />
<path d="M19.2471 25.1294
L19.1042 25.2008
" />
<path d="M19.1042 25.2008
L18.6757 25.2008
" />
<path d="M18.6757 25.2008
L18.5328 25.1294
" />
<path d="M18.5328 25.1294
L18.4614 25.0580
" />
</g><text x="20.3200" y="25.4000"
textLength="2.1000" font-size="2.0000" lengthAdjust="spacingAndGlyphs"
text-anchor="start" opacity="0" stroke-opacity="0">D</text>
<g class="stroked-text"><desc>D</desc>
<path d="M20.8745 25.2008
L20.8745 23.7008
" />
<path d="M20.8745 23.7008
L21.2317 23.7008
" />
<path d="M21.2317 23.7008
L21.4459 23.7723
" />
<path d="M21.4459 23.7723
L21.5888 23.9151
" />
<path d="M21.5888 23.9151
L21.6602 24.0580
" />
<path d="M21.6602 24.0580
L21.7317 24.3437
" />
<path d="M21.7317 24.3437
L21.7317 24.5580
" />
<path d="M21.7317 24.5580
L21.6602 24.8437
" />
<path d="M21.6602 24.8437
L21.5888 24.9865
" />
<path d="M21.5888 24.9865
L21.4459 25.1294
" />
<path d="M21.4459 25.1294
L21.2317 25.2008
" />
<path d="M21.2317 25.2008
L20.8745 25.2008
" />
</g><text x="49.5300" y="25.6540"
textLength="3.3143" font-size="2.0000" lengthAdjust="spacingAndGlyphs"
text-anchor="start" opacity="0" stroke-opacity="0">A1</text>
<g class="stroked-text"><desc>A1</desc>
<path d="M50.0131 25.0263
L50.7274 25.0263
" />
<path d="M49.8702 25.4548
L50.3702 23.9548
" />
<path d="M50.3702 23.9548
L50.8702 25.4548
" />
<path d="M52.1559 25.4548
L51.2988 25.4548
" />
<path d="M51.7274 25.4548
L51.7274 23.9548
" />
<path d="M51.7274 23.9548
L51.5845 24.1691
" />
<path d="M51.5845 24.1691
L51.4417 24.3120
" />
<path d="M51.4417 24.3120
L51.2988 24.3834
" />
</g><text x="52.8320" y="31.2420"
textLength="3.5286" font-size="2.0000" lengthAdjust="spacingAndGlyphs"
text-anchor="start" opacity="0" stroke-opacity="0">EN</text>
<g class="stroked-text"><desc>EN</desc>
<path d="M53.3865 30.2571
L53.8865 30.2571
" />
<path d="M54.1008 31.0428
L53.3865 31.0428
" />
<path d="M53.3865 31.0428
L53.3865 29.5428
" />
<path d="M53.3865 29.5428
L54.1008 29.5428
" />
<path d="M54.7437 31.0428
L54.7437 29.5428
" />
<path d="M54.7437 29.5428
L55.6008 31.0428
" />
<path d="M55.6008 31.0428
L55.6008 29.5428
" />
</g><text x="46.2280" y="25.6540"
textLength="3.3143" font-size="2.0000" lengthAdjust="spacingAndGlyphs"
text-anchor="start" opacity="0" stroke-opacity="0">A2</text>
<g class="stroked-text"><desc>A2</desc>
<path d="M46.7111 25.0263
L47.4254 25.0263
" />
<path d="M46.5682 25.4548
L47.0682 23.9548
" />
<path d="M47.0682 23.9548
L47.5682 25.4548
" />
<path d="M47.9968 24.0977
L48.0682 24.0263
" />
<path d="M48.0682 24.0263
L48.2111 23.9548
" />
<path d="M48.2111 23.9548
L48.5682 23.9548
" />
<path d="M48.5682 23.9548
L48.7111 24.0263
" />
<path d="M48.7111 24.0263
L48.7825 24.0977
" />
<path d="M48.7825 24.0977
L48.8539 24.2405
" />
<path d="M48.8539 24.2405
L48.8539 24.3834
" />
<path d="M48.8539 24.3834
L48.7825 24.5977
" />
<path d="M48.7825 24.5977
L47.9254 25.4548
" />
<path d="M47.9254 25.4548
L48.8539 25.4548
" />
</g><text x="50.8000" y="21.0820"
textLength="5.3143" font-size="2.0000" lengthAdjust="spacingAndGlyphs"
text-anchor="start" opacity="0" stroke-opacity="0">8-1</text>
<g class="stroked-text"><desc>8-1</desc>
<path d="M51.5688 20.0257
L51.4259 19.9543
" />
<path d="M51.4259 19.9543
L51.3545 19.8828
" />
<path d="M51.3545 19.8828
L51.2831 19.7400
" />
<path d="M51.2831 19.7400
L51.2831 19.6685
" />
<path d="M51.2831 19.6685
L51.3545 19.5257
" />
<path d="M51.3545 19.5257
L51.4259 19.4543
" />
<path d="M51.4259 19.4543
L51.5688 19.3828
" />
<path d="M51.5688 19.3828
L51.8545 19.3828
" />
<path d="M51.8545 19.3828
L51.9974 19.4543
" />
<path d="M51.9974 19.4543
L52.0688 19.5257
" />
<path d="M52.0688 19.5257
L52.1402 19.6685
" />
<path d="M52.1402 19.6685
L52.1402 19.7400
" />
<path d="M52.1402 19.7400
L52.0688 19.8828
" />
<path d="M52.0688 19.8828
L51.9974 19.9543
" />
<path d="M51.9974 19.9543
L51.8545 20.0257
" />
<path d="M51.8545 20.0257
L51.5688 20.0257
" />
<path d="M51.5688 20.0257
L51.4259 20.0971
" />
<path d="M51.4259 20.0971
L51.3545 20.1685
" />
<path d="M51.3545 20.1685
L51.2831 20.3114
" />
<path d="M51.2831 20.3114
L51.2831 20.5971
" />
<path d="M51.2831 20.5971
L51.3545 20.7400
" />
<path d="M51.3545 20.7400
L51.4259 20.8114
" />
<path d="M51.4259 20.8114
L51.5688 20.8828
" />
<path d="M51.5688 20.8828
L51.8545 20.8828
" />
<path d="M51.8545 20.8828
L51.9974 20.8114
" />
<path d="M51.9974 20.8114
L52.0688 20.7400
" />
<path d="M52.0688 20.7400
L52.1402 20.5971
" />
<path d="M52.1402 20.5971
L52.1402 20.3114
" />
<path d="M52.1402 20.3114
L52.0688 20.1685
" />
<path d="M52.0688 20.1685
L51.9974 20.0971
" />
<path d="M51.9974 20.0971
L51.8545 20.0257
" />
<path d="M52.7831 20.3114
L53.9259 20.3114
" />
<path d="M55.4259 20.8828
L54.5688 20.8828
" />
<path d="M54.9974 20.8828
L54.9974 19.3828
" />
<path d="M54.9974 19.3828
L54.8545 19.5971
" />
<path d="M54.8545 19.5971
L54.7117 19.7400
" />
<path d="M54.7117 19.7400
L54.5688 19.8114
" />
</g><text x="11.6840" y="31.2420"
textLength="2.1000" font-size="2.0000" lengthAdjust="spacingAndGlyphs"
text-anchor="start" opacity="0" stroke-opacity="0">G</text>
<g class="stroked-text"><desc>G</desc>
<path d="M13.0242 29.6143
L12.8814 29.5428
" />
<path d="M12.8814 29.5428
L12.6671 29.5428
" />
<path d="M12.6671 29.5428
L12.4528 29.6143
" />
<path d="M12.4528 29.6143
L12.3099 29.7571
" />
<path d="M12.3099 29.7571
L12.2385 29.9000
" />
<path d="M12.2385 29.9000
L12.1671 30.1857
" />
<path d="M12.1671 30.1857
L12.1671 30.4000
" />
<path d="M12.1671 30.4000
L12.2385 30.6857
" />
<path d="M12.2385 30.6857
L12.3099 30.8285
" />
<path d="M12.3099 30.8285
L12.4528 30.9714
" />
<path d="M12.4528 30.9714
L12.6671 31.0428
" />
<path d="M12.6671 31.0428
L12.8099 31.0428
" />
<path d="M12.8099 31.0428
L13.0242 30.9714
" />
<path d="M13.0242 30.9714
L13.0957 30.9000
" />
<path d="M13.0957 30.9000
L13.0957 30.4000
" />
<path d="M13.0957 30.4000
L12.8099 30.4000
" />
</g><path style="fill:#000000; fill-opacity:1.0000; stroke:none;fill-rule:evenodd;"
d="M 24.1880,23.7934
24.1962,23.7226
24.2422,23.6186
24.3226,23.5382
24.4266,23.4922
24.4974,23.4840
25.5186,23.4840
25.5894,23.4922
25.6934,23.5382
25.7738,23.6186
25.8198,23.7226
25.8280,23.7934
25.8280,24.9746
25.8198,25.0454
25.7738,25.1494
25.6934,25.2298
25.5894,25.2758
25.5186,25.2840
24.4974,25.2840
24.4266,25.2758
24.3226,25.2298
24.2422,25.1494
24.1962,25.0454
24.1880,24.9746
Z" /> 
<path style="fill:#000000; fill-opacity:1.0000; stroke:none;fill-rule:evenodd;"
d="M 27.6280,23.7934
27.6362,23.7226
27.6822,23.6186
27.7626,23.5382
27.8666,23.4922
27.9374,23.4840
28.9586,23.4840
29.0294,23.4922
29.1334,23.5382
29.2138,23.6186
29.2598,23.7226
29.2680,23.7934
29.2680,24.9746
29.2598,25.0454
29.2138,25.1494
29.1334,25.2298
29.0294,25.2758
28.9586,25.2840
27.9374,25.2840
27.8666,25.2758
27.7626,25.2298
27.6822,25.1494
27.6362,25.0454
27.6280,24.9746
Z" /> 
<path style="fill:#000000; fill-opacity:1.0000; stroke:none;fill-rule:evenodd;"
d="M 43.7396,21.1400
43.8118,21.1484
43.9179,21.1952
43.9998,21.2771
44.0466,21.3832
44.0550,21.4554
44.0550,22.4646
44.0466,22.5368
43.9998,22.6429
43.9179,22.7248
43.8118,22.7716
43.7396,22.7800
42.6204,22.7800
42.5482,22.7716
42.4421,22.7248
42.3602,22.6429
42.3134,22.5368
42.3050,22.4646
42.3050,21.4554
42.3134,21.3832
42.3602,21.2771
42.4421,21.1952
42.5482,21.1484
42.6204,21.1400
Z" /> 
<path style="fill:#000000; fill-opacity:1.0000; stroke:none;fill-rule:evenodd;"
d="M 43.7396,24.5800
43.8118,24.5884
43.9179,24.6352
43.9998,24.7171
44.0466,24.8232
44.0550,24.8954
44.0550,25.9046
44.0466,25.9768
43.9998,26.0829
43.9179,26.1648
43.8118,26.2116
43.7396,26.2200
42.6204,26.2200
42.5482,26.2116
42.4421,26.1648
42.3602,26.0829
42.3134,25.9768
42.3050,25.9046
42.3050,24.8954
42.3134,24.8232
42.3602,24.7171
42.4421,24.6352
42.5482,24.5884
42.6204,24.5800
Z" /> 
<path style="fill:#000000; fill-opacity:1.0000; stroke:none;fill-rule:evenodd;"
d="M 30.3550,13.7995
30.3628,13.7603
30.3850,13.7270
30.4183,13.7048
30.4575,13.6970
31.7225,13.6970
31.7617,13.7048
31.7950,13.7270
31.8172,13.7603
31.8250,13.7995
31.8250,14.0045
31.8172,14.0437
31.7950,14.0770
31.7617,14.0992
31.7225,14.1070
30.4575,14.1070
30.4183,14.0992
30.3850,14.0770
30.3628,14.0437
30.3550,14.0045
Z" /> 
<path style="fill:#000000; fill-opacity:1.0000; stroke:none;fill-rule:evenodd;"
d="M 30.3550,14.4495
30.3628,14.4103
30.3850,14.3770
30.4183,14.3548
30.4575,14.3470
31.7225,14.3470
31.7617,14.3548
31.7950,14.3770
31.8172,14.4103
31.8250,14.4495
31.8250,14.6545
31.8172,14.6937
31.7950,14.7270
31.7617,14.7492
31.7225,14.7570
30.4575,14.7570
30.4183,14.7492
30.3850,14.7270
30.3628,14.6937
30.3550,14.6545
Z" /> 
<path style="fill:#000000; fill-opacity:1.0000; stroke:none;fill-rule:evenodd;"
d="M 30.3550,15.0995
30.3628,15.0603
30.3850,15.0270
30.4183,15.0048
30.4575,14.9970
31.7225,14.9970
31.7617,15.0048
31.7950,15.0270
31.8172,15.0603
31.8250,15.0995
31.8250,15.3045
31.8172,15.3437
31.7950,15.3770
31.7617,15.3992
31.7225,15.4070
30.4575,15.4070
30.4183,15.3992
30.3850,15.3770
30.3628,15.3437
30.3550,15.3045
Z" /> 
<path style="fill:#000000; fill-opacity:1.0000; stroke:none;fill-rule:evenodd;"
d="M 30.3550,15.7495
30.3628,15.7103
30.3850,15.6770
30.4183,15.6548
30.4575,15.6470
31.7225,15.6470
31.7617,15.6548
31.7950,15.6770
31.8172,15.7103
31.8250,15.7495
31.8250,15.9545
31.8172,15.9937
31.7950,16.0270
31.7617,16.0492
31.7225,16.0570
30.4575,16.0570
30.4183,16.0492
30.3850,16.0270
30.3628,15.9937
30.3550,15.9545
Z" /> 
<path style="fill:#000000; fill-opacity:1.0000; stroke:none;fill-rule:evenodd;"
d="M 30.3550,16.3995
30.3628,16.3603
30.3850,16.3270
30.4183,16.3048
30.4575,16.2970
31.7225,16.2970
31.7617,16.3048
31.7950,16.3270
31.8172,16.3603
31.8250,16.3995
31.8250,16.6045
31.8172,16.6437
31.7950,16.6770
31.7617,16.6992
31.7225,16.7070
30.4575,16.7070
30.4183,16.6992
30.3850,16.6770
30.3628,16.6437
30.3550,16.6045
Z" /> 
<path style="fill:#000000; fill-opacity:1.0000; stroke:none;fill-rule:evenodd;"
d="M 30.3550,17.0495
30.3628,17.0103
30.3850,16.9770
30.4183,16.9548
30.4575,16.9470
31.7225,16.9470
31.7617,16.9548
31.7950,16.9770
31.8172,17.0103
31.8250,17.0495
31.8250,17.2545
31.8172,17.2937
31.7950,17.3270
31.7617,17.3492
31.7225,17.3570
30.4575,17.3570
30.4183,17.3492
30.3850,17.3270
30.3628,17.2937
30.3550,17.2545
Z" /> 
<path style="fill:#000000; fill-opacity:1.0000; stroke:none;fill-rule:evenodd;"
d="M 30.3550,17.6995
30.3628,17.6603
30.3850,17.6270
30.4183,17.6048
30.4575,17.5970
31.7225,17.5970
31.7617,17.6048
31.7950,17.6270
31.8172,17.6603
31.8250,17.6995
31.8250,17.9045
31.8172,17.9437
31.7950,17.9770
31.7617,17.9992
31.7225,18.0070
30.4575,18.0070
30.4183,17.9992
30.3850,17.9770
30.3628,17.9437
30.3550,17.9045
Z" /> 
<path style="fill:#000000; fill-opacity:1.0000; stroke:none;fill-rule:evenodd;"
d="M 30.3550,18.3495
30.3628,18.3103
30.3850,18.2770
30.4183,18.2548
30.4575,18.2470
31.7225,18.2470
31.7617,18.2548
31.7950,18.2770
31.8172,18.3103
31.8250,18.3495
31.8250,18.5545
31.8172,18.5937
31.7950,18.6270
31.7617,18.6492
31.7225,18.6570
30.4575,18.6570
30.4183,18.6492
30.3850,18.6270
30.3628,18.5937
30.3550,18.5545
Z" /> 
<path style="fill:#000000; fill-opacity:1.0000; stroke:none;fill-rule:evenodd;"
d="M 30.3550,18.9995
30.3628,18.9603
30.3850,18.9270
30.4183,18.9048
30.4575,18.8970
31.7225,18.8970
31.7617,18.9048
31.7950,18.9270
31.8172,18.9603
31.8250,18.9995
31.8250,19.2045
31.8172,19.2437
31.7950,19.2770
31.7617,19.2992
31.7225,19.3070
30.4575,19.3070
30.4183,19.2992
30.3850,19.2770
30.3628,19.2437
30.3550,19.2045
Z" /> 
<path style="fill:#000000; fill-opacity:1.0000; stroke:none;fill-rule:evenodd;"
d="M 30.3550,19.6495
30.3628,19.6103
30.3850,19.5770
30.4183,19.5548
30.4575,19.5470
31.7225,19.5470
31.7617,19.5548
31.7950,19.5770
31.8172,19.6103
31.8250,19.6495
31.8250,19.8545
31.8172,19.8937
31.7950,19.9270
31.7617,19.9492
31.7225,19.9570
30.4575,19.9570
30.4183,19.9492
30.3850,19.9270
30.3628,19.8937
30.3550,19.8545
Z" /> 
<path style="fill:#000000; fill-opacity:1.0000; stroke:none;fill-rule:evenodd;"
d="M 30.3550,20.2995
30.3628,20.2603
30.3850,20.2270
30.4183,20.2048
30.4575,20.1970
31.7225,20.1970
31.7617,20.2048
31.7950,20.2270
31.8172,20.2603
31.8250,20.2995
31.8250,20.5045
31.8172,20.5437
31.7950,20.5770
31.7617,20.5992
31.7225,20.6070
30.4575,20.6070
30.4183,20.5992
30.3850,20.5770
30.3628,20.5437
30.3550,20.5045
Z" /> 
<path style="fill:#000000; fill-opacity:1.0000; stroke:none;fill-rule:evenodd;"
d="M 30.3550,20.9495
30.3628,20.9103
30.3850,20.8770
30.4183,20.8548
30.4575,20.8470
31.7225,20.8470
31.7617,20.8548
31.7950,20.8770
31.8172,20.9103
31.8250,20.9495
31.8250,21.1545
31.8172,21.1937
31.7950,21.2270
31.7617,21.2492
31.7225,21.2570
30.4575,21.2570
30.4183,21.2492
30.3850,21.2270
30.3628,21.1937
30.3550,21.1545
Z" /> 
<path style="fill:#000000; fill-opacity:1.0000; stroke:none;fill-rule:evenodd;"
d="M 30.3550,21.5995
30.3628,21.5603
30.3850,21.5270
30.4183,21.5048
30.4575,21.4970
31.7225,21.4970
31.7617,21.5048
31.7950,21.5270
31.8172,21.5603
31.8250,21.5995
31.8250,21.8045
31.8172,21.8437
31.7950,21.8770
31.7617,21.8992
31.7225,21.9070
30.4575,21.9070
30.4183,21.8992
30.3850,21.8770
30.3628,21.8437
30.3550,21.8045
Z" /> 
<path style="fill:#000000; fill-opacity:1.0000; stroke:none;fill-rule:evenodd;"
d="M 30.3550,22.2495
30.3628,22.2103
30.3850,22.1770
30.4183,22.1548
30.4575,22.1470
31.7225,22.1470
31.7617,22.1548
31.7950,22.1770
31.8172,22.2103
31.8250,22.2495
31.8250,22.4545
31.8172,22.4937
31.7950,22.5270
31.7617,22.5492
31.7225,22.5570
30.4575,22.5570
30.4183,22.5492
30.3850,22.5270
30.3628,22.4937
30.3550,22.4545
Z" /> 
<path style="fill:#000000; fill-opacity:1.0000; stroke:none;fill-rule:evenodd;"
d="M 36.0950,22.2495
36.1028,22.2103
36.1250,22.1770
36.1583,22.1548
36.1975,22.1470
37.4625,22.1470
37.5017,22.1548
37.5350,22.1770
37.5572,22.2103
37.5650,22.2495
37.5650,22.4545
37.5572,22.4937
37.5350,22.5270
37.5017,22.5492
37.4625,22.5570
36.1975,22.5570
36.1583,22.5492
36.1250,22.5270
36.1028,22.4937
36.0950,22.4545
Z" /> 
<path style="fill:#000000; fill-opacity:1.0000; stroke:none;fill-rule:evenodd;"
d="M 36.0950,21.5995
36.1028,21.5603
36.1250,21.5270
36.1583,21.5048
36.1975,21.4970
37.4625,21.4970
37.5017,21.5048
37.5350,21.5270
37.5572,21.5603
37.5650,21.5995
37.5650,21.8045
37.5572,21.8437
37.5350,21.8770
37.5017,21.8992
37.4625,21.9070
36.1975,21.9070
36.1583,21.8992
36.1250,21.8770
36.1028,21.8437
36.0950,21.8045
Z" /> 
<path style="fill:#000000; fill-opacity:1.0000; stroke:none;fill-rule:evenodd;"
d="M 36.0950,20.9495
36.1028,20.9103
36.1250,20.8770
36.1583,20.8548
36.1975,20.8470
37.4625,20.8470
37.5017,20.8548
37.5350,20.8770
37.5572,20.9103
37.5650,20.9495
37.5650,21.1545
37.5572,21.1937
37.5350,21.2270
37.5017,21.2492
37.4625,21.2570
36.1975,21.2570
36.1583,21.2492
36.1250,21.2270
36.1028,21.1937
36.0950,21.1545
Z" /> 
<path style="fill:#000000; fill-opacity:1.0000; stroke:none;fill-rule:evenodd;"
d="M 36.0950,20.2995
36.1028,20.2603
36.1250,20.2270
36.1583,20.2048
36.1975,20.1970
37.4625,20.1970
37.5017,20.2048
37.5350,20.2270
37.5572,20.2603
37.5650,20.2995
37.5650,20.5045
37.5572,20.5437
37.5350,20.5770
37.5017,20.5992
37.4625,20.6070
36.1975,20.6070
36.1583,20.5992
36.1250,20.5770
36.1028,20.5437
36.0950,20.5045
Z" /> 
<path style="fill:#000000; fill-opacity:1.0000; stroke:none;fill-rule:evenodd;"
d="M 36.0950,19.6495
36.1028,19.6103
36.1250,19.5770
36.1583,19.5548
36.1975,19.5470
37.4625,19.5470
37.5017,19.5548
37.5350,19.5770
37.5572,19.6103
37.5650,19.6495
37.5650,19.8545
37.5572,19.8937
37.5350,19.9270
37.5017,19.9492
37.4625,19.9570
36.1975,19.9570
36.1583,19.9492
36.1250,19.9270
36.1028,19.8937
36.0950,19.8545
Z" /> 
<path style="fill:#000000; fill-opacity:1.0000; stroke:none;fill-rule:evenodd;"
d="M 36.0950,18.9995
36.1028,18.9603
36.1250,18.9270
36.1583,18.9048
36.1975,18.8970
37.4625,18.8970
37.5017,18.9048
37.5350,18.9270
37.5572,18.9603
37.5650,18.9995
37.5650,19.2045
37.5572,19.2437
37.5350,19.2770
37.5017,19.2992
37.4625,19.3070
36.1975,19.3070
36.1583,19.2992
36.1250,19.2770
36.1028,19.2437
36.0950,19.2045
Z" /> 
<path style="fill:#000000; fill-opacity:1.0000; stroke:none;fill-rule:evenodd;"
d="M 36.0950,18.3495
36.1028,18.3103
36.1250,18.2770
36.1583,18.2548
36.1975,18.2470
37.4625,18.2470
37.5017,18.2548
37.5350,18.2770
37.5572,18.3103
37.5650,18.3495
37.5650,18.5545
37.5572,18.5937
37.5350,18.6270
37.5017,18.6492
37.4625,18.6570
36.1975,18.6570
36.1583,18.6492
36.1250,18.6270
36.1028,18.5937
36.0950,18.5545
Z" /> 
<path style="fill:#000000; fill-opacity:1.0000; stroke:none;fill-rule:evenodd;"
d="M 36.0950,17.6995
36.1028,17.6603
36.1250,17.6270
36.1583,17.6048
36.1975,17.5970
37.4625,17.5970
37.5017,17.6048
37.5350,17.6270
37.5572,17.6603
37.5650,17.6995
37.5650,17.9045
37.5572,17.9437
37.5350,17.9770
37.5017,17.9992
37.4625,18.0070
36.1975,18.0070
36.1583,17.9992
36.1250,17.9770
36.1028,17.9437
36.0950,17.9045
Z" /> 
<path style="fill:#000000; fill-opacity:1.0000; stroke:none;fill-rule:evenodd;"
d="M 36.0950,17.0495
36.1028,17.0103
36.1250,16.9770
36.1583,16.9548
36.1975,16.9470
37.4625,16.9470
37.5017,16.9548
37.5350,16.9770
37.5572,17.0103
37.5650,17.0495
37.5650,17.2545
37.5572,17.2937
37.5350,17.3270
37.5017,17.3492
37.4625,17.3570
36.1975,17.3570
36.1583,17.3492
36.1250,17.3270
36.1028,17.2937
36.0950,17.2545
Z" /> 
<path style="fill:#000000; fill-opacity:1.0000; stroke:none;fill-rule:evenodd;"
d="M 36.0950,16.3995
36.1028,16.3603
36.1250,16.3270
36.1583,16.3048
36.1975,16.2970
37.4625,16.2970
37.5017,16.3048
37.5350,16.3270
37.5572,16.3603
37.5650,16.3995
37.5650,16.6045
37.5572,16.6437
37.5350,16.6770
37.5017,16.6992
37.4625,16.7070
36.1975,16.7070
36.1583,16.6992
36.1250,16.6770
36.1028,16.6437
36.0950,16.6045
Z" /> 
<path style="fill:#000000; fill-opacity:1.0000; stroke:none;fill-rule:evenodd;"
d="M 36.0950,15.7495
36.1028,15.7103
36.1250,15.6770
36.1583,15.6548
36.1975,15.6470
37.4625,15.6470
37.5017,15.6548
37.5350,15.6770
37.5572,15.7103
37.5650,15.7495
37.5650,15.9545
37.5572,15.9937
37.5350,16.0270
37.5017,16.0492
37.4625,16.0570
36.1975,16.0570
36.1583,16.0492
36.1250,16.0270
36.1028,15.9937
36.0950,15.9545
Z" /> 
<path style="fill:#000000; fill-opacity:1.0000; stroke:none;fill-rule:evenodd;"
d="M 36.0950,15.0995
36.1028,15.0603
36.1250,15.0270
36.1583,15.0048
36.1975,14.9970
37.4625,14.9970
37.5017,15.0048
37.5350,15.0270
37.5572,15.0603
37.5650,15.0995
37.5650,15.3045
37.5572,15.3437
37.5350,15.3770
37.5017,15.3992
37.4625,15.4070
36.1975,15.4070
36.1583,15.3992
36.1250,15.3770
36.1028,15.3437
36.0950,15.3045
Z" /> 
<path style="fill:#000000; fill-opacity:1.0000; stroke:none;fill-rule:evenodd;"
d="M 36.0950,14.4495
36.1028,14.4103
36.1250,14.3770
36.1583,14.3548
36.1975,14.3470
37.4625,14.3470
37.5017,14.3548
37.5350,14.3770
37.5572,14.4103
37.5650,14.4495
37.5650,14.6545
37.5572,14.6937
37.5350,14.7270
37.5017,14.7492
37.4625,14.7570
36.1975,14.7570
36.1583,14.7492
36.1250,14.7270
36.1028,14.6937
36.0950,14.6545
Z" /> 
<path style="fill:#000000; fill-opacity:1.0000; stroke:none;fill-rule:evenodd;"
d="M 36.0950,13.7995
36.1028,13.7603
36.1250,13.7270
36.1583,13.7048
36.1975,13.6970
37.4625,13.6970
37.5017,13.7048
37.5350,13.7270
37.5572,13.7603
37.5650,13.7995
37.5650,14.0045
37.5572,14.0437
37.5350,14.0770
37.5017,14.0992
37.4625,14.1070
36.1975,14.1070
36.1583,14.0992
36.1250,14.0770
36.1028,14.0437
36.0950,14.0045
Z" /> 
<path style="fill:#000000; fill-opacity:1.0000; stroke:none;fill-rule:evenodd;"
d="M 54.3400,9.3780
52.3400,9.3780
52.3400,6.8780
54.3400,6.8780
Z" /> 
</g>
<g style="fill:none; 
stroke:#000000; stroke-width:2.0000; stroke-opacity:1; 
stroke-linecap:round; stroke-linejoin:round;">
<path d="M50.8000 8.3780
L50.8000 7.8780
" />
<path d="M48.2600 8.3780
L48.2600 7.8780
" />
<path d="M45.7200 8.3780
L45.7200 7.8780
" />
<path d="M43.1800 8.3780
L43.1800 7.8780
" />
<path d="M40.6400 8.3780
L40.6400 7.8780
" />
<path d="M38.1000 8.3780
L38.1000 7.8780
" />
<path style="fill:#000000; fill-opacity:1.0000; stroke:none;fill-rule:evenodd;"
d="M 36.4100,9.3780
34.7100,9.3780
34.7100,6.8780
36.4100,6.8780
Z" /> 
<path style="fill:#000000; fill-opacity:1.0000; stroke:none;fill-rule:evenodd;"
d="M 33.8700,9.3780
32.1700,9.3780
32.1700,6.8780
33.8700,6.8780
Z" /> 
</g>
<g style="fill:none; 
stroke:#000000; stroke-width:2.0000; stroke-opacity:1; 
stroke-linecap:round; stroke-linejoin:round;">
<path d="M30.4800 8.3780
L30.4800 7.8780
" />
<path d="M27.9400 8.3780
L27.9400 7.8780
" />
<path d="M25.4000 8.3780
L25.4000 7.8780
" />
<path d="M22.8600 8.3780
L22.8600 7.8780
" />
<path d="M20.3200 8.3780
L20.3200 7.8780
" />
<path d="M17.7800 8.3780
L17.7800 7.8780
" />
<path d="M15.2400 8.3780
L15.2400 7.8780
" />
<path style="fill:#000000; fill-opacity:1.0000; stroke:none;fill-rule:evenodd;"
d="M 24.4000,27.1980
26.4000,27.1980
26.4000,29.6980
24.4000,29.6980
Z" /> 
</g>
<g style="fill:none; 
stroke:#000000; stroke-width:2.0000; stroke-opacity:1; 
stroke-linecap:round; stroke-linejoin:round;">
<path d="M27.9400 28.1980
L27.9400 28.6980
" />
<path d="M30.4800 28.1980
L30.4800 28.6980
" />
<path d="M33.0200 28.1980
L33.0200 28.6980
" />
<path d="M35.5600 28.1980
L35.5600 28.6980
" />
<path d="M38.1000 28.1980
L38.1000 28.6980
" />
<path d="M40.6400 28.1980
L40.6400 28.6980
" />
<path d="M43.1800 28.1980
L43.1800 28.6980
" />
</g>
<g style="fill:none; 
stroke:#000000; stroke-width:0.3500; stroke-opacity:1; 
stroke-linecap:round; stroke-linejoin:round;">
<path d="M29.4579 12.4521 A1.7137 1.7137 0.0 0 0 28.9560 13.6638" />
<path d="M32.7506 9.1594 A0.9198 0.9198 0.0 0 0 33.0200 8.5090" />
</g>
<g style="fill:none; 
stroke:#000000; stroke-width:0.2000; stroke-opacity:1; 
stroke-linecap:round; stroke-linejoin:round;">
<path d="M53.3377 9.6497 A0.0077 0.0077 0.0 0 0 53.3400 9.6443" />
</g>
<g style="fill:none; 
stroke:#000000; stroke-width:0.3500; stroke-opacity:1; 
stroke-linecap:round; stroke-linejoin:round;">
<path d="M27.1318 11.2222 A2.7594 2.7594 0.0 0 0 27.9400 9.2710" />
<path d="M26.6083 11.7457 A1.5239 1.5239 0.0 0 0 26.1620 12.8232" />
<path d="M28.2050 11.9270 A1.7721 1.7721 0.0 0 0 27.6860 13.1800" />
<path d="M29.9412 10.1908 A1.8396 1.8396 0.0 0 0 30.4800 8.8900" />
<path d="M41.4020 11.9380 A1.2264 1.2264 0.0 0 0 41.0428 11.0708" />
<path d="M43.1800 9.1132 A1.3008 1.3008 0.0 0 0 43.5610 10.0330" />
<path d="M43.9420 10.9528 A1.3008 1.3008 0.0 0 0 43.5610 10.0330" />
<path d="M22.7343 10.7937 A0.4292 0.4292 0.0 0 0 22.6086 11.0972" />
<path d="M22.7343 10.7937 A0.4292 0.4292 0.0 0 0 22.8600 10.4902" />
<path d="M24.3840 11.6823 A0.0041 0.0041 0.0 0 0 24.3852 11.6852" />
<path d="M24.8920 10.9220 A1.7344 1.7344 0.0 0 0 25.4000 9.6956" />
<path d="M24.3864 11.6881 A0.0041 0.0041 0.0 0 0 24.3852 11.6852" />
<path d="M24.4738 11.3402 A0.3066 0.3066 0.0 0 0 24.3840 11.5570" />
<path d="M42.6720 11.5508 A1.5181 1.5181 0.0 0 0 42.2274 10.4774" />
<path d="M40.6400 8.5090 A0.9198 0.9198 0.0 0 0 40.9094 9.1594" />
<path d="M40.1320 12.5095 A0.7665 0.7665 0.0 0 0 39.9075 11.9675" />
<path d="M36.0680 10.4140 A1.7344 1.7344 0.0 0 0 37.2944 10.9220" />
<path d="M39.4970 11.5570 A2.1680 2.1680 0.0 0 0 37.9640 10.9220" />
<path d="M35.5600 9.1876 A1.7344 1.7344 0.0 0 0 36.0680 10.4140" />
<path d="M31.3690 30.0990 A1.3008 1.3008 0.0 0 0 31.7500 29.1792" />
<path d="M30.4492 30.4800 A1.3008 1.3008 0.0 0 0 31.3690 30.0990" />
<path d="M28.1940 30.2260 A0.8672 0.8672 0.0 0 0 28.8072 30.4800" />
<path d="M27.9400 29.6128 A0.8672 0.8672 0.0 0 0 28.1940 30.2260" />
<path d="M27.9400 27.6860
L27.9400 28.4480
" />
<path d="M35.0956 11.2196 A2.4528 2.4528 0.0 0 0 36.8300 11.9380" />
<path d="M38.6080 13.1292 A1.0363 1.0363 0.0 0 0 38.3045 12.3965" />
<path d="M38.2270 12.3190 A1.3008 1.3008 0.0 0 0 37.3072 11.9380" />
<path d="M34.2900 9.3364 A2.6016 2.6016 0.0 0 0 35.0520 11.1760" />
<path d="M24.8513 16.8582 A5.4416 5.4416 0.0 0 0 28.6991 18.4520" />
<path d="M22.6086 12.5964 A5.4608 5.4608 0.0 0 0 24.1998 16.2067" />
<path d="M28.6991 18.4520
L31.0900 18.4520
" />
<path d="M22.8600 10.4902
L22.8600 8.1280
" />
<path d="M24.8513 16.8582
L24.1998 16.2067
" />
<path d="M22.6086 11.0972
L22.6086 12.5964
" />
<path d="M26.1685 16.5165 A4.3890 4.3890 0.0 0 0 29.2720 17.8020" />
<path d="M24.3864 12.7899 A5.2597 5.2597 0.0 0 0 25.9190 16.2670" />
<path d="M29.2720 17.8020
L31.0900 17.8020
" />
<path d="M25.9190 16.2670
L26.1685 16.5165
" />
<path d="M24.3864 12.7899
L24.3864 11.6881
" />
<path d="M25.4000 9.6956
L25.4000 8.1280
" />
<path d="M24.3840 11.6823
L24.3840 11.5570
" />
<path d="M24.8920 10.9220
L24.4738 11.3402
" />
<path d="M38.3170 14.2610 A0.9935 0.9935 0.0 0 0 38.6080 13.5585" />
<path d="M37.6145 14.5520 A0.9935 0.9935 0.0 0 0 38.3170 14.2610" />
<path d="M34.2900 9.3364
L34.2900 5.0800
" />
<path d="M35.0956 11.2196
L35.0520 11.1760
" />
<path d="M36.8300 11.9380
L37.3072 11.9380
" />
<path d="M37.6145 14.5520
L36.8300 14.5520
" />
<path d="M38.3045 12.3965
L38.2270 12.3190
" />
<path d="M38.6080 13.5585
L38.6080 13.1292
" />
<path d="M40.5040 14.6140 A3.0661 3.0661 0.0 0 0 41.4020 12.4460" />
<path d="M38.0480 15.8520 A2.9405 2.9405 0.0 0 0 40.1273 14.9907" />
<path d="M41.0428 11.0708
L38.1000 8.1280
" />
<path d="M41.4020 12.4460
L41.4020 11.9380
" />
<path d="M40.1273 14.9907
L40.5040 14.6140
" />
<path d="M38.0480 15.8520
L36.8300 15.8520
" />
<path d="M37.7380 15.2020 A2.1921 2.1921 0.0 0 0 39.2881 14.5599" />
<path d="M39.5034 14.3446 A2.1462 2.1462 0.0 0 0 40.1320 12.8270" />
<path d="M35.5600 9.1876
L35.5600 8.1280
" />
<path d="M37.7380 15.2020
L36.8300 15.2020
" />
<path d="M39.5034 14.3446
L39.2881 14.5599
" />
<path d="M40.1320 12.5095
L40.1320 12.8270
" />
<path d="M39.9075 11.9675
L39.4970 11.5570
" />
<path d="M37.2944 10.9220
L37.9640 10.9220
" />
</g>
<g style="fill:none; 
stroke:#000000; stroke-width:0.2000; stroke-opacity:1; 
stroke-linecap:round; stroke-linejoin:round;">
<path d="M53.3400 9.6443
L53.3400 8.1280
" />
<path d="M53.3377 9.6497
L53.3355 9.6520
" />
</g>
<g style="fill:none; 
stroke:#000000; stroke-width:0.3500; stroke-opacity:1; 
stroke-linecap:round; stroke-linejoin:round;">
<path d="M50.8000 10.4460
L50.8000 8.1280
" />
<path d="M48.2600 11.2080
L48.2600 8.1280
" />
<path d="M45.7200 11.9700
L45.7200 8.1280
" />
<path d="M43.9420 12.1536
L43.9420 10.9528
" />
<path d="M43.1800 9.1132
L43.1800 8.1280
" />
<path d="M38.4850 16.5020 A3.9955 3.9955 0.0 0 0 41.3103 15.3317" />
<path d="M41.4060 15.2360 A4.3224 4.3224 0.0 0 0 42.6720 12.1796" />
<path d="M38.4850 16.5020
L36.8300 16.5020
" />
<path d="M41.3103 15.3317
L41.4060 15.2360
" />
<path d="M42.6720 11.5508
L42.6720 12.1796
" />
<path d="M42.2274 10.4774
L40.9094 9.1594
" />
<path d="M40.6400 8.5090
L40.6400 8.1280
" />
<path d="M28.5345 15.8345 A2.2790 2.2790 0.0 0 0 30.1460 16.5020" />
<path d="M30.4800 8.8900
L30.4800 8.1280
" />
<path d="M27.6860 13.9140 A2.5880 2.5880 0.0 0 0 28.4440 15.7440" />
<path d="M30.1460 16.5020
L31.0900 16.5020
" />
<path d="M28.4440 15.7440
L28.5345 15.8345
" />
<path d="M27.6860 13.1800
L27.6860 13.9140
" />
<path d="M28.2050 11.9270
L29.9412 10.1908
" />
<path d="M29.4579 12.4521
L32.7506 9.1594
" />
<path d="M33.0200 8.5090
L33.0200 8.1280
" />
<path d="M27.1318 11.2222
L26.6083 11.7457
" />
<path d="M26.1620 13.4544
L26.1620 12.8232
" />
<path d="M27.9400 9.2710
L27.9400 8.1280
" />
<path d="M20.3200 11.9700
L20.3200 8.1280
" />
<path d="M17.7800 11.4620
L17.7800 8.1280
" />
<path d="M15.2400 11.4620
L15.2400 8.1280
" />
<path d="M30.7852 21.0520
L30.9270 21.0520
" />
<path d="M30.9270 21.0520
L29.7150 21.0520
" />
<path d="M27.3677 22.0243
L25.0080 24.3840
" />
<path d="M30.7490 21.0670
L30.7340 21.0820
" />
<path d="M30.7852 21.0520 A0.0512 0.0512 0.0 0 0 30.7490 21.0670" />
<path d="M29.7150 21.0520 A3.3195 3.3195 0.0 0 0 27.3677 22.0243" />
</g>
<g style="fill:#000000; fill-opacity:1.0000; stroke:none;">
<circle cx="30.9270" cy="21.0520" r="0.1750" /> 
</g>
<g style="fill:none; 
stroke:#000000; stroke-width:0.3500; stroke-opacity:1; 
stroke-linecap:round; stroke-linejoin:round;">
<path d="M39.7360 21.9560
L39.5398 21.7598
" />
<path d="M40.6400 24.1384
L40.6400 28.4480
" />
<path d="M37.8310 21.0520
L36.8300 21.0520
" />
<path d="M40.6400 24.1384 A3.0864 3.0864 0.0 0 0 39.7360 21.9560" />
<path d="M39.5398 21.7598 A2.4166 2.4166 0.0 0 0 37.8310 21.0520" />
<path d="M35.9936 22.3520
L36.8300 22.3520
" />
<path d="M35.5600 22.7856
L35.5600 28.4480
" />
<path d="M35.9936 22.3520 A0.4336 0.4336 0.0 0 0 35.6870 22.4790" />
<path d="M35.6870 22.4790 A0.4336 0.4336 0.0 0 0 35.5600 22.7856" />
<path d="M30.4800 23.3933
L30.4800 28.4480
" />
<path d="M30.7850 22.6570
L31.0900 22.3520
" />
<path d="M30.7850 22.6570 A1.0413 1.0413 0.0 0 0 30.4800 23.3933" />
<path d="M35.7069 13.9020
L36.8300 13.9020
" />
<path d="M33.0200 26.5520
L33.0200 28.4480
" />
<path d="M34.2900 23.4860
L34.2900 15.3189
" />
<path d="M35.7069 13.9020 A1.4169 1.4169 0.0 0 0 34.7050 14.3170" />
<path d="M33.6550 25.0190 A2.1680 2.1680 0.0 0 0 33.0200 26.5520" />
<path d="M34.7050 14.3170 A1.4169 1.4169 0.0 0 0 34.2900 15.3189" />
<path d="M33.6550 25.0190 A2.1680 2.1680 0.0 0 0 34.2900 23.4860" />
<path d="M43.1800 25.4000
L43.1800 28.4480
" />
<path d="M27.9400 27.2832
L27.9400 27.6860
" />
<path d="M31.7500 29.1792
L31.7500 25.7900
" />
<path d="M27.9400 28.4480
L27.9400 28.8290
" />
<path d="M30.4492 30.4800
L28.8072 30.4800
" />
<path d="M27.9400 29.6128
L27.9400 28.4480
" />
<path d="M28.4480 26.0568
L28.4480 24.3840
" />
<path d="M32.0367 13.9020
L31.0900 13.9020
" />
<path d="M33.0200 22.7240
L33.0200 14.8853
" />
<path d="M28.1940 26.6700 A0.8672 0.8672 0.0 0 0 27.9400 27.2832" />
<path d="M32.7320 14.1900 A0.9833 0.9833 0.0 0 0 32.0367 13.9020" />
<path d="M28.1940 26.6700 A0.8672 0.8672 0.0 0 0 28.4480 26.0568" />
<path d="M33.0200 14.8853 A0.9833 0.9833 0.0 0 0 32.7320 14.1900" />
<path d="M32.3850 24.2570 A2.1680 2.1680 0.0 0 0 33.0200 22.7240" />
<path d="M32.3850 24.2570 A2.1680 2.1680 0.0 0 0 31.7500 25.7900" />
<path d="M38.6080 22.3780
L38.6080 25.2948
" />
<path d="M38.1000 26.5212
L38.1000 28.4480
" />
<path d="M37.9320 21.7020
L36.8300 21.7020
" />
<path d="M38.3540 25.9080 A0.8672 0.8672 0.0 0 0 38.1000 26.5212" />
<path d="M38.4100 21.9000 A0.6760 0.6760 0.0 0 0 37.9320 21.7020" />
<path d="M38.3540 25.9080 A0.8672 0.8672 0.0 0 0 38.6080 25.2948" />
<path d="M38.6080 22.3780 A0.6760 0.6760 0.0 0 0 38.4100 21.9000" />
<path d="M43.7358 16.2082
L44.1262 15.8178
" />
<path d="M39.8880 17.8020
L36.8300 17.8020
" />
<path d="M39.8880 17.8020 A5.4416 5.4416 0.0 0 0 43.7358 16.2082" />
<path d="M44.1262 15.8178 A5.4416 5.4416 0.0 0 0 45.7200 11.9700" />
<path d="M24.8920 7.3660
L25.4000 6.8580
" />
<path d="M46.6662 15.0558
L44.8638 16.8582
" />
<path d="M41.0160 18.4520
L36.8300 18.4520
" />
<path d="M46.6662 15.0558 A5.4416 5.4416 0.0 0 0 48.2600 11.2080" />
<path d="M41.0160 18.4520 A5.4416 5.4416 0.0 0 0 44.8638 16.8582" />
<path d="M21.9138 15.8178
L23.6042 17.5082
" />
<path d="M27.4520 19.1020
L31.0900 19.1020
" />
<path d="M23.6042 17.5082 A5.4416 5.4416 0.0 0 0 27.4520 19.1020" />
<path d="M20.3200 11.9700 A5.4416 5.4416 0.0 0 0 21.9138 15.8178" />
<path d="M26.0700 19.7520
L31.0900 19.7520
" />
<path d="M22.2222 18.1582
L19.3738 15.3098
" />
<path d="M22.2222 18.1582 A5.4416 5.4416 0.0 0 0 26.0700 19.7520" />
<path d="M17.7800 11.4620 A5.4416 5.4416 0.0 0 0 19.3738 15.3098" />
<path d="M38.9436 17.1520
L36.8300 17.1520
" />
<path d="M38.9436 17.1520 A4.9984 4.9984 0.0 0 0 42.4780 15.6880" />
<path d="M42.4780 15.6880 A4.9984 4.9984 0.0 0 0 43.9420 12.1536" />
<path d="M42.1440 19.1020
L36.8300 19.1020
" />
<path d="M45.9918 17.5082
L49.2062 14.2938
" />
<path d="M49.2062 14.2938 A5.4416 5.4416 0.0 0 0 50.8000 10.4460" />
<path d="M42.1440 19.1020 A5.4416 5.4416 0.0 0 0 45.9918 17.5082" />
<path d="M29.7090 17.1520
L31.0900 17.1520
" />
<path d="M27.2450 16.0690
L27.3515 16.1755
" />
<path d="M27.3515 16.1755 A3.3340 3.3340 0.0 0 0 29.7090 17.1520" />
<path d="M26.1620 13.4544 A3.6976 3.6976 0.0 0 0 27.2450 16.0690" />
<path d="M43.0180 19.7520
L36.8300 19.7520
" />
<path d="M46.8658 18.1582
L51.7462 13.2778
" />
<path d="M51.7462 13.2778 A5.4416 5.4416 0.0 0 0 53.3400 9.4300" />
<path d="M43.0180 19.7520 A5.4416 5.4416 0.0 0 0 46.8658 18.1582" />
<path d="M16.8338 15.3098
L20.3322 18.8082
" />
<path d="M24.1800 20.4020
L31.0900 20.4020
" />
<path d="M15.2400 11.4620 A5.4416 5.4416 0.0 0 0 16.8338 15.3098" />
<path d="M20.3322 18.8082 A5.4416 5.4416 0.0 0 0 24.1800 20.4020" />
<path d="M30.4344 15.8520
L31.0900 15.8520
" />
<path d="M28.9560 13.6638
L28.9560 14.3736
" />
<path d="M28.9560 14.3736 A1.4784 1.4784 0.0 0 0 29.3890 15.4190" />
<path d="M29.3890 15.4190 A1.4784 1.4784 0.0 0 0 30.4344 15.8520" />
<path d="M39.1123 20.4020
L36.8300 20.4020
" />
<path d="M42.4760 21.9600
L43.1800 21.9600
" />
<path d="M40.9930 21.1810
L41.2742 21.4622
" />
<path d="M41.2742 21.4622 A1.6996 1.6996 0.0 0 0 42.4760 21.9600" />
<path d="M40.9930 21.1810 A2.6597 2.6597 0.0 0 0 39.1123 20.4020" />
<path style="fill:#000000; fill-opacity:1.0000; stroke:none;fill-rule:evenodd;"
d="M 34.3494,9.7349
34.3643,9.7444
34.4677,9.8218
34.4677,9.8218
34.4677,9.8218
34.4926,9.8311
34.6025,9.8721
34.6621,9.8785
34.8950,9.8785
34.9620,9.8982
35.0078,9.9510
35.0120,9.9615
35.0644,10.1113
35.0644,10.1113
35.1819,10.3551
35.2189,10.4141
35.3214,10.5772
35.3259,10.5843
35.3259,10.5843
35.4946,10.7959
35.5322,10.8335
35.5322,10.8335
35.5540,10.8553
35.5540,10.8554
35.5903,10.8917
35.5903,10.8917
35.6860,10.9874
35.8177,11.0923
35.8977,11.1561
36.1269,11.3001
36.2575,11.3630
36.3707,11.4176
36.6262,11.5070
36.8901,11.5672
36.8901,11.5672
36.8901,11.5672
36.9778,11.5771
37.1591,11.5975
37.2944,11.5975
37.8879,11.5975
37.8879,11.5975
37.9599,11.5975
37.9680,11.5978
38.1507,11.6097
38.1668,11.6119
38.3423,11.6468
38.3580,11.6510
38.5275,11.7085
38.5424,11.7147
38.7030,11.7939
38.7170,11.8020
38.8658,11.9014
38.8787,11.9113
39.0162,12.0319
39.0221,12.0374
39.0503,12.0656
39.3717,12.3870
39.3717,12.3870
39.4202,12.4355
39.4537,12.4968
39.4565,12.5232
39.4565,12.8229
39.4562,12.8310
39.4444,13.0109
39.4423,13.0269
39.4080,13.1997
39.4038,13.2153
39.3472,13.3821
39.3410,13.3971
39.2631,13.5551
39.2549,13.5691
39.1571,13.7156
39.1472,13.7284
39.0283,13.8640
39.0228,13.8699
38.9719,13.9208
38.9719,13.9208
38.8642,14.0285
38.8642,14.0285
38.8133,14.0794
38.8074,14.0850
38.6674,14.2077
38.6545,14.2176
38.5031,14.3188
38.4890,14.3269
38.3257,14.4075
38.3107,14.4137
38.2190,14.4448
38.1492,14.4477
38.0889,14.4124
38.0573,14.3501
38.0562,14.3435
38.0495,14.2922
38.0495,14.2922
38.0424,14.2751
38.0349,14.2056
38.0424,14.1802
38.0500,14.1619
38.0655,14.0440
38.0655,13.7600
38.0650,13.7563
38.0500,13.6421
38.0500,13.6421
38.0500,13.6421
38.0030,13.5286
37.9892,13.4954
37.9892,13.4954
37.9892,13.4954
37.8926,13.3694
37.7666,13.2728
37.7666,13.2728
37.7666,13.2728
37.6718,13.2335
37.6199,13.2120
37.5020,13.1965
36.1580,13.1965
36.0401,13.2120
36.0401,13.2120
36.0279,13.2171
35.9805,13.2265
35.5894,13.2265
35.3559,13.2528
35.3559,13.2528
35.1267,13.3051
35.1267,13.3051
34.9049,13.3827
34.6932,13.4847
34.4942,13.6097
34.3104,13.7563
34.2637,13.8030
34.2274,13.8393
34.1817,13.8850
34.1817,13.8850
34.1443,13.9224
34.1443,13.9224
33.9977,14.1062
33.9977,14.1062
33.8727,14.3052
33.8416,14.3698
33.7947,14.4217
33.7273,14.4400
33.6607,14.4189
33.6160,14.3652
33.6124,14.3547
33.6121,14.3548
33.6108,14.3509
33.6020,14.3297
33.5276,14.1501
33.5276,14.1500
33.5276,14.1500
33.4189,13.9617
33.4189,13.9617
33.3738,13.9030
33.2865,13.7892
33.2865,13.7892
33.2527,13.7554
33.2527,13.7554
33.2097,13.7123
33.1520,13.6547
33.1520,13.6547
33.1328,13.6355
33.1328,13.6355
33.0992,13.6097
32.9603,13.5031
32.9603,13.5031
32.9603,13.5031
32.7720,13.3944
32.7719,13.3944
32.5711,13.3112
32.4278,13.2728
32.3610,13.2549
32.3610,13.2549
32.3610,13.2549
32.1454,13.2265
32.1032,13.2265
32.1032,13.2265
31.9395,13.2265
31.8921,13.2171
31.8799,13.2120
31.8799,13.2120
31.8799,13.2120
31.7620,13.1965
30.4180,13.1965
30.3001,13.2120
30.3001,13.2120
30.1534,13.2728
30.0736,13.3340
30.0274,13.3694
29.9390,13.4847
29.9308,13.4954
29.8773,13.6246
29.8334,13.6790
29.7671,13.7011
29.6994,13.6838
29.6518,13.6326
29.6391,13.5674
29.6401,13.5551
29.6435,13.5111
29.6466,13.4919
29.6800,13.3525
29.6860,13.3340
29.7409,13.2015
29.7497,13.1842
29.8247,13.0619
29.8361,13.0462
29.9322,12.9336
29.9388,12.9265
32.9505,9.9148
33.0118,9.8813
33.0382,9.8785
33.9179,9.8785
33.9179,9.8785
33.9775,9.8721
34.1123,9.8218
34.2157,9.7444
34.2812,9.7200
Z" /> 
<path style="fill:#000000; fill-opacity:1.0000; stroke:none;fill-rule:evenodd;"
d="M 56.0845,4.8382
56.1303,4.8910
56.1415,4.9425
56.1415,18.6005
56.1218,18.6675
56.0690,18.7133
56.0175,18.7245
50.6259,18.7245
50.6259,21.5401
56.0175,21.5401
56.0845,21.5597
56.1303,21.6125
56.1415,21.6641
56.1415,23.1736
56.1218,23.2406
56.0690,23.2864
56.0175,23.2976
52.8639,23.2976
52.8601,23.2965
52.8114,23.2965
49.2130,23.2965
49.1709,23.2965
49.1605,23.2976
45.9110,23.2976
45.9110,26.1121
56.0175,26.1121
56.0845,26.1317
56.1303,26.1845
56.1415,26.2361
56.1415,28.7608
56.1218,28.8278
56.0690,28.8736
56.0175,28.8848
52.7310,28.8848
52.7310,31.3795
52.7113,31.4465
52.6585,31.4923
52.6070,31.5035
13.8752,31.5035
13.8081,31.4838
13.7624,31.4310
13.7512,31.3795
13.7512,28.8856
11.5465,28.8856
11.4795,28.8659
11.4337,28.8131
11.4225,28.7616
11.4225,25.8581
14.1610,25.8581
20.0486,25.8581
20.1067,25.8263
20.1764,25.8313
20.2180,25.8581
20.2190,25.8581
22.3899,25.8581
22.3899,25.0200
23.6880,25.0200
23.7033,25.1558
23.7033,25.1558
23.7635,25.3280
23.8606,25.4824
23.9896,25.6114
24.1440,25.7085
24.3162,25.7687
24.3162,25.7687
24.4520,25.7840
24.4520,25.7840
24.7580,25.7840
24.7580,24.6340
23.6880,24.6340
23.6880,25.0200
22.3899,25.0200
22.3899,23.7480
23.6880,23.7480
23.6880,24.1340
24.7580,24.1340
24.7580,22.9840
24.4520,22.9840
24.3162,22.9993
24.3162,22.9993
24.1440,23.0595
23.9896,23.1566
23.8606,23.2856
23.7635,23.4400
23.7033,23.6122
23.7033,23.6122
23.6880,23.7480
22.3899,23.7480
22.3899,23.0436
20.2190,23.0436
20.2175,23.0436
20.1594,23.0753
20.0898,23.0703
20.0481,23.0436
20.0472,23.0436
16.4754,23.0436
14.1610,23.0436
14.1610,25.8581
11.4225,25.8581
11.4225,21.9181
11.4422,21.8510
11.4950,21.8053
11.5465,21.7941
18.3957,21.7941
18.3957,18.9785
11.5465,18.9785
11.4795,18.9588
11.4337,18.9060
11.4225,18.8545
11.4225,7.7599
13.7395,7.7599
13.7395,8.4961
13.7764,8.7294
13.8494,8.9540
13.9567,9.1644
14.0955,9.3555
14.2625,9.5225
14.3882,9.6139
14.4536,9.6613
14.4968,9.6834
14.5476,9.7313
14.5645,9.7939
14.5645,11.4107
14.5645,11.4107
14.5645,11.6805
14.5957,12.1163
14.6579,12.5488
14.7507,12.9758
14.8474,13.3051
14.8738,13.3950
15.0243,13.7983
15.0265,13.8044
15.2080,14.2019
15.2080,14.2019
15.4174,14.5854
15.4175,14.5854
15.6537,14.9529
15.6537,14.9530
15.9155,15.3027
15.9513,15.3440
16.2017,15.6330
16.2017,15.6330
16.3060,15.7373
16.3060,15.7373
16.3387,15.7700
16.3387,15.7700
16.3834,15.8147
16.3834,15.8147
19.9061,19.3374
19.9062,19.3375
20.0090,19.4403
20.0701,19.4932
20.3393,19.7265
20.6890,19.9883
20.6891,19.9883
21.0566,20.2245
21.4401,20.4339
21.8376,20.6155
22.2470,20.7682
22.5325,20.8520
22.6662,20.8913
23.0932,20.9841
23.0932,20.9841
23.0932,20.9841
23.5257,21.0463
23.9303,21.0753
23.9615,21.0775
23.9615,21.0775
24.1058,21.0775
24.1058,21.0775
24.1134,21.0775
24.1800,21.0775
24.2561,21.0775
29.7312,21.0775
29.7983,21.0972
29.8440,21.1500
29.8541,21.1900
29.8545,21.1900
29.8549,21.1931
29.8550,21.1934
29.8550,21.1940
29.8705,21.3118
29.8776,21.3289
29.8851,21.3984
29.8776,21.4238
29.8700,21.4421
29.8545,21.5600
29.8545,21.8440
29.8700,21.9619
29.8700,21.9619
29.8773,21.9795
29.8848,22.0490
29.8773,22.0744
29.8700,22.0921
29.8700,22.0921
29.8545,22.2100
29.8545,22.4940
29.8700,22.6119
29.8700,22.6119
29.9055,22.6975
29.9087,22.7053
29.9162,22.7748
29.9087,22.8002
29.8921,22.8403
29.8339,23.0577
29.8226,23.1429
29.8125,23.2201
29.7842,23.2840
29.7259,23.3225
29.6560,23.3233
29.6016,23.2893
29.6007,23.2902
29.4667,23.1562
29.3122,23.0591
29.1399,22.9988
29.1399,22.9988
29.0041,22.9835
29.0041,22.9835
27.8919,22.9835
27.8919,22.9835
27.7561,22.9988
27.7561,22.9988
27.5838,23.0591
27.4293,23.1562
27.3002,23.2853
27.2847,23.3100
27.2323,23.3563
27.1797,23.3680
26.2757,23.3680
26.2087,23.3483
26.1707,23.3100
26.1554,23.2856
26.1554,23.2856
26.0264,23.1566
25.8720,23.0595
25.6998,22.9993
25.6998,22.9993
25.5640,22.9840
25.2580,22.9840
25.2580,25.7840
25.5640,25.7840
25.5640,25.7840
25.6998,25.7687
25.6998,25.7687
25.8720,25.7085
26.0264,25.6114
26.1554,25.4824
26.1554,25.4824
26.1707,25.4580
26.2231,25.4117
26.2757,25.4000
27.1797,25.4000
27.2467,25.4197
27.2847,25.4580
27.3002,25.4827
27.3002,25.4827
27.4293,25.6118
27.5838,25.7089
27.6895,25.7459
27.7462,25.7866
27.7720,25.8516
27.7725,25.8629
27.7725,25.9746
27.7725,25.9746
27.7725,26.0487
27.7714,26.0649
27.7681,26.0902
27.7597,26.1215
27.7531,26.1376
27.7369,26.1656
27.7213,26.1859
27.7106,26.1981
27.6448,26.2639
27.5217,26.4243
27.4206,26.5994
27.4206,26.5994
27.3441,26.7842
27.3002,26.8387
27.2858,26.8473
27.1536,26.9147
27.0294,27.0049
26.9636,27.0283
26.8956,27.0125
26.8479,26.9635
26.8476,26.9637
26.8469,26.9625
26.8469,26.9624
26.8467,26.9621
26.8433,26.9559
26.7572,26.8408
26.7572,26.8408
26.6421,26.7546
26.6421,26.7546
26.5074,26.7044
26.5074,26.7044
26.4478,26.6980
25.6500,26.6980
25.6500,28.0150
25.5930,27.9821
25.4658,27.9480
25.3342,27.9480
25.2070,27.9821
25.1500,28.0150
25.1500,26.6980
24.3522,26.6980
24.2926,26.7044
24.2926,26.7044
24.1579,26.7546
24.1579,26.7546
24.0428,26.8408
24.0428,26.8408
23.9566,26.9559
23.9566,26.9559
23.9064,27.0906
23.9064,27.0906
23.9000,27.1502
23.9000,28.1980
24.9670,28.1980
24.9341,28.2550
24.9000,28.3822
24.9000,28.5138
24.9341,28.6410
24.9670,28.6980
23.9000,28.6980
23.9000,29.7458
23.9064,29.8054
23.9064,29.8054
23.9566,29.9401
23.9566,29.9401
24.0428,30.0552
24.0428,30.0552
24.1579,30.1413
24.1579,30.1414
24.2926,30.1916
24.2926,30.1916
24.3522,30.1980
24.3522,30.1980
25.1500,30.1980
25.1500,28.8810
25.2070,28.9139
25.3342,28.9480
25.4658,28.9480
25.5930,28.9139
25.6500,28.8810
25.6500,30.1980
26.4478,30.1980
26.4478,30.1980
26.5074,30.1916
26.5074,30.1916
26.6421,30.1414
26.6421,30.1413
26.7572,30.0552
26.7572,30.0552
26.8433,29.9401
26.8476,29.9323
26.8509,29.9341
26.8821,29.8923
26.9476,29.8678
27.0158,29.8826
27.0294,29.8911
27.1536,29.9813
27.2858,30.0487
27.3366,30.0967
27.3441,30.1118
27.4206,30.2966
27.4206,30.2966
27.5217,30.4717
27.6301,30.6130
27.6449,30.6322
27.6582,30.6455
27.6582,30.6455
27.6800,30.6673
27.6800,30.6673
27.7878,30.7752
27.7879,30.7752
27.9483,30.8983
28.1234,30.9994
28.1234,30.9994
28.1234,30.9994
28.2920,31.0692
28.3103,31.0768
28.3103,31.0768
28.3103,31.0768
28.4202,31.1062
28.5056,31.1291
28.7061,31.1555
28.8072,31.1555
30.4492,31.1555
30.5157,31.1555
30.5223,31.1555
30.5225,31.1555
30.5602,31.1555
30.7807,31.1306
30.9972,31.0813
31.2067,31.0079
31.4067,30.9116
31.5946,30.7935
31.7682,30.6551
31.7826,30.6407
31.7826,30.6407
31.8103,30.6130
31.8103,30.6130
31.8467,30.5767
31.8467,30.5767
31.9251,30.4982
32.0635,30.3246
32.1816,30.1367
32.1969,30.1050
32.2437,30.0531
32.3112,30.0348
32.3649,30.0483
32.3744,30.0531
32.4440,30.0886
32.6257,30.1476
32.6686,30.1616
32.9019,30.1985
32.9019,30.1985
33.1381,30.1985
33.3714,30.1616
33.5960,30.0886
33.8064,29.9813
33.9975,29.8425
34.1645,29.6755
34.1897,29.6409
34.2450,29.5982
34.3146,29.5922
34.3764,29.6248
34.3903,29.6409
34.4155,29.6755
34.5825,29.8425
34.7736,29.9813
34.8730,30.0320
34.9840,30.0886
34.9840,30.0886
34.9840,30.0886
35.1044,30.1277
35.2086,30.1616
35.4419,30.1985
35.4419,30.1985
35.6781,30.1985
35.9114,30.1616
36.1360,30.0886
36.3464,29.9813
36.5375,29.8425
36.7045,29.6755
36.7297,29.6409
36.7850,29.5982
36.8546,29.5922
36.9164,29.6248
36.9303,29.6409
36.9555,29.6755
37.1225,29.8425
37.3136,29.9813
37.4130,30.0320
37.5240,30.0886
37.5240,30.0886
37.5240,30.0886
37.6444,30.1277
37.7486,30.1616
37.9819,30.1985
37.9819,30.1985
38.2181,30.1985
38.4514,30.1616
38.6760,30.0886
38.8864,29.9813
39.0775,29.8425
39.2445,29.6755
39.2697,29.6409
39.3250,29.5982
39.3946,29.5922
39.4564,29.6248
39.4703,29.6409
39.4955,29.6755
39.6625,29.8425
39.8536,29.9813
39.9530,30.0320
40.0640,30.0886
40.0640,30.0886
40.0640,30.0886
40.1844,30.1277
40.2886,30.1616
40.5219,30.1985
40.5219,30.1985
40.7581,30.1985
40.9914,30.1616
41.2160,30.0886
41.4264,29.9813
41.6175,29.8425
41.7845,29.6755
41.8097,29.6409
41.8650,29.5982
41.9346,29.5922
41.9964,29.6248
42.0103,29.6409
42.0355,29.6755
42.2025,29.8425
42.3936,29.9813
42.4930,30.0320
42.6040,30.0886
42.6040,30.0886
42.6040,30.0886
42.7244,30.1277
42.8286,30.1616
43.0619,30.1985
43.0619,30.1985
43.2981,30.1985
43.5314,30.1616
43.7560,30.0886
43.9664,29.9813
44.1575,29.8425
44.3245,29.6755
44.4633,29.4844
44.5706,29.2740
44.6436,29.0494
44.6695,28.8856
44.6805,28.8161
44.6805,28.0799
44.6436,27.8466
44.5706,27.6220
44.4633,27.4116
44.4500,27.3932
44.3245,27.2205
44.1575,27.0535
44.0567,26.9803
43.9664,26.9147
43.9631,26.9130
43.9123,26.8650
43.8955,26.7972
43.9181,26.7310
43.9728,26.6876
43.9784,26.6854
44.0649,26.6552
44.0959,26.6444
44.0959,26.6444
44.2515,26.5465
44.3815,26.4165
44.4794,26.2609
44.5401,26.0873
44.5401,26.0873
44.5401,26.0873
44.5523,25.9786
44.5555,25.9504
44.5555,24.8496
44.5534,24.8309
44.5401,24.7127
44.4794,24.5391
44.4115,24.4312
44.3815,24.3835
44.2515,24.2535
44.2461,24.2491
44.2474,24.2475
44.2077,24.2027
44.1960,24.1500
44.1960,23.2100
44.2157,23.1429
44.2470,23.1120
44.2461,23.1109
44.2515,23.1065
44.2515,23.1065
44.2515,23.1065
44.3815,22.9765
44.4794,22.8209
44.5401,22.6473
44.5441,22.6119
44.5555,22.5104
44.5555,22.5104
44.5555,21.4096
44.5542,21.3984
44.5401,21.2727
44.4794,21.0991
44.4369,21.0315
44.3815,20.9435
44.2515,20.8135
44.0959,20.7156
44.0959,20.7156
43.9223,20.6549
43.9223,20.6549
43.7854,20.6395
43.7148,20.6395
43.6478,20.6198
43.6020,20.5670
43.5921,20.4979
43.6211,20.4343
43.6799,20.3965
43.6972,20.3928
44.1048,20.3341
44.5318,20.2413
44.9510,20.1182
45.3604,19.9655
45.4035,19.9458
45.7579,19.7840
45.7579,19.7840
45.7579,19.7840
46.1414,19.5746
46.5090,19.3383
46.6349,19.2440
46.8587,19.0765
46.9191,19.0242
47.1890,18.7903
47.2023,18.7770
47.2849,18.6944
47.2849,18.6944
47.3434,18.6359
47.3973,18.5820
52.1938,13.7855
52.2239,13.7554
52.2239,13.7554
52.2602,13.7191
52.2602,13.7191
52.2754,13.7039
52.2755,13.7038
52.3783,13.6010
52.6645,13.2707
52.6645,13.2707
52.6645,13.2707
52.9263,12.9209
52.9263,12.9209
52.9263,12.9209
53.1625,12.5534
53.3719,12.1699
53.5535,11.7724
53.7062,11.3630
53.8293,10.9438
53.8350,10.9172
53.9221,10.5168
53.9222,10.5163
53.9843,10.0843
53.9908,9.9937
54.0152,9.9282
54.0712,9.8863
54.1145,9.8785
54.3879,9.8785
54.3879,9.8785
54.4475,9.8721
54.5823,9.8218
54.6975,9.7355
54.7838,9.6203
54.8341,9.4855
54.8405,9.4259
54.8405,6.8301
54.8341,6.7705
54.8325,6.7662
54.7838,6.6357
54.7838,6.6357
54.6975,6.5205
54.6975,6.5205
54.5823,6.4342
54.5823,6.4342
54.4475,6.3839
54.4475,6.3839
54.3879,6.3775
54.3879,6.3775
54.3879,6.3775
54.3879,6.3775
52.2921,6.3775
52.2921,6.3775
52.2325,6.3839
52.0977,6.4342
52.0977,6.4342
51.9825,6.5205
51.9825,6.5205
51.8962,6.6357
51.8920,6.6435
51.8887,6.6417
51.8571,6.6837
51.7916,6.7079
51.7234,6.6929
51.7102,6.6845
51.5864,6.5947
51.3760,6.4874
51.1514,6.4144
50.9181,6.3775
50.9181,6.3775
50.6819,6.3775
50.6819,6.3775
50.4486,6.4144
50.2240,6.4874
50.0136,6.5947
49.9464,6.6435
49.8225,6.7335
49.8225,6.7335
49.8225,6.7335
49.6555,6.9005
49.6303,6.9351
49.5750,6.9778
49.5054,6.9838
49.4436,6.9512
49.4297,6.9351
49.4045,6.9005
49.2375,6.7335
49.0464,6.5947
49.0464,6.5947
48.8360,6.4874
48.6114,6.4144
48.3781,6.3775
48.3781,6.3775
48.1419,6.3775
48.1419,6.3775
47.9086,6.4144
47.6840,6.4874
47.4736,6.5947
47.4064,6.6435
47.2825,6.7335
47.2825,6.7335
47.2825,6.7335
47.1155,6.9005
47.0903,6.9351
47.0350,6.9778
46.9654,6.9838
46.9036,6.9512
46.8897,6.9351
46.8645,6.9005
46.6975,6.7335
46.5064,6.5947
46.5064,6.5947
46.2960,6.4874
46.0714,6.4144
45.8381,6.3775
45.8381,6.3775
45.6019,6.3775
45.6019,6.3775
45.3686,6.4144
45.1440,6.4874
44.9336,6.5947
44.8664,6.6435
44.7425,6.7335
44.7425,6.7335
44.7425,6.7335
44.5755,6.9005
44.5503,6.9351
44.4950,6.9778
44.4254,6.9838
44.3636,6.9512
44.3497,6.9351
44.3245,6.9005
44.1575,6.7335
43.9664,6.5947
43.9664,6.5947
43.7560,6.4874
43.5314,6.4144
43.2981,6.3775
43.2981,6.3775
43.0619,6.3775
43.0619,6.3775
42.8286,6.4144
42.6040,6.4874
42.3936,6.5947
42.3264,6.6435
42.2025,6.7335
42.2025,6.7335
42.2025,6.7335
42.0355,6.9005
42.0103,6.9351
41.9550,6.9778
41.8854,6.9838
41.8236,6.9512
41.8097,6.9351
41.7845,6.9005
41.6175,6.7335
41.4264,6.5947
41.4264,6.5947
41.2160,6.4874
40.9914,6.4144
40.7581,6.3775
40.7581,6.3775
40.5219,6.3775
40.5219,6.3775
40.2886,6.4144
40.0640,6.4874
39.8536,6.5947
39.7864,6.6435
39.6625,6.7335
39.6625,6.7335
39.6625,6.7335
39.4955,6.9005
39.4703,6.9351
39.4150,6.9778
39.3454,6.9838
39.2836,6.9512
39.2697,6.9351
39.2445,6.9005
39.0775,6.7335
38.8864,6.5947
38.8864,6.5947
38.6760,6.4874
38.4514,6.4144
38.2181,6.3775
38.2181,6.3775
37.9819,6.3775
37.9819,6.3775
37.7486,6.4144
37.5240,6.4874
37.3136,6.5947
37.2464,6.6435
37.1225,6.7335
37.1225,6.7335
37.1225,6.7335
37.0898,6.7662
37.0285,6.7997
36.9588,6.7947
36.9028,6.7528
36.8859,6.7218
36.8538,6.6357
36.8538,6.6357
36.7675,6.5205
36.7675,6.5205
36.6523,6.4342
36.6523,6.4342
36.5175,6.3839
36.5175,6.3839
36.4579,6.3775
36.4579,6.3775
36.4579,6.3775
36.4579,6.3775
34.6621,6.3775
34.6621,6.3775
34.6025,6.3839
34.4677,6.4342
34.4677,6.4342
34.3966,6.4874
34.3725,6.5054
34.3643,6.5116
34.2988,6.5360
34.2306,6.5211
34.2157,6.5116
34.2075,6.5054
34.1123,6.4342
34.1123,6.4342
34.1123,6.4342
33.9775,6.3839
33.9775,6.3839
33.9179,6.3775
33.9179,6.3775
33.9179,6.3775
33.9179,6.3775
32.1221,6.3775
32.1221,6.3775
32.0625,6.3839
31.9277,6.4342
31.9277,6.4342
31.8125,6.5205
31.8125,6.5205
31.7262,6.6357
31.7262,6.6357
31.6941,6.7218
31.6522,6.7778
31.5867,6.8022
31.5185,6.7873
31.4902,6.7662
31.4575,6.7335
31.4575,6.7335
31.2664,6.5947
31.2664,6.5947
31.0560,6.4874
30.8314,6.4144
30.5981,6.3775
30.5981,6.3775
30.3619,6.3775
30.3619,6.3775
30.1286,6.4144
29.9040,6.4874
29.6936,6.5947
29.6264,6.6435
29.5025,6.7335
29.5025,6.7335
29.5025,6.7335
29.3355,6.9005
29.3103,6.9351
29.2550,6.9778
29.1854,6.9838
29.1236,6.9512
29.1097,6.9351
29.0845,6.9005
28.9175,6.7335
28.7264,6.5947
28.7264,6.5947
28.5160,6.4874
28.2914,6.4144
28.0581,6.3775
28.0581,6.3775
27.8219,6.3775
27.8219,6.3775
27.5886,6.4144
27.3640,6.4874
27.1536,6.5947
27.0864,6.6435
26.9625,6.7335
26.9625,6.7335
26.9625,6.7335
26.7955,6.9005
26.7703,6.9351
26.7150,6.9778
26.6454,6.9838
26.5836,6.9512
26.5697,6.9351
26.5445,6.9005
26.3775,6.7335
26.1864,6.5947
25.9879,6.4935
25.9411,6.4519
25.9247,6.4274
25.9247,6.4274
25.8306,6.3333
25.8306,6.3333
25.7200,6.2594
25.5970,6.2085
25.5970,6.2085
25.4665,6.1825
25.4665,6.1825
25.3335,6.1825
25.3335,6.1825
25.2030,6.2085
25.2030,6.2085
25.0800,6.2594
24.9694,6.3333
24.9694,6.3333
24.8201,6.4826
24.7887,6.5054
24.6136,6.5947
24.4911,6.6837
24.4225,6.7335
24.4225,6.7335
24.4225,6.7335
24.2555,6.9005
24.2303,6.9351
24.1750,6.9778
24.1054,6.9838
24.0436,6.9512
24.0297,6.9351
24.0045,6.9005
23.8375,6.7335
23.6464,6.5947
23.6464,6.5947
23.4360,6.4874
23.2114,6.4144
22.9781,6.3775
22.9781,6.3775
22.7419,6.3775
22.7419,6.3775
22.5086,6.4144
22.2840,6.4874
22.0736,6.5947
22.0064,6.6435
21.8825,6.7335
21.8825,6.7335
21.8825,6.7335
21.7155,6.9005
21.6903,6.9351
21.6350,6.9778
21.5654,6.9838
21.5036,6.9512
21.4897,6.9351
21.4645,6.9005
21.2975,6.7335
21.1064,6.5947
21.1064,6.5947
20.8960,6.4874
20.6714,6.4144
20.4381,6.3775
20.4381,6.3775
20.2019,6.3775
20.2019,6.3775
19.9686,6.4144
19.7440,6.4874
19.5336,6.5947
19.4664,6.6435
19.3425,6.7335
19.3425,6.7335
19.3425,6.7335
19.1755,6.9005
19.1503,6.9351
19.0950,6.9778
19.0254,6.9838
18.9636,6.9512
18.9497,6.9351
18.9245,6.9005
18.7575,6.7335
18.5664,6.5947
18.5664,6.5947
18.3560,6.4874
18.1314,6.4144
17.8981,6.3775
17.8981,6.3775
17.6619,6.3775
17.6619,6.3775
17.4286,6.4144
17.2040,6.4874
16.9936,6.5947
16.9264,6.6435
16.8025,6.7335
16.8025,6.7335
16.8025,6.7335
16.6355,6.9005
16.6103,6.9351
16.5550,6.9778
16.4854,6.9838
16.4236,6.9512
16.4097,6.9351
16.3845,6.9005
16.2175,6.7335
16.0264,6.5947
16.0264,6.5947
15.8160,6.4874
15.5914,6.4144
15.3581,6.3775
15.3581,6.3775
15.1219,6.3775
15.1219,6.3775
14.8886,6.4144
14.6640,6.4874
14.4536,6.5947
14.3864,6.6435
14.2625,6.7335
14.2625,6.7335
14.2625,6.7335
14.0955,6.9005
14.0955,6.9005
14.0955,6.9005
14.0505,6.9624
13.9567,7.0916
13.8494,7.3020
13.7764,7.5266
13.7395,7.7599
11.4225,7.7599
11.4225,4.9425
11.4422,4.8755
11.4950,4.8297
11.5465,4.8185
56.0175,4.8185
Z" /> 
</g>
<g style="fill:#FFFFFF; fill-opacity:1.0000; stroke:none;">
<circle cx="53.3400" cy="8.1280" r="0.5000" /> 
</g>
<g style="fill:#FFFFFF; fill-opacity:1.0000; stroke:none;">
<circle cx="50.8000" cy="8.1280" r="0.5000" /> 
</g>
<g style="fill:#FFFFFF; fill-opacity:1.0000; stroke:none;">
<circle cx="48.2600" cy="8.1280" r="0.5000" /> 
</g>
<g style="fill:#FFFFFF; fill-opacity:1.0000; stroke:none;">
<circle cx="45.7200" cy="8.1280" r="0.5000" /> 
</g>
<g style="fill:#FFFFFF; fill-opacity:1.0000; stroke:none;">
<circle cx="43.1800" cy="8.1280" r="0.5000" /> 
</g>
<g style="fill:#FFFFFF; fill-opacity:1.0000; stroke:none;">
<circle cx="40.6400" cy="8.1280" r="0.5000" /> 
</g>
<g style="fill:#FFFFFF; fill-opacity:1.0000; stroke:none;">
<circle cx="38.1000" cy="8.1280" r="0.5000" /> 
</g>
<g style="fill:#FFFFFF; fill-opacity:1.0000; stroke:none;">
<circle cx="35.5600" cy="8.1280" r="0.5000" /> 
</g>
<g style="fill:#FFFFFF; fill-opacity:1.0000; stroke:none;">
<circle cx="33.0200" cy="8.1280" r="0.5000" /> 
</g>
<g style="fill:#FFFFFF; fill-opacity:1.0000; stroke:none;">
<circle cx="30.4800" cy="8.1280" r="0.5000" /> 
</g>
<g style="fill:#FFFFFF; fill-opacity:1.0000; stroke:none;">
<circle cx="27.9400" cy="8.1280" r="0.5000" /> 
</g>
<g style="fill:#FFFFFF; fill-opacity:1.0000; stroke:none;">
<circle cx="25.4000" cy="8.1280" r="0.5000" /> 
</g>
<g style="fill:#FFFFFF; fill-opacity:1.0000; stroke:none;">
<circle cx="22.8600" cy="8.1280" r="0.5000" /> 
</g>
<g style="fill:#FFFFFF; fill-opacity:1.0000; stroke:none;">
<circle cx="20.3200" cy="8.1280" r="0.5000" /> 
</g>
<g style="fill:#FFFFFF; fill-opacity:1.0000; stroke:none;">
<circle cx="17.7800" cy="8.1280" r="0.5000" /> 
</g>
<g style="fill:#FFFFFF; fill-opacity:1.0000; stroke:none;">
<circle cx="15.2400" cy="8.1280" r="0.5000" /> 
</g>
<g style="fill:#FFFFFF; fill-opacity:1.0000; stroke:none;">
<circle cx="25.4000" cy="28.4480" r="0.5000" /> 
</g>
<g style="fill:#FFFFFF; fill-opacity:1.0000; stroke:none;">
<circle cx="27.9400" cy="28.4480" r="0.5000" /> 
</g>
<g style="fill:#FFFFFF; fill-opacity:1.0000; stroke:none;">
<circle cx="30.4800" cy="28.4480" r="0.5000" /> 
</g>
<g style="fill:#FFFFFF; fill-opacity:1.0000; stroke:none;">
<circle cx="33.0200" cy="28.4480" r="0.5000" /> 
</g>
<g style="fill:#FFFFFF; fill-opacity:1.0000; stroke:none;">
<circle cx="35.5600" cy="28.4480" r="0.5000" /> 
</g>
<g style="fill:#FFFFFF; fill-opacity:1.0000; stroke:none;">
<circle cx="38.1000" cy="28.4480" r="0.5000" /> 
</g>
<g style="fill:#FFFFFF; fill-opacity:1.0000; stroke:none;">
<circle cx="40.6400" cy="28.4480" r="0.5000" /> 
</g>
<g style="fill:#FFFFFF; fill-opacity:1.0000; stroke:none;">
<circle cx="43.1800" cy="28.4480" r="0.5000" /> 
</g> 
</svg>
